<?xml version="1.0" encoding="UTF-8" standalone="no"?>
<!-- Created with Inkscape (http://www.inkscape.org/) -->

<svg
   width="653"
   height="583"
   viewBox="0 0 172.77401 154.25242"
   version="1.1"
   id="svg5"
   inkscape:version="1.1.1 (3bf5ae0d25, 2021-09-20)"
   sodipodi:docname="etapa2.svg"
   xmlns:inkscape="http://www.inkscape.org/namespaces/inkscape"
   xmlns:sodipodi="http://sodipodi.sourceforge.net/DTD/sodipodi-0.dtd"
   xmlns="http://www.w3.org/2000/svg"
   xmlns:svg="http://www.w3.org/2000/svg">
  <sodipodi:namedview
     id="namedview7"
     pagecolor="#ffffff"
     bordercolor="#666666"
     borderopacity="1.0"
     inkscape:pageshadow="2"
     inkscape:pageopacity="0.0"
     inkscape:pagecheckerboard="0"
     inkscape:document-units="px"
     showgrid="false"
     units="px"
     width="1025px"
     height="682px"
     showguides="true"
     inkscape:guide-bbox="true"
     inkscape:zoom="0.38221707"
     inkscape:cx="-406.83688"
     inkscape:cy="202.76436"
     inkscape:window-width="1920"
     inkscape:window-height="1011"
     inkscape:window-x="0"
     inkscape:window-y="0"
     inkscape:window-maximized="1"
     inkscape:current-layer="layer1">
    <sodipodi:guide
       position="-67.968334,168.96412"
       orientation="1,0"
       id="guide98514" />
  </sodipodi:namedview>
  <defs
     id="defs2">
    <rect
       x="63.603035"
       y="231.66563"
       width="555.02252"
       height="362.80865"
       id="rect27482" />
    <rect
       x="181.43657"
       y="196.51961"
       width="521.11708"
       height="100.2923"
       id="rect2963" />
  </defs>
  <g
     inkscape:label="Layer 1"
     inkscape:groupmode="layer"
     id="layer1">
    <g
       id="g1174"
       transform="translate(3.9783551,36.867312)">
      <g
         id="g13728" />
    </g>
    <g
       id="g623">
      <path
         id="rect31"
         style="fill:#2a3f58;fill-rule:evenodd;stroke-width:0.255537"
         d="M 0.09366776,-0.02053081 H 172.86769 V 154.2319 H 0.09366776 Z" />
      <path
         id="path446"
         style="fill:#ffffff;stroke-width:0.230593"
         d="m 35.513468,21.805634 a 9.6399517,9.780426 0 0 1 -9.639952,9.780426 9.6399517,9.780426 0 0 1 -9.639952,-9.780426 9.6399517,9.780426 0 0 1 9.639952,-9.780426 9.6399517,9.780426 0 0 1 9.639952,9.780426 z" />
      <path
         fill="#00b8d4"
         opacity="1"
         d="M 15.821924,11.535764 H 36.283035 V 31.644097 H 15.821924 V 11.535764 m 8.202083,0.8255 c -1.908528,0.352778 -3.65125,1.368778 -5.012972,2.7305 -2.797528,2.885722 -3.478389,7.549444 -1.583972,11.098389 1.527528,2.910416 4.60375,4.981222 7.912805,5.101166 3.242028,0.254 6.558139,-1.308805 8.396111,-3.989917 1.989667,-2.709333 2.321278,-6.508749 0.899583,-9.546166 -1.710972,-3.986389 -6.388805,-6.328833 -10.611555,-5.393972 z"
         id="path2"
         style="fill:#2a3f58;fill-opacity:1;stroke-width:0.352778" />
      <g
         aria-label="Infección Crónica"
         transform="matrix(0.26458333,0,0,0.26458333,-33.190863,-16.970379)"
         id="text2961"
         style="font-size:53.3333px;line-height:1.25;white-space:pre;shape-inside:url(#rect2963)">
        <path
           d="m 187.3575,243.7311 c 0,1.65333 1.28,2.93333 2.93333,2.93333 1.6,0 2.98666,-1.28 2.98666,-2.93333 v -31.46665 c 0,-1.65333 -1.38666,-2.93333 -2.98666,-2.93333 -1.65333,0 -2.93333,1.28 -2.93333,2.93333 z"
           style="font-family:Quicksand;-inkscape-font-specification:Quicksand;fill:#ffffff"
           id="path55" />
        <path
           d="m 213.75739,219.99778 c -2.07999,0 -4.05333,0.64 -5.65333,1.65333 -0.47999,-1.01333 -1.49333,-1.65333 -2.61333,-1.65333 -1.6,0 -2.82666,1.28 -2.82666,2.82666 v 8.26666 c 0,0 0,0 0,0 v 12.74666 c 0,1.54667 1.22666,2.82667 2.82666,2.82667 1.38667,0 2.56,-1.01333 2.82667,-2.29333 0.10666,-0.21334 0.10666,-0.37334 0.10666,-0.53334 V 231.0911 c 0,-2.98666 2.34667,-5.38666 5.33333,-5.38666 3.04,0 5.54667,2.4 5.54667,5.38666 v 12.74666 c 0,1.54667 1.33333,2.82667 2.82666,2.82667 1.54667,0 2.77333,-1.28 2.77333,-2.82667 V 231.0911 c 0,-6.02666 -4.95999,-11.09332 -11.14666,-11.09332 z"
           style="font-family:Quicksand;-inkscape-font-specification:Quicksand;fill:#ffffff"
           id="path57" />
        <path
           d="m 244.58399,215.51778 c 0.0533,-0.0533 0.10667,-0.10667 0.32,-0.16 0.21333,-0.10667 0.69333,-0.16 1.38667,-0.16 1.59999,0 2.93333,-1.33333 2.93333,-2.98666 0,-1.6 -1.33334,-2.93334 -2.93333,-2.93334 -1.12,0 -2.13334,0.10667 -3.2,0.42667 -1.6,0.48 -3.09333,1.70667 -3.84,3.30667 -0.8,1.54666 -1.01333,3.25333 -1.01333,5.22666 v 0.74667 h -1.38667 c -1.65333,0 -2.98666,1.27999 -2.98666,2.93333 0,1.6 1.33333,2.93333 2.98666,2.93333 h 1.38667 v 18.82665 c 0,1.6 1.28,2.93334 2.93333,2.93334 1.65333,0 2.93333,-1.33334 2.93333,-2.93334 v -18.82665 h 1.6 c 1.6,0 2.93333,-1.33333 2.93333,-2.93333 0,-1.65334 -1.33333,-2.93333 -2.93333,-2.93333 h -1.6 v -0.74667 c 0,-1.97333 0.42667,-2.72 0.48,-2.72 z"
           style="font-family:Quicksand;-inkscape-font-specification:Quicksand;fill:#ffffff"
           id="path59" />
        <path
           d="m 265.27727,246.66443 c 3.78667,0 6.93333,-1.12 9.54666,-3.52 1.22667,-1.12 0.69334,-2.72 0,-3.46666 -0.69333,-0.85334 -2.87999,-1.01334 -3.99999,0.16 -1.33334,1.01333 -3.62667,1.49333 -5.54667,1.33333 -1.86666,-0.16 -3.99999,-1.12 -5.11999,-2.4 -0.96,-0.90667 -1.54667,-2.29333 -1.81334,-3.52 h 16.95999 c 1.49334,0 2.61334,-0.85333 2.77334,-2.13333 0.0533,-0.10667 0.0533,-0.37333 0.0533,-0.48 0,0 0,0 0,0 0,0 0,0 0,0 0,-0.10667 0,-0.21333 0,-0.26667 -0.42667,-7.19999 -5.92,-12.37332 -12.85333,-12.37332 -7.30666,0 -12.95999,6.07999 -13.01332,13.33332 0.0533,7.25333 5.70666,13.28 13.01332,13.33333 z m 0,-21.59999 c 4.64,0.37333 7.36,3.52 7.89333,5.65333 h -15.09332 c 0.42666,-2.18666 2.66666,-5.44 7.19999,-5.65333 z"
           style="font-family:Quicksand;-inkscape-font-specification:Quicksand;fill:#ffffff"
           id="path61" />
        <path
           d="m 298.29055,246.66443 c 0,0 0,0 0,0 3.2,0 6.18666,-1.17333 8.47999,-2.82667 1.22667,-1.06666 1.44,-2.77333 0.58667,-3.94666 -1.06667,-1.28 -2.82667,-1.49333 -4,-0.58667 -1.38666,1.01334 -3.14666,1.70667 -5.06666,1.70667 -4.32,0 -7.89333,-3.52 -7.89333,-7.62666 0,-4.10667 3.57333,-7.68 7.89333,-7.68 1.97333,0 3.68,0.69333 5.06666,1.70667 1.22667,0.96 2.93333,0.74666 4,-0.53334 0.85333,-1.17333 0.64,-2.98666 -0.58667,-3.94666 -2.29333,-1.76 -5.27999,-2.93333 -8.47999,-2.93333 -7.36,0.0533 -13.54666,5.97333 -13.54666,13.38666 0,7.30666 6.18666,13.27999 13.54666,13.27999 z"
           style="font-family:Quicksand;-inkscape-font-specification:Quicksand;fill:#ffffff"
           id="path63" />
        <path
           d="m 327.94375,246.66443 c 0,0 0,0 0,0 3.19999,0 6.18666,-1.17333 8.47999,-2.82667 1.22667,-1.06666 1.44,-2.77333 0.58667,-3.94666 -1.06667,-1.28 -2.82667,-1.49333 -4,-0.58667 -1.38667,1.01334 -3.14666,1.70667 -5.06666,1.70667 -4.32,0 -7.89333,-3.52 -7.89333,-7.62666 0,-4.10667 3.57333,-7.68 7.89333,-7.68 1.97333,0 3.67999,0.69333 5.06666,1.70667 1.22667,0.96 2.93333,0.74666 4,-0.53334 0.85333,-1.17333 0.64,-2.98666 -0.58667,-3.94666 -2.29333,-1.76 -5.28,-2.93333 -8.47999,-2.93333 -7.36,0.0533 -13.54666,5.97333 -13.54666,13.38666 0,7.30666 6.18666,13.27999 13.54666,13.27999 z"
           style="font-family:Quicksand;-inkscape-font-specification:Quicksand;fill:#ffffff"
           id="path65" />
        <path
           d="m 349.65035,220.05111 c -1.6,0 -2.88,1.22667 -2.88,2.93333 v 20.79999 c 0,1.6 1.28,2.88 2.88,2.88 1.65333,0 2.88,-1.28 2.88,-2.88 v -20.79999 c 0,-1.70666 -1.22667,-2.93333 -2.88,-2.93333 z m 2.88,-7.83999 c 0,-1.6 -1.22667,-2.88 -2.88,-2.88 -1.6,0 -2.88,1.28 -2.88,2.88 v 1.12 c 0,1.59999 1.28,2.93333 2.88,2.93333 1.65333,0 2.88,-1.33334 2.88,-2.93333 z"
           style="font-family:Quicksand;-inkscape-font-specification:Quicksand;fill:#ffffff"
           id="path67" />
        <path
           d="m 372.69025,246.82443 c 0,0 0,0 0,0 3.52,0 6.71999,-1.54667 8.90666,-4.05333 2.4,-2.34667 3.73333,-5.65333 3.73333,-9.38666 0,-3.62667 -1.33333,-6.77333 -3.73333,-9.33333 -2.18667,-2.50667 -5.38666,-4.05333 -8.90666,-4.05333 -3.68,0 -6.77333,1.54666 -9.17333,4.05333 -2.29333,2.56 -3.68,5.70666 -3.68,9.33333 0,3.73333 1.38667,7.03999 3.68,9.38666 2.4,2.50666 5.49333,4.05333 9.17333,4.05333 z m -5.12,-18.98666 c 1.33333,-1.17333 3.09333,-2.02666 5.12,-2.02666 1.86666,0 3.57333,0.85333 4.90666,2.02666 1.33333,1.44 2.08,3.36 2.08,5.54667 0,2.29333 -0.74667,4.15999 -2.08,5.65333 -1.33333,1.28 -3.04,1.97333 -4.90666,1.97333 -2.02667,0 -3.78667,-0.69333 -5.12,-1.97333 -1.22666,-1.49334 -1.92,-3.36 -1.92,-5.65333 0,-2.18667 0.69334,-4.10667 1.92,-5.54667 z m 1.54667,-11.57332 c 1.49333,0 2.50666,-0.26667 3.78666,-1.44 l 3.57333,-3.41333 c 0.53334,-0.48 0.90667,-1.01334 0.90667,-1.6 0,-1.01334 -2.13333,-2.08 -3.84,-2.08 -1.12,0 -1.97333,0.58667 -2.56,1.54666 l -3.04,4.69334 c -0.21333,0.31999 -0.42666,0.79999 -0.42666,1.17333 0,0.69333 0.69333,1.12 1.6,1.12 z"
           style="font-family:Quicksand;-inkscape-font-specification:Quicksand;fill:#ffffff"
           id="path69" />
        <path
           d="m 406.9302,219.99778 c -2.08,0 -4.05333,0.64 -5.65333,1.65333 -0.48,-1.01333 -1.49333,-1.65333 -2.61333,-1.65333 -1.6,0 -2.82667,1.28 -2.82667,2.82666 v 8.26666 c 0,0 0,0 0,0 v 12.74666 c 0,1.54667 1.22667,2.82667 2.82667,2.82667 1.38666,0 2.56,-1.01333 2.82666,-2.29333 0.10667,-0.21334 0.10667,-0.37334 0.10667,-0.53334 V 231.0911 c 0,-2.98666 2.34667,-5.38666 5.33333,-5.38666 3.04,0 5.54666,2.4 5.54666,5.38666 v 12.74666 c 0,1.54667 1.33334,2.82667 2.82667,2.82667 1.54666,0 2.77333,-1.28 2.77333,-2.82667 V 231.0911 c 0,-6.02666 -4.96,-11.09332 -11.14666,-11.09332 z"
           style="font-family:Quicksand;-inkscape-font-specification:Quicksand;fill:#ffffff"
           id="path71" />
        <path
           d="m 463.03672,246.66443 c 4.69333,0 8.96,-1.54667 12.31999,-4.16 1.28,-1.01333 1.49334,-2.93333 0.53334,-4.26666 -1.06667,-1.28 -3.04,-1.49334 -4.26667,-0.58667 -2.4,1.92 -5.27999,2.93333 -8.58666,2.93333 -3.68,0 -7.09333,-1.49333 -9.59999,-3.84 -2.4,-2.34666 -3.89333,-5.65333 -3.89333,-9.27999 0,-3.62666 1.49333,-6.82666 3.89333,-9.27999 2.50666,-2.34667 5.91999,-3.84 9.59999,-3.84 3.30667,0 6.24,1.01333 8.58666,2.93333 1.22667,0.96 3.2,0.74667 4.26667,-0.58667 0.96,-1.33333 0.74666,-3.19999 -0.53334,-4.26666 -3.35999,-2.61333 -7.62666,-4.16 -12.31999,-4.16 -10.66666,0.0533 -19.51999,8.64 -19.57332,19.19999 0.0533,10.61333 8.90666,19.19999 19.57332,19.19999 z"
           style="font-family:Quicksand;-inkscape-font-specification:Quicksand;fill:#ffffff"
           id="path73" />
        <path
           d="m 499.25005,220.05111 c -2.66666,-0.0533 -4.95999,0.90667 -6.71999,2.08 -0.37334,0.26667 -0.8,0.69333 -1.12,1.06667 v -0.37334 c 0,-1.54666 -1.33334,-2.77333 -2.93333,-2.77333 -1.54667,0 -2.82667,1.22667 -2.82667,2.77333 v 21.01332 c 0,1.54667 1.28,2.82667 2.82667,2.82667 1.59999,0 2.93333,-1.28 2.93333,-2.82667 v -10.13332 c 0.26666,-0.74667 0.90666,-2.77334 2.18666,-4.48 0.64,-1.01333 1.44,-1.92 2.45333,-2.56 0.90667,-0.69333 1.97334,-1.01333 3.2,-1.01333 1.6,0 2.82667,-1.33333 2.82667,-2.82667 0,-1.54666 -1.22667,-2.77333 -2.82667,-2.77333 z"
           style="font-family:Quicksand;-inkscape-font-specification:Quicksand;fill:#ffffff"
           id="path75" />
        <path
           d="m 520.04999,246.82443 c 0,0 0,0 0,0 3.52,0 6.72,-1.54667 8.90666,-4.05333 2.4,-2.34667 3.73333,-5.65333 3.73333,-9.38666 0,-3.62667 -1.33333,-6.77333 -3.73333,-9.33333 -2.18666,-2.50667 -5.38666,-4.05333 -8.90666,-4.05333 -3.68,0 -6.77333,1.54666 -9.17333,4.05333 -2.29333,2.56 -3.68,5.70666 -3.68,9.33333 0,3.73333 1.38667,7.03999 3.68,9.38666 2.4,2.50666 5.49333,4.05333 9.17333,4.05333 z m -5.12,-18.98666 c 1.33334,-1.17333 3.09333,-2.02666 5.12,-2.02666 1.86667,0 3.57333,0.85333 4.90666,2.02666 1.33334,1.44 2.08,3.36 2.08,5.54667 0,2.29333 -0.74666,4.15999 -2.08,5.65333 -1.33333,1.28 -3.03999,1.97333 -4.90666,1.97333 -2.02667,0 -3.78666,-0.69333 -5.12,-1.97333 -1.22666,-1.49334 -1.92,-3.36 -1.92,-5.65333 0,-2.18667 0.69334,-4.10667 1.92,-5.54667 z m 1.54667,-11.57332 c 1.49333,0 2.50666,-0.26667 3.78666,-1.44 l 3.57333,-3.41333 c 0.53334,-0.48 0.90667,-1.01334 0.90667,-1.6 0,-1.01334 -2.13333,-2.08 -3.84,-2.08 -1.12,0 -1.97333,0.58667 -2.56,1.54666 l -3.03999,4.69334 c -0.21334,0.31999 -0.42667,0.79999 -0.42667,1.17333 0,0.69333 0.69333,1.12 1.6,1.12 z"
           style="font-family:Quicksand;-inkscape-font-specification:Quicksand;fill:#ffffff"
           id="path77" />
        <path
           d="m 554.28993,219.99778 c -2.08,0 -4.05333,0.64 -5.65333,1.65333 -0.48,-1.01333 -1.49334,-1.65333 -2.61334,-1.65333 -1.59999,0 -2.82666,1.28 -2.82666,2.82666 v 8.26666 c 0,0 0,0 0,0 v 12.74666 c 0,1.54667 1.22667,2.82667 2.82666,2.82667 1.38667,0 2.56,-1.01333 2.82667,-2.29333 0.10667,-0.21334 0.10667,-0.37334 0.10667,-0.53334 V 231.0911 c 0,-2.98666 2.34666,-5.38666 5.33333,-5.38666 3.03999,0 5.54666,2.4 5.54666,5.38666 v 12.74666 c 0,1.54667 1.33333,2.82667 2.82666,2.82667 1.54667,0 2.77334,-1.28 2.77334,-2.82667 V 231.0911 c 0,-6.02666 -4.96,-11.09332 -11.14666,-11.09332 z"
           style="font-family:Quicksand;-inkscape-font-specification:Quicksand;fill:#ffffff"
           id="path79" />
        <path
           d="m 578.8232,220.05111 c -1.6,0 -2.88,1.22667 -2.88,2.93333 v 20.79999 c 0,1.6 1.28,2.88 2.88,2.88 1.65333,0 2.88,-1.28 2.88,-2.88 v -20.79999 c 0,-1.70666 -1.22667,-2.93333 -2.88,-2.93333 z m 2.88,-7.83999 c 0,-1.6 -1.22667,-2.88 -2.88,-2.88 -1.6,0 -2.88,1.28 -2.88,2.88 v 1.12 c 0,1.59999 1.28,2.93333 2.88,2.93333 1.65333,0 2.88,-1.33334 2.88,-2.93333 z"
           style="font-family:Quicksand;-inkscape-font-specification:Quicksand;fill:#ffffff"
           id="path81" />
        <path
           d="m 602.55643,246.66443 c 0,0 0,0 0,0 3.2,0 6.18667,-1.17333 8.48,-2.82667 1.22666,-1.06666 1.44,-2.77333 0.58666,-3.94666 -1.06666,-1.28 -2.82666,-1.49333 -3.99999,-0.58667 -1.38667,1.01334 -3.14667,1.70667 -5.06667,1.70667 -4.31999,0 -7.89333,-3.52 -7.89333,-7.62666 0,-4.10667 3.57334,-7.68 7.89333,-7.68 1.97334,0 3.68,0.69333 5.06667,1.70667 1.22666,0.96 2.93333,0.74666 3.99999,-0.53334 0.85334,-1.17333 0.64,-2.98666 -0.58666,-3.94666 -2.29333,-1.76 -5.28,-2.93333 -8.48,-2.93333 -7.35999,0.0533 -13.54666,5.97333 -13.54666,13.38666 0,7.30666 6.18667,13.27999 13.54666,13.27999 z"
           style="font-family:Quicksand;-inkscape-font-specification:Quicksand;fill:#ffffff"
           id="path83" />
        <path
           d="m 643.88967,222.87778 c 0,-1.6 -1.28,-2.88 -2.82666,-2.88 -1.38667,0 -2.45333,1.01333 -2.77333,2.34666 -2.02667,-1.44 -4.42667,-2.34666 -7.09333,-2.34666 -3.62667,0 -6.77333,1.54666 -9.06666,4 -2.29334,2.39999 -3.62667,5.70666 -3.62667,9.38666 0,3.62666 1.33333,6.93333 3.62667,9.38666 2.29333,2.4 5.43999,3.89333 9.06666,3.89333 0,0 0,0 0,0 2.66666,0 5.06666,-0.85333 7.09333,-2.29333 0.32,1.28 1.38666,2.29333 2.77333,2.29333 1.54666,0 2.82666,-1.28 2.82666,-2.82667 v -10.45332 c 0,0 0,0 0,0 0,0 0,0 0,0 z m -7.73333,15.99999 c -1.27999,1.33333 -3.09333,2.08 -4.95999,2.08 -1.92,0 -3.73333,-0.74667 -4.96,-2.08 -1.28,-1.38667 -2.02666,-3.30667 -2.02666,-5.49333 0,-2.24 0.74666,-4.16 2.02666,-5.49333 1.22667,-1.44 3.04,-2.18667 4.96,-2.18667 1.86666,0 3.68,0.74667 4.95999,2.18667 1.28,1.33333 2.08,3.25333 2.08,5.49333 0,2.18666 -0.8,4.10666 -2.08,5.49333 z"
           style="font-family:Quicksand;-inkscape-font-specification:Quicksand;fill:#ffffff"
           id="path85" />
      </g>
      <g
         aria-label="La concentraciones de VIH aumentan y los linfocitos disminuyen El sistema inmunitario se va degradando gradualmente. "
         transform="matrix(0.26458333,0,0,0.26458333,-0.86391158,0.03466807)"
         id="text27480"
         style="font-size:40px;line-height:1.45;white-space:pre;shape-inside:url(#rect27482)">
        <path
           d="m 67.483516,272.06637 v -26 q 0,-0.88 1.6,-0.88 h 0.32 q 1.6,0 1.6,0.88 v 24.16 h 11 q 0.8,0 0.8,1.2 v 0.64 q 0,1.2 -0.8,1.2 h -13.32 q -1.2,0 -1.2,-1.2 z"
           style="font-family:Asap;-inkscape-font-specification:Asap;fill:#ffffff"
           id="path88" />
        <path
           d="m 98.203486,260.22637 v -1.88 q 0,-3.36 -4.4,-3.36 -2.88,0 -5.32,1.24 -0.84,0.44 -0.92,0.44 -0.4,0 -0.92,-0.8 -0.48,-0.8 -0.48,-1.2 0,-0.84 2.32,-1.68 2.36,-0.88 5.64,-0.88 3.28,0 5.36,1.68 2.080004,1.64 2.080004,4.6 v 8.96 q 0,2.4 0.2,3.48 0.28,1.48 0.28,1.56 0,0.48 -0.76,0.72 -0.76,0.2 -1.2,0.2 -0.400004,0 -0.560004,-0.08 -0.16,-0.08 -0.32,-0.28 -0.12,-0.2 -0.2,-0.36 -0.08,-0.2 -0.16,-0.52 -0.08,-0.32 -0.16,-0.48 -0.04,-0.2 -0.12,-0.56 -0.04,-0.4 -0.08,-0.52 -2.72,3 -6.72,3 -3.08,0 -4.96,-1.52 -1.88,-1.52 -1.88,-4.68 0,-3.16 2.16,-4.72 2.2,-1.6 4.92,-1.92 2.72,-0.36 6.2,-0.44 z m -9.68,7.08 q 0,3.28 3.4,3.28 1.96,0 3.36,-0.72 1.44,-0.72 2.92,-2.04 v -4.72 q -5,0 -6.44,0.56 -0.76,0.28 -1.6,0.72 -1.64,0.84 -1.64,2.92 z"
           style="font-family:Asap;-inkscape-font-specification:Asap;fill:#ffffff"
           id="path90" />
        <path
           d="m 116.4434,262.70637 q 0,-3 0.8,-5.16 0.84,-2.16 2.24,-3.32 2.64,-2.12 6.44,-2.12 2.32,0 4.16,0.56 1.84,0.56 1.84,1.28 0,0.52 -0.48,1.36 -0.44,0.8 -0.8,0.8 -0.04,0 -0.16,-0.04 -0.08,-0.04 -0.16,-0.04 -0.04,-0.04 -0.12,-0.08 -2.16,-0.96 -4.36,-0.96 -5.8,0 -5.8,7.64 0,4.24 1.4,6.12 1.44,1.88 4.8,1.88 2.44,0 4.52,-1.04 0.12,-0.04 0.24,-0.08 0.16,-0.08 0.2,-0.08 0.4,0 0.88,0.8 0.48,0.76 0.48,1.24 0,0.72 -1.88,1.4 -1.88,0.64 -4.4,0.64 -4.96,0 -7.4,-2.56 -2.44,-2.56 -2.44,-8.24 z"
           style="font-family:Asap;-inkscape-font-specification:Asap;fill:#ffffff"
           id="path92" />
        <path
           d="m 145.20335,273.50637 q -4.48,0 -6.88,-2.72 -2.36,-2.72 -2.36,-7.88 0,-5.2 2.4,-8 2.4,-2.8 6.84,-2.8 4.44,0 6.76,2.8 2.36,2.76 2.36,8 0,5.2 -2.32,7.92 -2.28,2.68 -6.8,2.68 z m -4.36,-4.76 q 1.36,1.88 4.28,1.88 2.92,0 4.32,-1.88 1.4,-1.92 1.4,-5.92 0,-4 -1.4,-5.92 -1.4,-1.92 -4.32,-1.92 -2.92,0 -4.28,1.92 -1.36,1.88 -1.36,5.92 0,4 1.36,5.92 z"
           style="font-family:Asap;-inkscape-font-specification:Asap;fill:#ffffff"
           id="path94" />
        <path
           d="m 159.96328,272.46637 v -14.04 q 0,-2.44 -0.2,-3.48 -0.28,-1.44 -0.28,-1.56 0,-0.48 0.76,-0.68 0.76,-0.24 1.16,-0.24 0.44,0 0.6,0.08 0.16,0.08 0.28,0.28 0.16,0.16 0.24,0.36 0.08,0.16 0.16,0.48 0.08,0.28 0.12,0.48 0.08,0.16 0.12,0.52 0.08,0.32 0.12,0.44 2.68,-3 5.96,-3 3.32,0 5.04,1.72 1.76,1.72 1.76,4.76 v 13.88 q 0,0.88 -1.6,0.88 h -0.16 q -1.6,0 -1.6,-0.88 v -13.56 q 0,-1.84 -1.08,-2.84 -1.04,-1.04 -3,-1.04 -2.88,0 -5.04,2.8 v 14.64 q 0,0.88 -1.6,0.88 h -0.16 q -1.6,0 -1.6,-0.88 z"
           style="font-family:Asap;-inkscape-font-specification:Asap;fill:#ffffff"
           id="path96" />
        <path
           d="m 180.88325,262.70637 q 0,-3 0.8,-5.16 0.84,-2.16 2.24,-3.32 2.64,-2.12 6.44,-2.12 2.32,0 4.16,0.56 1.84,0.56 1.84,1.28 0,0.52 -0.48,1.36 -0.44,0.8 -0.8,0.8 -0.04,0 -0.16,-0.04 -0.08,-0.04 -0.16,-0.04 -0.04,-0.04 -0.12,-0.08 -2.16,-0.96 -4.36,-0.96 -5.8,0 -5.8,7.64 0,4.24 1.4,6.12 1.44,1.88 4.8,1.88 2.44,0 4.52,-1.04 0.12,-0.04 0.24,-0.08 0.16,-0.08 0.2,-0.08 0.4,0 0.88,0.8 0.48,0.76 0.48,1.24 0,0.72 -1.88,1.4 -1.88,0.64 -4.4,0.64 -4.96,0 -7.4,-2.56 -2.44,-2.56 -2.44,-8.24 z"
           style="font-family:Asap;-inkscape-font-specification:Asap;fill:#ffffff"
           id="path98" />
        <path
           d="m 210.2032,273.50637 q -5,0 -7.4,-2.6 -2.4,-2.6 -2.4,-7.92 0,-5.36 2.36,-8.12 2.36,-2.76 6.72,-2.76 8.48,0 8.48,10.44 0,0.36 -0.48,1 -0.48,0.64 -0.84,0.64 h -12.64 q 0.24,3.32 1.72,4.88 1.48,1.56 4.44,1.56 2.72,0 5,-1.28 0.76,-0.4 0.84,-0.4 0.4,0 0.88,0.8 0.52,0.8 0.52,1.2 0,0.8 -2.2,1.68 -2.16,0.88 -5,0.88 z m 4.2,-12.2 q 0,-6.32 -4.8,-6.32 -5.16,0 -5.6,6.32 z"
           style="font-family:Asap;-inkscape-font-specification:Asap;fill:#ffffff"
           id="path100" />
        <path
           d="m 223.20318,272.46637 v -14.04 q 0,-2.44 -0.2,-3.48 -0.28,-1.44 -0.28,-1.56 0,-0.48 0.76,-0.68 0.76,-0.24 1.16,-0.24 0.44,0 0.6,0.08 0.16,0.08 0.28,0.28 0.16,0.16 0.24,0.36 0.08,0.16 0.16,0.48 0.08,0.28 0.12,0.48 0.08,0.16 0.12,0.52 0.08,0.32 0.12,0.44 2.68,-3 5.96,-3 3.32,0 5.04,1.72 1.76,1.72 1.76,4.76 v 13.88 q 0,0.88 -1.6,0.88 h -0.16 q -1.6,0 -1.6,-0.88 v -13.56 q 0,-1.84 -1.08,-2.84 -1.04,-1.04 -3,-1.04 -2.88,0 -5.04,2.8 v 14.64 q 0,0.88 -1.6,0.88 h -0.16 q -1.6,0 -1.6,-0.88 z"
           style="font-family:Asap;-inkscape-font-specification:Asap;fill:#ffffff"
           id="path102" />
        <path
           d="m 246.32315,267.98637 v -12.76 h -2 q -0.8,0 -0.8,-1.2 v -0.48 q 0,-1.2 0.8,-1.2 h 2 l 0.48,-4.2 q 0.08,-0.88 1.28,-0.88 h 0.4 q 1.2,0 1.2,0.88 v 4.2 h 3.36 q 0.8,0 0.8,1.2 v 0.48 q 0,1.2 -0.8,1.2 h -3.36 v 12.44 q 0,2.96 2.16,2.96 0.68,0 1.16,-0.08 0.48,-0.12 0.56,-0.12 0.36,0 0.6,0.76 0.24,0.72 0.24,1.12 0,1.2 -2.92,1.2 -2,0 -3.6,-1.2 -1.56,-1.24 -1.56,-4.32 z"
           style="font-family:Asap;-inkscape-font-specification:Asap;fill:#ffffff"
           id="path104" />
        <path
           d="m 259.32311,272.46637 v -14.04 q 0,-2.44 -0.2,-3.48 -0.28,-1.44 -0.28,-1.56 0,-0.48 0.76,-0.68 0.76,-0.24 1.16,-0.24 0.44,0 0.6,0.08 0.16,0.08 0.28,0.28 0.16,0.16 0.24,0.36 0.08,0.16 0.16,0.48 0.08,0.28 0.12,0.48 0.08,0.16 0.12,0.52 0.08,0.32 0.12,0.44 2.12,-3 4.64,-3 1.12,0 1.72,0.44 0.6,0.44 0.6,1.12 0,0.68 -0.24,1.44 -0.24,0.72 -0.56,0.72 -0.16,0 -0.8,-0.2 -0.6,-0.24 -1.48,-0.24 -0.84,0 -1.76,0.64 -0.92,0.6 -1.36,1.2 l -0.48,0.6 v 14.64 q 0,0.88 -1.6,0.88 h -0.16 q -1.6,0 -1.6,-0.88 z"
           style="font-family:Asap;-inkscape-font-specification:Asap;fill:#ffffff"
           id="path106" />
        <path
           d="m 285.60308,260.22637 v -1.88 q 0,-3.36 -4.4,-3.36 -2.88,0 -5.32,1.24 -0.84,0.44 -0.92,0.44 -0.4,0 -0.92,-0.8 -0.48,-0.8 -0.48,-1.2 0,-0.84 2.32,-1.68 2.36,-0.88 5.64,-0.88 3.28,0 5.36,1.68 2.08,1.64 2.08,4.6 v 8.96 q 0,2.4 0.2,3.48 0.28,1.48 0.28,1.56 0,0.48 -0.76,0.72 -0.76,0.2 -1.2,0.2 -0.4,0 -0.56,-0.08 -0.16,-0.08 -0.32,-0.28 -0.12,-0.2 -0.2,-0.36 -0.08,-0.2 -0.16,-0.52 -0.08,-0.32 -0.16,-0.48 -0.04,-0.2 -0.12,-0.56 -0.04,-0.4 -0.08,-0.52 -2.72,3 -6.72,3 -3.08,0 -4.96,-1.52 -1.88,-1.52 -1.88,-4.68 0,-3.16 2.16,-4.72 2.2,-1.6 4.92,-1.92 2.72,-0.36 6.2,-0.44 z m -9.68,7.08 q 0,3.28 3.4,3.28 1.96,0 3.36,-0.72 1.44,-0.72 2.92,-2.04 v -4.72 q -5,0 -6.44,0.56 -0.76,0.28 -1.6,0.72 -1.64,0.84 -1.64,2.92 z"
           style="font-family:Asap;-inkscape-font-specification:Asap;fill:#ffffff"
           id="path108" />
        <path
           d="m 294.24301,262.70637 q 0,-3 0.8,-5.16 0.84,-2.16 2.24,-3.32 2.64,-2.12 6.44,-2.12 2.32,0 4.16,0.56 1.84,0.56 1.84,1.28 0,0.52 -0.48,1.36 -0.44,0.8 -0.8,0.8 -0.04,0 -0.16,-0.04 -0.08,-0.04 -0.16,-0.04 -0.04,-0.04 -0.12,-0.08 -2.16,-0.96 -4.36,-0.96 -5.8,0 -5.8,7.64 0,4.24 1.4,6.12 1.44,1.88 4.8,1.88 2.44,0 4.52,-1.04 0.12,-0.04 0.24,-0.08 0.16,-0.08 0.2,-0.08 0.4,0 0.88,0.8 0.48,0.76 0.48,1.24 0,0.72 -1.88,1.4 -1.88,0.64 -4.4,0.64 -4.96,0 -7.4,-2.56 -2.44,-2.56 -2.44,-8.24 z"
           style="font-family:Asap;-inkscape-font-specification:Asap;fill:#ffffff"
           id="path110" />
        <path
           d="m 316.64296,247.30637 q -1.6,0 -1.6,-0.88 v -2.36 q 0,-0.88 1.6,-0.88 h 0.48 q 1.6,0 1.6,0.88 v 2.36 q 0,0.88 -1.6,0.88 z m -1.44,25.16 v -19.32 q 0,-0.88 1.6,-0.88 h 0.16 q 1.6,0 1.6,0.88 v 19.32 q 0,0.88 -1.6,0.88 h -0.16 q -1.6,0 -1.6,-0.88 z"
           style="font-family:Asap;-inkscape-font-specification:Asap;fill:#ffffff"
           id="path112" />
        <path
           d="m 333.60293,273.50637 q -4.48,0 -6.88,-2.72 -2.36,-2.72 -2.36,-7.88 0,-5.2 2.4,-8 2.4,-2.8 6.84,-2.8 4.44,0 6.76,2.8 2.36,2.76 2.36,8 0,5.2 -2.32,7.92 -2.28,2.68 -6.8,2.68 z m -4.36,-4.76 q 1.36,1.88 4.28,1.88 2.92,0 4.32,-1.88 1.4,-1.92 1.4,-5.92 0,-4 -1.4,-5.92 -1.4,-1.92 -4.32,-1.92 -2.92,0 -4.28,1.92 -1.36,1.88 -1.36,5.92 0,4 1.36,5.92 z"
           style="font-family:Asap;-inkscape-font-specification:Asap;fill:#ffffff"
           id="path114" />
        <path
           d="m 348.36285,272.46637 v -14.04 q 0,-2.44 -0.2,-3.48 -0.28,-1.44 -0.28,-1.56 0,-0.48 0.76,-0.68 0.76,-0.24 1.16,-0.24 0.44,0 0.6,0.08 0.16,0.08 0.28,0.28 0.16,0.16 0.24,0.36 0.08,0.16 0.16,0.48 0.08,0.28 0.12,0.48 0.08,0.16 0.12,0.52 0.08,0.32 0.12,0.44 2.68,-3 5.96,-3 3.32,0 5.04,1.72 1.76,1.72 1.76,4.76 v 13.88 q 0,0.88 -1.6,0.88 h -0.16 q -1.6,0 -1.6,-0.88 v -13.56 q 0,-1.84 -1.08,-2.84 -1.04,-1.04 -3,-1.04 -2.88,0 -5.04,2.8 v 14.64 q 0,0.88 -1.6,0.88 h -0.16 q -1.6,0 -1.6,-0.88 z"
           style="font-family:Asap;-inkscape-font-specification:Asap;fill:#ffffff"
           id="path116" />
        <path
           d="m 379.20282,273.50637 q -5,0 -7.4,-2.6 -2.4,-2.6 -2.4,-7.92 0,-5.36 2.36,-8.12 2.36,-2.76 6.72,-2.76 8.48,0 8.48,10.44 0,0.36 -0.48,1 -0.48,0.64 -0.84,0.64 h -12.64 q 0.24,3.32 1.72,4.88 1.48,1.56 4.44,1.56 2.72,0 5,-1.28 0.76,-0.4 0.84,-0.4 0.4,0 0.88,0.8 0.52,0.8 0.52,1.2 0,0.8 -2.2,1.68 -2.16,0.88 -5,0.88 z m 4.2,-12.2 q 0,-6.32 -4.8,-6.32 -5.16,0 -5.6,6.32 z"
           style="font-family:Asap;-inkscape-font-specification:Asap;fill:#ffffff"
           id="path118" />
        <path
           d="m 390.16282,271.10637 q 0,-0.4 0.48,-1.2 0.52,-0.8 0.92,-0.8 0.04,0 0.64,0.4 0.6,0.36 1.72,0.76 1.12,0.36 2.68,0.36 1.6,0 2.6,-0.88 1.04,-0.92 1.04,-2.44 0,-1.56 -0.92,-2.4 -0.88,-0.88 -3.56,-1.64 -2.68,-0.76 -3.88,-1.92 -1.2,-1.2 -1.2,-3.6 0,-2.4 1.84,-4 1.84,-1.64 4.8,-1.64 2.04,0 3.64,0.52 1.6,0.52 1.6,1.16 0,0.52 -0.48,1.36 -0.44,0.8 -0.8,0.8 -0.04,0 -0.52,-0.24 -1.36,-0.72 -3.08,-0.72 -1.68,0 -2.64,0.72 -0.92,0.68 -0.92,1.8 0,1.12 0.68,1.76 0.72,0.64 2.4,1.16 3.76,1.16 5.08,2.56 1.36,1.36 1.36,4.16 0,2.76 -2,4.56 -1.96,1.8 -4.72,1.8 -2.76,0 -4.76,-0.8 -2,-0.84 -2,-1.6 z"
           style="font-family:Asap;-inkscape-font-specification:Asap;fill:#ffffff"
           id="path120" />
        <path
           d="m 431.08275,270.50637 q -2.88,3 -6.4,3 -3.52,0 -5.64,-2.96 -2.08,-2.96 -2.08,-7.6 v -0.36 q 0,-4.92 2.24,-7.68 2.24,-2.8 5.6,-2.8 3.36,0 6,2.04 v -10.08 q 0,-0.88 1.6,-0.88 h 0.16 q 1.6,0 1.6,0.88 v 23.28 q 0,2.4 0.2,3.48 0.28,1.48 0.28,1.56 0,0.48 -0.76,0.72 -0.76,0.2 -1.2,0.2 -0.4,0 -0.56,-0.08 -0.16,-0.08 -0.32,-0.28 -0.12,-0.2 -0.2,-0.36 -0.08,-0.2 -0.16,-0.52 -0.08,-0.32 -0.16,-0.48 -0.04,-0.2 -0.12,-0.56 -0.04,-0.4 -0.08,-0.52 z m -10.6,-8 q 0,8.08 5.2,8.08 2.6,0 5.12,-2.76 v -10.96 q -2.16,-1.8 -4.84,-1.8 h -0.24 q -2.56,0.04 -3.92,1.96 -1.32,1.92 -1.32,5.48 z"
           style="font-family:Asap;-inkscape-font-specification:Asap;fill:#ffffff"
           id="path122" />
        <path
           d="m 449.48267,273.50637 q -5,0 -7.4,-2.6 -2.4,-2.6 -2.4,-7.92 0,-5.36 2.36,-8.12 2.36,-2.76 6.72,-2.76 8.48,0 8.48,10.44 0,0.36 -0.48,1 -0.48,0.64 -0.84,0.64 h -12.64 q 0.24,3.32 1.72,4.88 1.48,1.56 4.44,1.56 2.72,0 5,-1.28 0.76,-0.4 0.84,-0.4 0.4,0 0.88,0.8 0.52,0.8 0.52,1.2 0,0.8 -2.2,1.68 -2.16,0.88 -5,0.88 z m 4.2,-12.2 q 0,-6.32 -4.8,-6.32 -5.16,0 -5.6,6.32 z"
           style="font-family:Asap;-inkscape-font-specification:Asap;fill:#ffffff"
           id="path124" />
        <path
           d="m 469.48264,245.86637 q 0,-0.68 1.72,-0.68 h 0.36 q 1.4,0 1.6,0.64 l 7.4,21.36 0.44,2.08 0.52,-2.12 7.4,-21.32 q 0.2,-0.64 1.6,-0.64 h 0.24 q 1.72,0 1.72,0.68 0,0.2 -0.12,0.56 l -9.16,26.28 q -0.2,0.64 -1.6,0.64 h -1.24 q -1.4,0 -1.6,-0.64 l -9.16,-26.32 q -0.12,-0.32 -0.12,-0.52 z"
           style="font-family:Asap;-inkscape-font-specification:Asap;fill:#ffffff"
           id="path126" />
        <path
           d="m 497.2026,272.46637 v -26.4 q 0,-0.88 1.6,-0.88 h 0.32 q 1.6,0 1.6,0.88 v 26.4 q 0,0.88 -1.6,0.88 h -0.32 q -1.6,0 -1.6,-0.88 z"
           style="font-family:Asap;-inkscape-font-specification:Asap;fill:#ffffff"
           id="path128" />
        <path
           d="m 508.4826,272.46637 v -26.4 q 0,-0.88 1.6,-0.88 h 0.32 q 1.6,0 1.6,0.88 v 11.32 h 14.48 v -11.32 q 0,-0.88 1.6,-0.88 h 0.32 q 1.6,0 1.6,0.88 v 26.4 q 0,0.88 -1.6,0.88 h -0.32 q -1.6,0 -1.6,-0.88 v -12.04 h -14.48 v 12.04 q 0,0.88 -1.6,0.88 h -0.32 q -1.6,0 -1.6,-0.88 z"
           style="font-family:Asap;-inkscape-font-specification:Asap;fill:#ffffff"
           id="path130" />
        <path
           d="m 78.843516,320.43608 v -1.88 q 0,-3.36 -4.4,-3.36 -2.88,0 -5.32,1.24 -0.84,0.44 -0.92,0.44 -0.4,0 -0.92,-0.8 -0.48,-0.8 -0.48,-1.2 0,-0.84 2.32,-1.68 2.36,-0.88 5.64,-0.88 3.28,0 5.36,1.68 2.08,1.64 2.08,4.6 v 8.96 q 0,2.4 0.2,3.48 0.28,1.48 0.28,1.56 0,0.48 -0.76,0.72 -0.76,0.2 -1.2,0.2 -0.4,0 -0.56,-0.08 -0.16,-0.08 -0.32,-0.28 -0.12,-0.2 -0.2,-0.36 -0.08,-0.2 -0.16,-0.52 -0.08,-0.32 -0.16,-0.48 -0.04,-0.2 -0.12,-0.56 -0.04,-0.4 -0.08,-0.52 -2.72,3 -6.72,3 -3.08,0 -4.96,-1.52 -1.88,-1.52 -1.88,-4.68 0,-3.16 2.16,-4.72 2.2,-1.6 4.92,-1.92 2.72,-0.36 6.2,-0.44 z m -9.68,7.08 q 0,3.28 3.4,3.28 1.96,0 3.36,-0.72 1.44,-0.72 2.92,-2.04 v -4.72 q -5,0 -6.44,0.56 -0.76,0.28 -1.6,0.72 -1.64,0.84 -1.64,2.92 z"
           style="font-family:Asap;-inkscape-font-specification:Asap;fill:#ffffff"
           id="path132" />
        <path
           d="m 88.403442,327.23608 v -13.88 q 0,-0.88 1.6,-0.88 h 0.16 q 1.6,0 1.6,0.88 v 13.56 q 0,1.84 1.04,2.88 1.08,1 3.04,1 2.88,0 5.039998,-2.8 v -14.64 q 0,-0.88 1.6,-0.88 h 0.16 q 1.6,0 1.6,0.88 v 14.2 q 0,2.4 0.2,3.48 0.28,1.48 0.28,1.56 0,0.48 -0.76,0.72 -0.76,0.2 -1.2,0.2 -0.4,0 -0.56,-0.08 -0.16,-0.08 -0.32,-0.28 -0.12,-0.2 -0.2,-0.36 -0.08,-0.2 -0.16,-0.52 -0.08,-0.32 -0.16,-0.48 -0.04,-0.2 -0.12,-0.56 -0.04,-0.4 -0.08,-0.52 -2.679998,3 -5.999998,3 -3.28,0 -5.04,-1.72 -1.72,-1.72 -1.72,-4.76 z"
           style="font-family:Asap;-inkscape-font-specification:Asap;fill:#ffffff"
           id="path134" />
        <path
           d="m 111.08341,332.67608 v -14.04 q 0,-2.44 -0.2,-3.48 -0.28,-1.44 -0.28,-1.56 0,-0.48 0.76,-0.68 0.76,-0.24 1.16,-0.24 0.44,0 0.6,0.08 0.16,0.08 0.28,0.28 0.16,0.16 0.24,0.36 0.08,0.16 0.16,0.48 0.08,0.28 0.12,0.48 0.08,0.16 0.12,0.52 0.08,0.32 0.12,0.44 2.6,-3 6.08,-3 4.36,0 5.72,3.32 2.8,-3.32 6.36,-3.32 2.28,0 4.08,1.16 1,0.68 1.6,2.04 0.6,1.36 0.6,3.28 v 13.88 q 0,0.88 -1.6,0.88 h -0.16 q -1.6,0 -1.6,-0.88 v -13.56 q 0,-1.8 -1,-2.84 -0.96,-1.04 -2.84,-1.04 -2.48,0 -4.92,2.76 0.04,0.28 0.04,0.84 v 13.84 q 0,0.88 -1.6,0.88 h -0.16 q -1.6,0 -1.6,-0.88 v -13.56 q 0,-1.8 -1,-2.84 -0.96,-1.04 -2.56,-1.04 -1.56,0 -2.8,0.68 -1.2,0.68 -1.76,1.4 l -0.6,0.68 v 14.68 q 0,0.88 -1.6,0.88 h -0.16 q -1.6,0 -1.6,-0.88 z"
           style="font-family:Asap;-inkscape-font-specification:Asap;fill:#ffffff"
           id="path136" />
        <path
           d="m 153.60339,333.71608 q -5,0 -7.4,-2.6 -2.4,-2.6 -2.4,-7.92 0,-5.36 2.36,-8.12 2.36,-2.76 6.72,-2.76 8.48,0 8.48,10.44 0,0.36 -0.48,1 -0.48,0.64 -0.84,0.64 h -12.64 q 0.24,3.32 1.72,4.88 1.48,1.56 4.44,1.56 2.72,0 5,-1.28 0.76,-0.4 0.84,-0.4 0.4,0 0.88,0.8 0.52,0.8 0.52,1.2 0,0.8 -2.2,1.68 -2.16,0.88 -5,0.88 z m 4.2,-12.2 q 0,-6.32 -4.8,-6.32 -5.16,0 -5.6,6.32 z"
           style="font-family:Asap;-inkscape-font-specification:Asap;fill:#ffffff"
           id="path138" />
        <path
           d="m 166.60338,332.67608 v -14.04 q 0,-2.44 -0.2,-3.48 -0.28,-1.44 -0.28,-1.56 0,-0.48 0.76,-0.68 0.76,-0.24 1.16,-0.24 0.44,0 0.6,0.08 0.16,0.08 0.28,0.28 0.16,0.16 0.24,0.36 0.08,0.16 0.16,0.48 0.08,0.28 0.12,0.48 0.08,0.16 0.12,0.52 0.08,0.32 0.12,0.44 2.68,-3 5.96,-3 3.32,0 5.04,1.72 1.76,1.72 1.76,4.76 v 13.88 q 0,0.88 -1.6,0.88 h -0.16 q -1.6,0 -1.6,-0.88 v -13.56 q 0,-1.84 -1.08,-2.84 -1.04,-1.04 -3,-1.04 -2.88,0 -5.04,2.8 v 14.64 q 0,0.88 -1.6,0.88 h -0.16 q -1.6,0 -1.6,-0.88 z"
           style="font-family:Asap;-inkscape-font-specification:Asap;fill:#ffffff"
           id="path140" />
        <path
           d="m 189.72334,328.19608 v -12.76 h -2 q -0.8,0 -0.8,-1.2 v -0.48 q 0,-1.2 0.8,-1.2 h 2 l 0.48,-4.2 q 0.08,-0.88 1.28,-0.88 h 0.4 q 1.2,0 1.2,0.88 v 4.2 h 3.36 q 0.8,0 0.8,1.2 v 0.48 q 0,1.2 -0.8,1.2 h -3.36 v 12.44 q 0,2.96 2.16,2.96 0.68,0 1.16,-0.08 0.48,-0.12 0.56,-0.12 0.36,0 0.6,0.76 0.24,0.72 0.24,1.12 0,1.2 -2.92,1.2 -2,0 -3.6,-1.2 -1.56,-1.24 -1.56,-4.32 z"
           style="font-family:Asap;-inkscape-font-specification:Asap;fill:#ffffff"
           id="path142" />
        <path
           d="m 214.36331,320.43608 v -1.88 q 0,-3.36 -4.4,-3.36 -2.88,0 -5.32,1.24 -0.84,0.44 -0.92,0.44 -0.4,0 -0.92,-0.8 -0.48,-0.8 -0.48,-1.2 0,-0.84 2.32,-1.68 2.36,-0.88 5.64,-0.88 3.28,0 5.36,1.68 2.08,1.64 2.08,4.6 v 8.96 q 0,2.4 0.2,3.48 0.28,1.48 0.28,1.56 0,0.48 -0.76,0.72 -0.76,0.2 -1.2,0.2 -0.4,0 -0.56,-0.08 -0.16,-0.08 -0.32,-0.28 -0.12,-0.2 -0.2,-0.36 -0.08,-0.2 -0.16,-0.52 -0.08,-0.32 -0.16,-0.48 -0.04,-0.2 -0.12,-0.56 -0.04,-0.4 -0.08,-0.52 -2.72,3 -6.72,3 -3.08,0 -4.96,-1.52 -1.88,-1.52 -1.88,-4.68 0,-3.16 2.16,-4.72 2.2,-1.6 4.92,-1.92 2.72,-0.36 6.2,-0.44 z m -9.68,7.08 q 0,3.28 3.4,3.28 1.96,0 3.36,-0.72 1.44,-0.72 2.92,-2.04 v -4.72 q -5,0 -6.44,0.56 -0.76,0.28 -1.6,0.72 -1.64,0.84 -1.64,2.92 z"
           style="font-family:Asap;-inkscape-font-specification:Asap;fill:#ffffff"
           id="path144" />
        <path
           d="m 224.36323,332.67608 v -14.04 q 0,-2.44 -0.2,-3.48 -0.28,-1.44 -0.28,-1.56 0,-0.48 0.76,-0.68 0.76,-0.24 1.16,-0.24 0.44,0 0.6,0.08 0.16,0.08 0.28,0.28 0.16,0.16 0.24,0.36 0.08,0.16 0.16,0.48 0.08,0.28 0.12,0.48 0.08,0.16 0.12,0.52 0.08,0.32 0.12,0.44 2.68,-3 5.96,-3 3.32,0 5.04,1.72 1.76,1.72 1.76,4.76 v 13.88 q 0,0.88 -1.6,0.88 h -0.16 q -1.6,0 -1.6,-0.88 v -13.56 q 0,-1.84 -1.08,-2.84 -1.04,-1.04 -3,-1.04 -2.88,0 -5.04,2.8 v 14.64 q 0,0.88 -1.6,0.88 h -0.16 q -1.6,0 -1.6,-0.88 z"
           style="font-family:Asap;-inkscape-font-specification:Asap;fill:#ffffff"
           id="path146" />
        <path
           d="m 253.52319,313.15608 q 0,-0.68 1.72,-0.68 h 0.32 q 1.32,0 1.6,0.64 l 5.44,14.44 5.32,-14.44 q 0.2,-0.64 1.76,-0.64 1.6,0 1.6,0.68 0,0.2 -0.12,0.56 l -10.28,27.24 q -0.32,0.84 -1.88,0.84 h -0.6 q -1.32,0 -1.32,-0.64 0,-0.12 3.56,-8.8 l -7,-18.68 q -0.12,-0.36 -0.12,-0.52 z"
           style="font-family:Asap;-inkscape-font-specification:Asap;fill:#ffffff"
           id="path148" />
        <path
           d="m 284.92314,328.19608 v -23.92 q 0,-0.88 1.6,-0.88 h 0.16 q 1.6,0 1.6,0.88 v 23.6 q 0,2.96 2.16,2.96 0.68,0 1.16,-0.08 0.48,-0.12 0.56,-0.12 0.36,0 0.6,0.76 0.24,0.72 0.24,1.12 0,1.2 -2.92,1.2 -2,0 -3.6,-1.2 -1.56,-1.24 -1.56,-4.32 z"
           style="font-family:Asap;-inkscape-font-specification:Asap;fill:#ffffff"
           id="path150" />
        <path
           d="m 304.9631,333.71608 q -4.48,0 -6.88,-2.72 -2.36,-2.72 -2.36,-7.88 0,-5.2 2.4,-8 2.4,-2.8 6.84,-2.8 4.44,0 6.76,2.8 2.36,2.76 2.36,8 0,5.2 -2.32,7.92 -2.28,2.68 -6.8,2.68 z m -4.36,-4.76 q 1.36,1.88 4.28,1.88 2.92,0 4.32,-1.88 1.4,-1.92 1.4,-5.92 0,-4 -1.4,-5.92 -1.4,-1.92 -4.32,-1.92 -2.92,0 -4.28,1.92 -1.36,1.88 -1.36,5.92 0,4 1.36,5.92 z"
           style="font-family:Asap;-inkscape-font-specification:Asap;fill:#ffffff"
           id="path152" />
        <path
           d="m 317.68304,331.31608 q 0,-0.4 0.48,-1.2 0.52,-0.8 0.92,-0.8 0.04,0 0.64,0.4 0.6,0.36 1.72,0.76 1.12,0.36 2.68,0.36 1.6,0 2.6,-0.88 1.04,-0.92 1.04,-2.44 0,-1.56 -0.92,-2.4 -0.88,-0.88 -3.56,-1.64 -2.68,-0.76 -3.88,-1.92 -1.2,-1.2 -1.2,-3.6 0,-2.4 1.84,-4 1.84,-1.64 4.8,-1.64 2.04,0 3.64,0.52 1.6,0.52 1.6,1.16 0,0.52 -0.48,1.36 -0.44,0.8 -0.8,0.8 -0.04,0 -0.52,-0.24 -1.36,-0.72 -3.08,-0.72 -1.68,0 -2.64,0.72 -0.92,0.68 -0.92,1.8 0,1.12 0.68,1.76 0.72,0.64 2.4,1.16 3.76,1.16 5.08,2.56 1.36,1.36 1.36,4.16 0,2.76 -2,4.56 -1.96,1.8 -4.72,1.8 -2.76,0 -4.76,-0.8 -2,-0.84 -2,-1.6 z"
           style="font-family:Asap;-inkscape-font-specification:Asap;fill:#ffffff"
           id="path154" />
        <path
           d="m 345.68295,328.19608 v -23.92 q 0,-0.88 1.6,-0.88 h 0.16 q 1.6,0 1.6,0.88 v 23.6 q 0,2.96 2.16,2.96 0.68,0 1.16,-0.08 0.48,-0.12 0.56,-0.12 0.36,0 0.6,0.76 0.24,0.72 0.24,1.12 0,1.2 -2.92,1.2 -2,0 -3.6,-1.2 -1.56,-1.24 -1.56,-4.32 z"
           style="font-family:Asap;-inkscape-font-specification:Asap;fill:#ffffff"
           id="path156" />
        <path
           d="m 359.3629,307.51608 q -1.6,0 -1.6,-0.88 v -2.36 q 0,-0.88 1.6,-0.88 h 0.48 q 1.6,0 1.6,0.88 v 2.36 q 0,0.88 -1.6,0.88 z m -1.44,25.16 v -19.32 q 0,-0.88 1.6,-0.88 h 0.16 q 1.6,0 1.6,0.88 v 19.32 q 0,0.88 -1.6,0.88 h -0.16 q -1.6,0 -1.6,-0.88 z"
           style="font-family:Asap;-inkscape-font-specification:Asap;fill:#ffffff"
           id="path158" />
        <path
           d="m 368.32287,332.67608 v -14.04 q 0,-2.44 -0.2,-3.48 -0.28,-1.44 -0.28,-1.56 0,-0.48 0.76,-0.68 0.76,-0.24 1.16,-0.24 0.44,0 0.6,0.08 0.16,0.08 0.28,0.28 0.16,0.16 0.24,0.36 0.08,0.16 0.16,0.48 0.08,0.28 0.12,0.48 0.08,0.16 0.12,0.52 0.08,0.32 0.12,0.44 2.68,-3 5.96,-3 3.32,0 5.04,1.72 1.76,1.72 1.76,4.76 v 13.88 q 0,0.88 -1.6,0.88 h -0.16 q -1.6,0 -1.6,-0.88 v -13.56 q 0,-1.84 -1.08,-2.84 -1.04,-1.04 -3,-1.04 -2.88,0 -5.04,2.8 v 14.64 q 0,0.88 -1.6,0.88 h -0.16 q -1.6,0 -1.6,-0.88 z"
           style="font-family:Asap;-inkscape-font-specification:Asap;fill:#ffffff"
           id="path160" />
        <path
           d="m 391.48284,332.67608 v -17.24 h -1.6 q -0.8,0 -0.8,-1.2 v -0.48 q 0,-1.2 0.8,-1.2 h 1.6 v -3.8 q 0,-3.44 1.84,-4.56 1.56,-0.96 3.32,-0.96 2.92,0 2.92,1.2 0,0.4 -0.24,1.16 -0.24,0.72 -0.6,0.72 -0.08,0 -0.56,-0.08 -0.48,-0.12 -1.36,-0.12 -0.84,0 -1.4,0.6 -0.56,0.56 -0.56,2.36 v 3.48 h 3.48 q 0.8,0 0.8,1.2 v 0.48 q 0,1.2 -0.8,1.2 h -3.48 v 17.24 q 0,0.88 -1.6,0.88 h -0.16 q -1.6,0 -1.6,-0.88 z"
           style="font-family:Asap;-inkscape-font-specification:Asap;fill:#ffffff"
           id="path162" />
        <path
           d="m 411.60281,333.71608 q -4.48,0 -6.88,-2.72 -2.36,-2.72 -2.36,-7.88 0,-5.2 2.4,-8 2.4,-2.8 6.84,-2.8 4.44,0 6.76,2.8 2.36,2.76 2.36,8 0,5.2 -2.32,7.92 -2.28,2.68 -6.8,2.68 z m -4.36,-4.76 q 1.36,1.88 4.28,1.88 2.92,0 4.32,-1.88 1.4,-1.92 1.4,-5.92 0,-4 -1.4,-5.92 -1.4,-1.92 -4.32,-1.92 -2.92,0 -4.28,1.92 -1.36,1.88 -1.36,5.92 0,4 1.36,5.92 z"
           style="font-family:Asap;-inkscape-font-specification:Asap;fill:#ffffff"
           id="path164" />
        <path
           d="m 425.00273,322.91608 q 0,-3 0.8,-5.16 0.84,-2.16 2.24,-3.32 2.64,-2.12 6.44,-2.12 2.32,0 4.16,0.56 1.84,0.56 1.84,1.28 0,0.52 -0.48,1.36 -0.44,0.8 -0.8,0.8 -0.04,0 -0.16,-0.04 -0.08,-0.04 -0.16,-0.04 -0.04,-0.04 -0.12,-0.08 -2.16,-0.96 -4.36,-0.96 -5.8,0 -5.8,7.64 0,4.24 1.4,6.12 1.44,1.88 4.8,1.88 2.44,0 4.52,-1.04 0.12,-0.04 0.24,-0.08 0.16,-0.08 0.2,-0.08 0.4,0 0.88,0.8 0.48,0.76 0.48,1.24 0,0.72 -1.88,1.4 -1.88,0.64 -4.4,0.64 -4.96,0 -7.4,-2.56 -2.44,-2.56 -2.44,-8.24 z"
           style="font-family:Asap;-inkscape-font-specification:Asap;fill:#ffffff"
           id="path166" />
        <path
           d="m 447.40269,307.51608 q -1.6,0 -1.6,-0.88 v -2.36 q 0,-0.88 1.6,-0.88 h 0.48 q 1.6,0 1.6,0.88 v 2.36 q 0,0.88 -1.6,0.88 z m -1.44,25.16 v -19.32 q 0,-0.88 1.6,-0.88 h 0.16 q 1.6,0 1.6,0.88 v 19.32 q 0,0.88 -1.6,0.88 h -0.16 q -1.6,0 -1.6,-0.88 z"
           style="font-family:Asap;-inkscape-font-specification:Asap;fill:#ffffff"
           id="path168" />
        <path
           d="m 457.20267,328.19608 v -12.76 h -2 q -0.8,0 -0.8,-1.2 v -0.48 q 0,-1.2 0.8,-1.2 h 2 l 0.48,-4.2 q 0.08,-0.88 1.28,-0.88 h 0.4 q 1.2,0 1.2,0.88 v 4.2 h 3.36 q 0.8,0 0.8,1.2 v 0.48 q 0,1.2 -0.8,1.2 h -3.36 v 12.44 q 0,2.96 2.16,2.96 0.68,0 1.16,-0.08 0.48,-0.12 0.56,-0.12 0.36,0 0.6,0.76 0.24,0.72 0.24,1.12 0,1.2 -2.92,1.2 -2,0 -3.6,-1.2 -1.56,-1.24 -1.56,-4.32 z"
           style="font-family:Asap;-inkscape-font-specification:Asap;fill:#ffffff"
           id="path170" />
        <path
           d="m 478.04263,333.71608 q -4.48,0 -6.88,-2.72 -2.36,-2.72 -2.36,-7.88 0,-5.2 2.4,-8 2.4,-2.8 6.84,-2.8 4.44,0 6.76,2.8 2.36,2.76 2.36,8 0,5.2 -2.32,7.92 -2.28,2.68 -6.8,2.68 z m -4.36,-4.76 q 1.36,1.88 4.28,1.88 2.92,0 4.32,-1.88 1.4,-1.92 1.4,-5.92 0,-4 -1.4,-5.92 -1.4,-1.92 -4.32,-1.92 -2.92,0 -4.28,1.92 -1.36,1.88 -1.36,5.92 0,4 1.36,5.92 z"
           style="font-family:Asap;-inkscape-font-specification:Asap;fill:#ffffff"
           id="path172" />
        <path
           d="m 490.76255,331.31608 q 0,-0.4 0.48,-1.2 0.52,-0.8 0.92,-0.8 0.04,0 0.64,0.4 0.6,0.36 1.72,0.76 1.12,0.36 2.68,0.36 1.6,0 2.6,-0.88 1.04,-0.92 1.04,-2.44 0,-1.56 -0.92,-2.4 -0.88,-0.88 -3.56,-1.64 -2.68,-0.76 -3.88,-1.92 -1.2,-1.2 -1.2,-3.6 0,-2.4 1.84,-4 1.84,-1.64 4.8,-1.64 2.04,0 3.64,0.52 1.6,0.52 1.6,1.16 0,0.52 -0.48,1.36 -0.44,0.8 -0.8,0.8 -0.04,0 -0.52,-0.24 -1.36,-0.72 -3.08,-0.72 -1.68,0 -2.64,0.72 -0.92,0.68 -0.92,1.8 0,1.12 0.68,1.76 0.72,0.64 2.4,1.16 3.76,1.16 5.08,2.56 1.36,1.36 1.36,4.16 0,2.76 -2,4.56 -1.96,1.8 -4.72,1.8 -2.76,0 -4.76,-0.8 -2,-0.84 -2,-1.6 z"
           style="font-family:Asap;-inkscape-font-specification:Asap;fill:#ffffff"
           id="path174" />
        <path
           d="m 79.803516,390.9258 q -2.88,3 -6.4,3 -3.52,0 -5.64,-2.96 -2.08,-2.96 -2.08,-7.6 v -0.36 q 0,-4.92 2.24,-7.68 2.24,-2.8 5.6,-2.8 3.36,0 6,2.04 v -10.08 q 0,-0.88 1.6,-0.88 h 0.16 q 1.6,0 1.6,0.88 v 23.28 q 0,2.4 0.2,3.48 0.28,1.48 0.28,1.56 0,0.48 -0.76,0.72 -0.76,0.2 -1.2,0.2 -0.4,0 -0.56,-0.08 -0.16,-0.08 -0.32,-0.28 -0.12,-0.2 -0.2,-0.36 -0.08,-0.2 -0.16,-0.52 -0.08,-0.32 -0.16,-0.48 -0.04,-0.2 -0.12,-0.56 -0.04,-0.4 -0.08,-0.52 z m -10.6,-8 q 0,8.08 5.2,8.08 2.6,0 5.12,-2.76 v -10.96 q -2.16,-1.8 -4.84,-1.8 h -0.24 q -2.56,0.04 -3.92,1.96 -1.32,1.92 -1.32,5.48 z"
           style="font-family:Asap;-inkscape-font-specification:Asap;fill:#ffffff"
           id="path176" />
        <path
           d="m 91.283461,367.7258 q -1.6,0 -1.6,-0.88 v -2.36 q 0,-0.88 1.6,-0.88 h 0.48 q 1.6,0 1.6,0.88 v 2.36 q 0,0.88 -1.6,0.88 z m -1.44,25.16 v -19.32 q 0,-0.88 1.6,-0.88 h 0.16 q 1.6,0 1.6,0.88 v 19.32 q 0,0.88 -1.6,0.88 h -0.16 q -1.6,0 -1.6,-0.88 z"
           style="font-family:Asap;-inkscape-font-specification:Asap;fill:#ffffff"
           id="path178" />
        <path
           d="m 98.203436,391.5258 q 0,-0.4 0.48,-1.2 0.52,-0.8 0.92,-0.8 0.04,0 0.640004,0.4 0.6,0.36 1.72,0.76 1.12,0.36 2.68,0.36 1.6,0 2.6,-0.88 1.04,-0.92 1.04,-2.44 0,-1.56 -0.92,-2.4 -0.88,-0.88 -3.56,-1.64 -2.68,-0.76 -3.880004,-1.92 -1.2,-1.2 -1.2,-3.6 0,-2.4 1.840004,-4 1.84,-1.64 4.8,-1.64 2.04,0 3.64,0.52 1.6,0.52 1.6,1.16 0,0.52 -0.48,1.36 -0.44,0.8 -0.8,0.8 -0.04,0 -0.52,-0.24 -1.36,-0.72 -3.08,-0.72 -1.68,0 -2.64,0.72 -0.92,0.68 -0.92,1.8 0,1.12 0.68,1.76 0.72,0.64 2.4,1.16 3.76,1.16 5.08,2.56 1.36,1.36 1.36,4.16 0,2.76 -2,4.56 -1.96,1.8 -4.72,1.8 -2.76,0 -4.76,-0.8 -2.000004,-0.84 -2.000004,-1.6 z"
           style="font-family:Asap;-inkscape-font-specification:Asap;fill:#ffffff"
           id="path180" />
        <path
           d="m 116.72336,392.8858 v -14.04 q 0,-2.44 -0.2,-3.48 -0.28,-1.44 -0.28,-1.56 0,-0.48 0.76,-0.68 0.76,-0.24 1.16,-0.24 0.44,0 0.6,0.08 0.16,0.08 0.28,0.28 0.16,0.16 0.24,0.36 0.08,0.16 0.16,0.48 0.08,0.28 0.12,0.48 0.08,0.16 0.12,0.52 0.08,0.32 0.12,0.44 2.6,-3 6.08,-3 4.36,0 5.72,3.32 2.8,-3.32 6.36,-3.32 2.28,0 4.08,1.16 1,0.68 1.6,2.04 0.6,1.36 0.6,3.28 v 13.88 q 0,0.88 -1.6,0.88 h -0.16 q -1.6,0 -1.6,-0.88 v -13.56 q 0,-1.8 -1,-2.84 -0.96,-1.04 -2.84,-1.04 -2.48,0 -4.92,2.76 0.04,0.28 0.04,0.84 v 13.84 q 0,0.88 -1.6,0.88 h -0.16 q -1.6,0 -1.6,-0.88 v -13.56 q 0,-1.8 -1,-2.84 -0.96,-1.04 -2.56,-1.04 -1.56,0 -2.8,0.68 -1.2,0.68 -1.76,1.4 l -0.6,0.68 v 14.68 q 0,0.88 -1.6,0.88 h -0.16 q -1.6,0 -1.6,-0.88 z"
           style="font-family:Asap;-inkscape-font-specification:Asap;fill:#ffffff"
           id="path182" />
        <path
           d="m 152.32335,367.7258 q -1.6,0 -1.6,-0.88 v -2.36 q 0,-0.88 1.6,-0.88 h 0.48 q 1.6,0 1.6,0.88 v 2.36 q 0,0.88 -1.6,0.88 z m -1.44,25.16 v -19.32 q 0,-0.88 1.6,-0.88 h 0.16 q 1.6,0 1.6,0.88 v 19.32 q 0,0.88 -1.6,0.88 h -0.16 q -1.6,0 -1.6,-0.88 z"
           style="font-family:Asap;-inkscape-font-specification:Asap;fill:#ffffff"
           id="path184" />
        <path
           d="m 161.28332,392.8858 v -14.04 q 0,-2.44 -0.2,-3.48 -0.28,-1.44 -0.28,-1.56 0,-0.48 0.76,-0.68 0.76,-0.24 1.16,-0.24 0.44,0 0.6,0.08 0.16,0.08 0.28,0.28 0.16,0.16 0.24,0.36 0.08,0.16 0.16,0.48 0.08,0.28 0.12,0.48 0.08,0.16 0.12,0.52 0.08,0.32 0.12,0.44 2.68,-3 5.96,-3 3.32,0 5.04,1.72 1.76,1.72 1.76,4.76 v 13.88 q 0,0.88 -1.6,0.88 h -0.16 q -1.6,0 -1.6,-0.88 v -13.56 q 0,-1.84 -1.08,-2.84 -1.04,-1.04 -3,-1.04 -2.88,0 -5.04,2.8 v 14.64 q 0,0.88 -1.6,0.88 h -0.16 q -1.6,0 -1.6,-0.88 z"
           style="font-family:Asap;-inkscape-font-specification:Asap;fill:#ffffff"
           id="path186" />
        <path
           d="m 183.12329,387.4458 v -13.88 q 0,-0.88 1.6,-0.88 h 0.16 q 1.6,0 1.6,0.88 v 13.56 q 0,1.84 1.04,2.88 1.08,1 3.04,1 2.88,0 5.04,-2.8 v -14.64 q 0,-0.88 1.6,-0.88 h 0.16 q 1.6,0 1.6,0.88 v 14.2 q 0,2.4 0.2,3.48 0.28,1.48 0.28,1.56 0,0.48 -0.76,0.72 -0.76,0.2 -1.2,0.2 -0.4,0 -0.56,-0.08 -0.16,-0.08 -0.32,-0.28 -0.12,-0.2 -0.2,-0.36 -0.08,-0.2 -0.16,-0.52 -0.08,-0.32 -0.16,-0.48 -0.04,-0.2 -0.12,-0.56 -0.04,-0.4 -0.08,-0.52 -2.68,3 -6,3 -3.28,0 -5.04,-1.72 -1.72,-1.72 -1.72,-4.76 z"
           style="font-family:Asap;-inkscape-font-specification:Asap;fill:#ffffff"
           id="path188" />
        <path
           d="m 203.12326,373.3658 q 0,-0.68 1.72,-0.68 h 0.32 q 1.32,0 1.6,0.64 l 5.44,14.44 5.32,-14.44 q 0.2,-0.64 1.76,-0.64 1.6,0 1.6,0.68 0,0.2 -0.12,0.56 l -10.28,27.24 q -0.32,0.84 -1.88,0.84 h -0.6 q -1.32,0 -1.32,-0.64 0,-0.12 3.56,-8.8 l -7,-18.68 q -0.12,-0.36 -0.12,-0.52 z"
           style="font-family:Asap;-inkscape-font-specification:Asap;fill:#ffffff"
           id="path190" />
        <path
           d="m 233.64322,393.9258 q -5,0 -7.4,-2.6 -2.4,-2.6 -2.4,-7.92 0,-5.36 2.36,-8.12 2.36,-2.76 6.72,-2.76 8.48,0 8.48,10.44 0,0.36 -0.48,1 -0.48,0.64 -0.84,0.64 h -12.64 q 0.24,3.32 1.72,4.88 1.48,1.56 4.44,1.56 2.72,0 5,-1.28 0.76,-0.4 0.84,-0.4 0.4,0 0.88,0.8 0.52,0.8 0.52,1.2 0,0.8 -2.2,1.68 -2.16,0.88 -5,0.88 z m 4.2,-12.2 q 0,-6.32 -4.8,-6.32 -5.16,0 -5.6,6.32 z"
           style="font-family:Asap;-inkscape-font-specification:Asap;fill:#ffffff"
           id="path192" />
        <path
           d="m 246.6432,392.8858 v -14.04 q 0,-2.44 -0.2,-3.48 -0.28,-1.44 -0.28,-1.56 0,-0.48 0.76,-0.68 0.76,-0.24 1.16,-0.24 0.44,0 0.6,0.08 0.16,0.08 0.28,0.28 0.16,0.16 0.24,0.36 0.08,0.16 0.16,0.48 0.08,0.28 0.12,0.48 0.08,0.16 0.12,0.52 0.08,0.32 0.12,0.44 2.68,-3 5.96,-3 3.32,0 5.04,1.72 1.76,1.72 1.76,4.76 v 13.88 q 0,0.88 -1.6,0.88 h -0.16 q -1.6,0 -1.6,-0.88 v -13.56 q 0,-1.84 -1.08,-2.84 -1.04,-1.04 -3,-1.04 -2.88,0 -5.04,2.8 v 14.64 q 0,0.88 -1.6,0.88 h -0.16 q -1.6,0 -1.6,-0.88 z"
           style="font-family:Asap;-inkscape-font-specification:Asap;fill:#ffffff"
           id="path194" />
        <path
           d="m 67.483516,452.69552 v -25.6 q 0,-1.2 1.2,-1.2 h 13.96 q 0.8,0 0.8,1.2 v 0.64 q 0,1.2 -0.8,1.2 h -11.64 v 9.12 h 10.44 q 0.8,0 0.8,1.2 v 0.64 q 0,1.2 -0.8,1.2 h -10.44 v 9.76 h 11.68 q 0.8,0 0.8,1.2 v 0.64 q 0,1.2 -0.8,1.2 h -14 q -1.2,0 -1.2,-1.2 z"
           style="font-family:Asap;-inkscape-font-specification:Asap;fill:#ffffff"
           id="path196" />
        <path
           d="m 88.723497,448.61552 v -23.92 q 0,-0.88 1.6,-0.88 h 0.16 q 1.6,0 1.6,0.88 v 23.6 q 0,2.96 2.16,2.96 0.68,0 1.16,-0.08 0.48,-0.12 0.56,-0.12 0.36,0 0.6,0.76 0.24,0.72 0.24,1.12 0,1.2 -2.92,1.2 -2,0 -3.6,-1.2 -1.56,-1.24 -1.56,-4.32 z"
           style="font-family:Asap;-inkscape-font-specification:Asap;fill:#ffffff"
           id="path198" />
        <path
           d="m 108.32345,451.73552 q 0,-0.4 0.48,-1.2 0.52,-0.8 0.92,-0.8 0.04,0 0.64,0.4 0.6,0.36 1.72,0.76 1.12,0.36 2.68,0.36 1.6,0 2.6,-0.88 1.04,-0.92 1.04,-2.44 0,-1.56 -0.92,-2.4 -0.88,-0.88 -3.56,-1.64 -2.68,-0.76 -3.88,-1.92 -1.2,-1.2 -1.2,-3.6 0,-2.4 1.84,-4 1.84,-1.64 4.8,-1.64 2.04,0 3.64,0.52 1.6,0.52 1.6,1.16 0,0.52 -0.48,1.36 -0.44,0.8 -0.8,0.8 -0.04,0 -0.52,-0.24 -1.36,-0.72 -3.08,-0.72 -1.68,0 -2.64,0.72 -0.92,0.68 -0.92,1.8 0,1.12 0.68,1.76 0.72,0.64 2.4,1.16 3.76,1.16 5.08,2.56 1.36,1.36 1.36,4.16 0,2.76 -2,4.56 -1.96,1.8 -4.72,1.8 -2.76,0 -4.76,-0.8 -2,-0.84 -2,-1.6 z"
           style="font-family:Asap;-inkscape-font-specification:Asap;fill:#ffffff"
           id="path200" />
        <path
           d="m 128.52337,427.93552 q -1.6,0 -1.6,-0.88 v -2.36 q 0,-0.88 1.6,-0.88 h 0.48 q 1.6,0 1.6,0.88 v 2.36 q 0,0.88 -1.6,0.88 z m -1.44,25.16 v -19.32 q 0,-0.88 1.6,-0.88 h 0.16 q 1.6,0 1.6,0.88 v 19.32 q 0,0.88 -1.6,0.88 h -0.16 q -1.6,0 -1.6,-0.88 z"
           style="font-family:Asap;-inkscape-font-specification:Asap;fill:#ffffff"
           id="path202" />
        <path
           d="m 135.44335,451.73552 q 0,-0.4 0.48,-1.2 0.52,-0.8 0.92,-0.8 0.04,0 0.64,0.4 0.6,0.36 1.72,0.76 1.12,0.36 2.68,0.36 1.6,0 2.6,-0.88 1.04,-0.92 1.04,-2.44 0,-1.56 -0.92,-2.4 -0.88,-0.88 -3.56,-1.64 -2.68,-0.76 -3.88,-1.92 -1.2,-1.2 -1.2,-3.6 0,-2.4 1.84,-4 1.84,-1.64 4.8,-1.64 2.04,0 3.64,0.52 1.6,0.52 1.6,1.16 0,0.52 -0.48,1.36 -0.44,0.8 -0.8,0.8 -0.04,0 -0.52,-0.24 -1.36,-0.72 -3.08,-0.72 -1.68,0 -2.64,0.72 -0.92,0.68 -0.92,1.8 0,1.12 0.68,1.76 0.72,0.64 2.4,1.16 3.76,1.16 5.08,2.56 1.36,1.36 1.36,4.16 0,2.76 -2,4.56 -1.96,1.8 -4.72,1.8 -2.76,0 -4.76,-0.8 -2,-0.84 -2,-1.6 z"
           style="font-family:Asap;-inkscape-font-specification:Asap;fill:#ffffff"
           id="path204" />
        <path
           d="m 154.84328,448.61552 v -12.76 h -2 q -0.8,0 -0.8,-1.2 v -0.48 q 0,-1.2 0.8,-1.2 h 2 l 0.48,-4.2 q 0.08,-0.88 1.28,-0.88 h 0.4 q 1.2,0 1.2,0.88 v 4.2 h 3.36 q 0.8,0 0.8,1.2 v 0.48 q 0,1.2 -0.8,1.2 h -3.36 v 12.44 q 0,2.96 2.16,2.96 0.68,0 1.16,-0.08 0.48,-0.12 0.56,-0.12 0.36,0 0.6,0.76 0.24,0.72 0.24,1.12 0,1.2 -2.92,1.2 -2,0 -3.6,-1.2 -1.56,-1.24 -1.56,-4.32 z"
           style="font-family:Asap;-inkscape-font-specification:Asap;fill:#ffffff"
           id="path206" />
        <path
           d="m 176.24324,454.13552 q -5,0 -7.4,-2.6 -2.4,-2.6 -2.4,-7.92 0,-5.36 2.36,-8.12 2.36,-2.76 6.72,-2.76 8.48,0 8.48,10.44 0,0.36 -0.48,1 -0.48,0.64 -0.84,0.64 h -12.64 q 0.24,3.32 1.72,4.88 1.48,1.56 4.44,1.56 2.72,0 5,-1.28 0.76,-0.4 0.84,-0.4 0.4,0 0.88,0.8 0.52,0.8 0.52,1.2 0,0.8 -2.2,1.68 -2.16,0.88 -5,0.88 z m 4.2,-12.2 q 0,-6.32 -4.8,-6.32 -5.16,0 -5.6,6.32 z"
           style="font-family:Asap;-inkscape-font-specification:Asap;fill:#ffffff"
           id="path208" />
        <path
           d="m 189.20322,453.09552 v -14.04 q 0,-2.44 -0.2,-3.48 -0.28,-1.44 -0.28,-1.56 0,-0.48 0.76,-0.68 0.76,-0.24 1.16,-0.24 0.44,0 0.6,0.08 0.16,0.08 0.28,0.28 0.16,0.16 0.24,0.36 0.08,0.16 0.16,0.48 0.08,0.28 0.12,0.48 0.08,0.16 0.12,0.52 0.08,0.32 0.12,0.44 2.6,-3 6.08,-3 4.36,0 5.72,3.32 2.8,-3.32 6.36,-3.32 2.28,0 4.08,1.16 1,0.68 1.6,2.04 0.6,1.36 0.6,3.28 v 13.88 q 0,0.88 -1.6,0.88 h -0.16 q -1.6,0 -1.6,-0.88 v -13.56 q 0,-1.8 -1,-2.84 -0.96,-1.04 -2.84,-1.04 -2.48,0 -4.92,2.76 0.04,0.28 0.04,0.84 v 13.84 q 0,0.88 -1.6,0.88 h -0.16 q -1.6,0 -1.6,-0.88 v -13.56 q 0,-1.8 -1,-2.84 -0.96,-1.04 -2.56,-1.04 -1.56,0 -2.8,0.68 -1.2,0.68 -1.76,1.4 l -0.6,0.68 v 14.68 q 0,0.88 -1.6,0.88 h -0.16 q -1.6,0 -1.6,-0.88 z"
           style="font-family:Asap;-inkscape-font-specification:Asap;fill:#ffffff"
           id="path210" />
        <path
           d="m 234.96321,440.85552 v -1.88 q 0,-3.36 -4.4,-3.36 -2.88,0 -5.32,1.24 -0.84,0.44 -0.92,0.44 -0.4,0 -0.92,-0.8 -0.48,-0.8 -0.48,-1.2 0,-0.84 2.32,-1.68 2.36,-0.88 5.64,-0.88 3.28,0 5.36,1.68 2.08,1.64 2.08,4.6 v 8.96 q 0,2.4 0.2,3.48 0.28,1.48 0.28,1.56 0,0.48 -0.76,0.72 -0.76,0.2 -1.2,0.2 -0.4,0 -0.56,-0.08 -0.16,-0.08 -0.32,-0.28 -0.12,-0.2 -0.2,-0.36 -0.08,-0.2 -0.16,-0.52 -0.08,-0.32 -0.16,-0.48 -0.04,-0.2 -0.12,-0.56 -0.04,-0.4 -0.08,-0.52 -2.72,3 -6.72,3 -3.08,0 -4.96,-1.52 -1.88,-1.52 -1.88,-4.68 0,-3.16 2.16,-4.72 2.2,-1.6 4.92,-1.92 2.72,-0.36 6.2,-0.44 z m -9.68,7.08 q 0,3.28 3.4,3.28 1.96,0 3.36,-0.72 1.44,-0.72 2.92,-2.04 v -4.72 q -5,0 -6.44,0.56 -0.76,0.28 -1.6,0.72 -1.64,0.84 -1.64,2.92 z"
           style="font-family:Asap;-inkscape-font-specification:Asap;fill:#ffffff"
           id="path212" />
        <path
           d="m 256.20312,427.93552 q -1.6,0 -1.6,-0.88 v -2.36 q 0,-0.88 1.6,-0.88 h 0.48 q 1.6,0 1.6,0.88 v 2.36 q 0,0.88 -1.6,0.88 z m -1.44,25.16 v -19.32 q 0,-0.88 1.6,-0.88 h 0.16 q 1.6,0 1.6,0.88 v 19.32 q 0,0.88 -1.6,0.88 h -0.16 q -1.6,0 -1.6,-0.88 z"
           style="font-family:Asap;-inkscape-font-specification:Asap;fill:#ffffff"
           id="path214" />
        <path
           d="m 265.1631,453.09552 v -14.04 q 0,-2.44 -0.2,-3.48 -0.28,-1.44 -0.28,-1.56 0,-0.48 0.76,-0.68 0.76,-0.24 1.16,-0.24 0.44,0 0.6,0.08 0.16,0.08 0.28,0.28 0.16,0.16 0.24,0.36 0.08,0.16 0.16,0.48 0.08,0.28 0.12,0.48 0.08,0.16 0.12,0.52 0.08,0.32 0.12,0.44 2.68,-3 5.96,-3 3.32,0 5.04,1.72 1.76,1.72 1.76,4.76 v 13.88 q 0,0.88 -1.6,0.88 h -0.16 q -1.6,0 -1.6,-0.88 v -13.56 q 0,-1.84 -1.08,-2.84 -1.04,-1.04 -3,-1.04 -2.88,0 -5.04,2.8 v 14.64 q 0,0.88 -1.6,0.88 h -0.16 q -1.6,0 -1.6,-0.88 z"
           style="font-family:Asap;-inkscape-font-specification:Asap;fill:#ffffff"
           id="path216" />
        <path
           d="m 287.40307,453.09552 v -14.04 q 0,-2.44 -0.2,-3.48 -0.28,-1.44 -0.28,-1.56 0,-0.48 0.76,-0.68 0.76,-0.24 1.16,-0.24 0.44,0 0.6,0.08 0.16,0.08 0.28,0.28 0.16,0.16 0.24,0.36 0.08,0.16 0.16,0.48 0.08,0.28 0.12,0.48 0.08,0.16 0.12,0.52 0.08,0.32 0.12,0.44 2.6,-3 6.08,-3 4.36,0 5.72,3.32 2.8,-3.32 6.36,-3.32 2.28,0 4.08,1.16 1,0.68 1.6,2.04 0.6,1.36 0.6,3.28 v 13.88 q 0,0.88 -1.6,0.88 h -0.16 q -1.6,0 -1.6,-0.88 v -13.56 q 0,-1.8 -1,-2.84 -0.96,-1.04 -2.84,-1.04 -2.48,0 -4.92,2.76 0.04,0.28 0.04,0.84 v 13.84 q 0,0.88 -1.6,0.88 h -0.16 q -1.6,0 -1.6,-0.88 v -13.56 q 0,-1.8 -1,-2.84 -0.96,-1.04 -2.56,-1.04 -1.56,0 -2.8,0.68 -1.2,0.68 -1.76,1.4 l -0.6,0.68 v 14.68 q 0,0.88 -1.6,0.88 h -0.16 q -1.6,0 -1.6,-0.88 z"
           style="font-family:Asap;-inkscape-font-specification:Asap;fill:#ffffff"
           id="path218" />
        <path
           d="m 320.92305,447.65552 v -13.88 q 0,-0.88 1.6,-0.88 h 0.16 q 1.6,0 1.6,0.88 v 13.56 q 0,1.84 1.04,2.88 1.08,1 3.04,1 2.88,0 5.04,-2.8 v -14.64 q 0,-0.88 1.6,-0.88 h 0.16 q 1.6,0 1.6,0.88 v 14.2 q 0,2.4 0.2,3.48 0.28,1.48 0.28,1.56 0,0.48 -0.76,0.72 -0.76,0.2 -1.2,0.2 -0.4,0 -0.56,-0.08 -0.16,-0.08 -0.32,-0.28 -0.12,-0.2 -0.2,-0.36 -0.08,-0.2 -0.16,-0.52 -0.08,-0.32 -0.16,-0.48 -0.04,-0.2 -0.12,-0.56 -0.04,-0.4 -0.08,-0.52 -2.68,3 -6,3 -3.28,0 -5.04,-1.72 -1.72,-1.72 -1.72,-4.76 z"
           style="font-family:Asap;-inkscape-font-specification:Asap;fill:#ffffff"
           id="path220" />
        <path
           d="m 343.643,453.09552 v -14.04 q 0,-2.44 -0.2,-3.48 -0.28,-1.44 -0.28,-1.56 0,-0.48 0.76,-0.68 0.76,-0.24 1.16,-0.24 0.44,0 0.6,0.08 0.16,0.08 0.28,0.28 0.16,0.16 0.24,0.36 0.08,0.16 0.16,0.48 0.08,0.28 0.12,0.48 0.08,0.16 0.12,0.52 0.08,0.32 0.12,0.44 2.68,-3 5.96,-3 3.32,0 5.04,1.72 1.76,1.72 1.76,4.76 v 13.88 q 0,0.88 -1.6,0.88 h -0.16 q -1.6,0 -1.6,-0.88 v -13.56 q 0,-1.84 -1.08,-2.84 -1.04,-1.04 -3,-1.04 -2.88,0 -5.04,2.8 v 14.64 q 0,0.88 -1.6,0.88 h -0.16 q -1.6,0 -1.6,-0.88 z"
           style="font-family:Asap;-inkscape-font-specification:Asap;fill:#ffffff"
           id="path222" />
        <path
           d="m 367.56297,427.93552 q -1.6,0 -1.6,-0.88 v -2.36 q 0,-0.88 1.6,-0.88 h 0.48 q 1.6,0 1.6,0.88 v 2.36 q 0,0.88 -1.6,0.88 z m -1.44,25.16 v -19.32 q 0,-0.88 1.6,-0.88 h 0.16 q 1.6,0 1.6,0.88 v 19.32 q 0,0.88 -1.6,0.88 h -0.16 q -1.6,0 -1.6,-0.88 z"
           style="font-family:Asap;-inkscape-font-specification:Asap;fill:#ffffff"
           id="path224" />
        <path
           d="m 377.36295,448.61552 v -12.76 h -2 q -0.8,0 -0.8,-1.2 v -0.48 q 0,-1.2 0.8,-1.2 h 2 l 0.48,-4.2 q 0.08,-0.88 1.28,-0.88 h 0.4 q 1.2,0 1.2,0.88 v 4.2 h 3.36 q 0.8,0 0.8,1.2 v 0.48 q 0,1.2 -0.8,1.2 h -3.36 v 12.44 q 0,2.96 2.16,2.96 0.68,0 1.16,-0.08 0.48,-0.12 0.56,-0.12 0.36,0 0.6,0.76 0.24,0.72 0.24,1.12 0,1.2 -2.92,1.2 -2,0 -3.6,-1.2 -1.56,-1.24 -1.56,-4.32 z"
           style="font-family:Asap;-inkscape-font-specification:Asap;fill:#ffffff"
           id="path226" />
        <path
           d="m 402.00294,440.85552 v -1.88 q 0,-3.36 -4.4,-3.36 -2.88,0 -5.32,1.24 -0.84,0.44 -0.92,0.44 -0.4,0 -0.92,-0.8 -0.48,-0.8 -0.48,-1.2 0,-0.84 2.32,-1.68 2.36,-0.88 5.64,-0.88 3.28,0 5.36,1.68 2.08,1.64 2.08,4.6 v 8.96 q 0,2.4 0.2,3.48 0.28,1.48 0.28,1.56 0,0.48 -0.76,0.72 -0.76,0.2 -1.2,0.2 -0.4,0 -0.56,-0.08 -0.16,-0.08 -0.32,-0.28 -0.12,-0.2 -0.2,-0.36 -0.08,-0.2 -0.16,-0.52 -0.08,-0.32 -0.16,-0.48 -0.04,-0.2 -0.12,-0.56 -0.04,-0.4 -0.08,-0.52 -2.72,3 -6.72,3 -3.08,0 -4.96,-1.52 -1.88,-1.52 -1.88,-4.68 0,-3.16 2.16,-4.72 2.2,-1.6 4.92,-1.92 2.72,-0.36 6.2,-0.44 z m -9.68,7.08 q 0,3.28 3.4,3.28 1.96,0 3.36,-0.72 1.44,-0.72 2.92,-2.04 v -4.72 q -5,0 -6.44,0.56 -0.76,0.28 -1.6,0.72 -1.64,0.84 -1.64,2.92 z"
           style="font-family:Asap;-inkscape-font-specification:Asap;fill:#ffffff"
           id="path228" />
        <path
           d="m 412.16287,453.09552 v -14.04 q 0,-2.44 -0.2,-3.48 -0.28,-1.44 -0.28,-1.56 0,-0.48 0.76,-0.68 0.76,-0.24 1.16,-0.24 0.44,0 0.6,0.08 0.16,0.08 0.28,0.28 0.16,0.16 0.24,0.36 0.08,0.16 0.16,0.48 0.08,0.28 0.12,0.48 0.08,0.16 0.12,0.52 0.08,0.32 0.12,0.44 2.12,-3 4.64,-3 1.12,0 1.72,0.44 0.6,0.44 0.6,1.12 0,0.68 -0.24,1.44 -0.24,0.72 -0.56,0.72 -0.16,0 -0.8,-0.2 -0.6,-0.24 -1.48,-0.24 -0.84,0 -1.76,0.64 -0.92,0.6 -1.36,1.2 l -0.48,0.6 v 14.64 q 0,0.88 -1.6,0.88 h -0.16 q -1.6,0 -1.6,-0.88 z"
           style="font-family:Asap;-inkscape-font-specification:Asap;fill:#ffffff"
           id="path230" />
        <path
           d="m 428.28282,427.93552 q -1.6,0 -1.6,-0.88 v -2.36 q 0,-0.88 1.6,-0.88 h 0.48 q 1.6,0 1.6,0.88 v 2.36 q 0,0.88 -1.6,0.88 z m -1.44,25.16 v -19.32 q 0,-0.88 1.6,-0.88 h 0.16 q 1.6,0 1.6,0.88 v 19.32 q 0,0.88 -1.6,0.88 h -0.16 q -1.6,0 -1.6,-0.88 z"
           style="font-family:Asap;-inkscape-font-specification:Asap;fill:#ffffff"
           id="path232" />
        <path
           d="m 445.2428,454.13552 q -4.48,0 -6.88,-2.72 -2.36,-2.72 -2.36,-7.88 0,-5.2 2.4,-8 2.4,-2.8 6.84,-2.8 4.44,0 6.76,2.8 2.36,2.76 2.36,8 0,5.2 -2.32,7.92 -2.28,2.68 -6.8,2.68 z m -4.36,-4.76 q 1.36,1.88 4.28,1.88 2.92,0 4.32,-1.88 1.4,-1.92 1.4,-5.92 0,-4 -1.4,-5.92 -1.4,-1.92 -4.32,-1.92 -2.92,0 -4.28,1.92 -1.36,1.88 -1.36,5.92 0,4 1.36,5.92 z"
           style="font-family:Asap;-inkscape-font-specification:Asap;fill:#ffffff"
           id="path234" />
        <path
           d="m 467.56272,451.73552 q 0,-0.4 0.48,-1.2 0.52,-0.8 0.92,-0.8 0.04,0 0.64,0.4 0.6,0.36 1.72,0.76 1.12,0.36 2.68,0.36 1.6,0 2.6,-0.88 1.04,-0.92 1.04,-2.44 0,-1.56 -0.92,-2.4 -0.88,-0.88 -3.56,-1.64 -2.68,-0.76 -3.88,-1.92 -1.2,-1.2 -1.2,-3.6 0,-2.4 1.84,-4 1.84,-1.64 4.8,-1.64 2.04,0 3.64,0.52 1.6,0.52 1.6,1.16 0,0.52 -0.48,1.36 -0.44,0.8 -0.8,0.8 -0.04,0 -0.52,-0.24 -1.36,-0.72 -3.08,-0.72 -1.68,0 -2.64,0.72 -0.92,0.68 -0.92,1.8 0,1.12 0.68,1.76 0.72,0.64 2.4,1.16 3.76,1.16 5.08,2.56 1.36,1.36 1.36,4.16 0,2.76 -2,4.56 -1.96,1.8 -4.72,1.8 -2.76,0 -4.76,-0.8 -2,-0.84 -2,-1.6 z"
           style="font-family:Asap;-inkscape-font-specification:Asap;fill:#ffffff"
           id="path236" />
        <path
           d="m 494.68265,454.13552 q -5,0 -7.4,-2.6 -2.4,-2.6 -2.4,-7.92 0,-5.36 2.36,-8.12 2.36,-2.76 6.72,-2.76 8.48,0 8.48,10.44 0,0.36 -0.48,1 -0.48,0.64 -0.84,0.64 h -12.64 q 0.24,3.32 1.72,4.88 1.48,1.56 4.44,1.56 2.72,0 5,-1.28 0.76,-0.4 0.84,-0.4 0.4,0 0.88,0.8 0.52,0.8 0.52,1.2 0,0.8 -2.2,1.68 -2.16,0.88 -5,0.88 z m 4.2,-12.2 q 0,-6.32 -4.8,-6.32 -5.16,0 -5.6,6.32 z"
           style="font-family:Asap;-inkscape-font-specification:Asap;fill:#ffffff"
           id="path238" />
        <path
           d="m 514.68262,433.57552 q 0,-0.68 1.72,-0.68 h 0.32 q 1.4,0 1.6,0.64 l 5.36,16.2 5.36,-16.2 q 0.2,-0.64 1.76,-0.64 1.6,0 1.6,0.68 0,0.2 -0.12,0.56 l -6.44,19.2 q -0.2,0.64 -1.6,0.64 h -1.4 q -1.4,0 -1.6,-0.64 l -6.44,-19.24 q -0.12,-0.36 -0.12,-0.52 z"
           style="font-family:Asap;-inkscape-font-specification:Asap;fill:#ffffff"
           id="path240" />
        <path
           d="m 548.48255,440.85552 v -1.88 q 0,-3.36 -4.4,-3.36 -2.88,0 -5.32,1.24 -0.84,0.44 -0.92,0.44 -0.4,0 -0.92,-0.8 -0.48,-0.8 -0.48,-1.2 0,-0.84 2.32,-1.68 2.36,-0.88 5.64,-0.88 3.28,0 5.36,1.68 2.08,1.64 2.08,4.6 v 8.96 q 0,2.4 0.2,3.48 0.28,1.48 0.28,1.56 0,0.48 -0.76,0.72 -0.76,0.2 -1.2,0.2 -0.4,0 -0.56,-0.08 -0.16,-0.08 -0.32,-0.28 -0.12,-0.2 -0.2,-0.36 -0.08,-0.2 -0.16,-0.52 -0.08,-0.32 -0.16,-0.48 -0.04,-0.2 -0.12,-0.56 -0.04,-0.4 -0.08,-0.52 -2.72,3 -6.72,3 -3.08,0 -4.96,-1.52 -1.88,-1.52 -1.88,-4.68 0,-3.16 2.16,-4.72 2.2,-1.6 4.92,-1.92 2.72,-0.36 6.2,-0.44 z m -9.68,7.08 q 0,3.28 3.4,3.28 1.96,0 3.36,-0.72 1.44,-0.72 2.92,-2.04 v -4.72 q -5,0 -6.44,0.56 -0.76,0.28 -1.6,0.72 -1.64,0.84 -1.64,2.92 z"
           style="font-family:Asap;-inkscape-font-specification:Asap;fill:#ffffff"
           id="path242" />
        <path
           d="m 79.803516,511.34523 q -2.88,3 -6.4,3 -3.52,0 -5.64,-2.96 -2.08,-2.96 -2.08,-7.6 v -0.36 q 0,-4.92 2.24,-7.68 2.24,-2.8 5.6,-2.8 3.36,0 6,2.04 v -10.08 q 0,-0.88 1.6,-0.88 h 0.16 q 1.6,0 1.6,0.88 v 23.28 q 0,2.4 0.2,3.48 0.28,1.48 0.28,1.56 0,0.48 -0.76,0.72 -0.76,0.2 -1.2,0.2 -0.4,0 -0.56,-0.08 -0.16,-0.08 -0.32,-0.28 -0.12,-0.2 -0.2,-0.36 -0.08,-0.2 -0.16,-0.52 -0.08,-0.32 -0.16,-0.48 -0.04,-0.2 -0.12,-0.56 -0.04,-0.4 -0.08,-0.52 z m -10.6,-8 q 0,8.08 5.2,8.08 2.6,0 5.12,-2.76 v -10.96 q -2.16,-1.8 -4.84,-1.8 h -0.24 q -2.56,0.04 -3.92,1.96 -1.32,1.92 -1.32,5.48 z"
           style="font-family:Asap;-inkscape-font-specification:Asap;fill:#ffffff"
           id="path244" />
        <path
           d="m 98.203461,514.34523 q -5,0 -7.4,-2.6 -2.4,-2.6 -2.4,-7.92 0,-5.36 2.36,-8.12 2.36,-2.76 6.72,-2.76 8.479999,0 8.479999,10.44 0,0.36 -0.48,1 -0.48,0.64 -0.84,0.64 H 92.003461 q 0.24,3.32 1.72,4.88 1.48,1.56 4.44,1.56 2.719999,0 4.999999,-1.28 0.76,-0.4 0.84,-0.4 0.4,0 0.88,0.8 0.52,0.8 0.52,1.2 0,0.8 -2.2,1.68 -2.16,0.88 -4.999999,0.88 z m 4.199999,-12.2 q 0,-6.32 -4.799999,-6.32 -5.16,0 -5.6,6.32 z"
           style="font-family:Asap;-inkscape-font-specification:Asap;fill:#ffffff"
           id="path246" />
        <path
           d="m 109.12344,517.34523 q 0,-3.28 4.52,-4.88 -2.56,-1.08 -2.56,-3.32 0,-2.28 3.04,-3.32 -1.76,-0.84 -2.72,-2.4 -0.92,-1.6 -0.92,-3.56 0,-3 2.08,-4.96 2.12,-1.96 5.92,-1.96 1.44,0 2.64,0.24 h 6.88 q 0.8,0 0.8,1.2 v 0.48 q 0,1.2 -0.8,1.2 h -2.8 q 1.32,1.6 1.32,3.8 0,2.96 -2.12,4.92 -2.12,1.96 -5.92,1.96 h -0.4 q -3.44,0.16 -3.44,1.68 0,0.84 1.4,1.28 1.4,0.4 3.36,0.64 2,0.24 3.96,0.68 2,0.44 3.4,1.8 1.4,1.32 1.4,3.48 0,2.72 -2.68,4.48 -2.64,1.8 -7.16,1.8 -4.48,0 -6.84,-1.2 -2.36,-1.16 -2.36,-4.04 z m 4.88,-17.48 q 0,4 4.48,4 4.52,0 4.52,-4 0,-4.04 -4.52,-4.04 -4.48,0 -4.48,4.04 z m -1.4,17.12 q 0,2.72 6,2.72 2.68,0 4.32,-0.92 1.68,-0.92 1.68,-2.28 0,-1.08 -0.92,-1.6 -1.52,-0.84 -5.44,-1.36 -1.04,-0.16 -1.64,-0.28 -1.56,0.6 -2.8,1.56 -1.2,0.96 -1.2,2.16 z"
           style="font-family:Asap;-inkscape-font-specification:Asap;fill:#ffffff"
           id="path248" />
        <path
           d="m 133.20342,513.30523 v -14.04 q 0,-2.44 -0.2,-3.48 -0.28,-1.44 -0.28,-1.56 0,-0.48 0.76,-0.68 0.76,-0.24 1.16,-0.24 0.44,0 0.6,0.08 0.16,0.08 0.28,0.28 0.16,0.16 0.24,0.36 0.08,0.16 0.16,0.48 0.08,0.28 0.12,0.48 0.08,0.16 0.12,0.52 0.08,0.32 0.12,0.44 2.12,-3 4.64,-3 1.12,0 1.72,0.44 0.6,0.44 0.6,1.12 0,0.68 -0.24,1.44 -0.24,0.72 -0.56,0.72 -0.16,0 -0.8,-0.2 -0.6,-0.24 -1.48,-0.24 -0.84,0 -1.76,0.64 -0.92,0.6 -1.36,1.2 l -0.48,0.6 v 14.64 q 0,0.88 -1.6,0.88 h -0.16 q -1.6,0 -1.6,-0.88 z"
           style="font-family:Asap;-inkscape-font-specification:Asap;fill:#ffffff"
           id="path250" />
        <path
           d="m 159.48339,501.06523 v -1.88 q 0,-3.36 -4.4,-3.36 -2.88,0 -5.32,1.24 -0.84,0.44 -0.92,0.44 -0.4,0 -0.92,-0.8 -0.48,-0.8 -0.48,-1.2 0,-0.84 2.32,-1.68 2.36,-0.88 5.64,-0.88 3.28,0 5.36,1.68 2.08,1.64 2.08,4.6 v 8.96 q 0,2.4 0.2,3.48 0.28,1.48 0.28,1.56 0,0.48 -0.76,0.72 -0.76,0.2 -1.2,0.2 -0.4,0 -0.56,-0.08 -0.16,-0.08 -0.32,-0.28 -0.12,-0.2 -0.2,-0.36 -0.08,-0.2 -0.16,-0.52 -0.08,-0.32 -0.16,-0.48 -0.04,-0.2 -0.12,-0.56 -0.04,-0.4 -0.08,-0.52 -2.72,3 -6.72,3 -3.08,0 -4.96,-1.52 -1.88,-1.52 -1.88,-4.68 0,-3.16 2.16,-4.72 2.2,-1.6 4.92,-1.92 2.72,-0.36 6.2,-0.44 z m -9.68,7.08 q 0,3.28 3.4,3.28 1.96,0 3.36,-0.72 1.44,-0.72 2.92,-2.04 v -4.72 q -5,0 -6.44,0.56 -0.76,0.28 -1.6,0.72 -1.64,0.84 -1.64,2.92 z"
           style="font-family:Asap;-inkscape-font-specification:Asap;fill:#ffffff"
           id="path252" />
        <path
           d="m 182.24332,511.34523 q -2.88,3 -6.4,3 -3.52,0 -5.64,-2.96 -2.08,-2.96 -2.08,-7.6 v -0.36 q 0,-4.92 2.24,-7.68 2.24,-2.8 5.6,-2.8 3.36,0 6,2.04 v -10.08 q 0,-0.88 1.6,-0.88 h 0.16 q 1.6,0 1.6,0.88 v 23.28 q 0,2.4 0.2,3.48 0.28,1.48 0.28,1.56 0,0.48 -0.76,0.72 -0.76,0.2 -1.2,0.2 -0.4,0 -0.56,-0.08 -0.16,-0.08 -0.32,-0.28 -0.12,-0.2 -0.2,-0.36 -0.08,-0.2 -0.16,-0.52 -0.08,-0.32 -0.16,-0.48 -0.04,-0.2 -0.12,-0.56 -0.04,-0.4 -0.08,-0.52 z m -10.6,-8 q 0,8.08 5.2,8.08 2.6,0 5.12,-2.76 v -10.96 q -2.16,-1.8 -4.84,-1.8 h -0.24 q -2.56,0.04 -3.92,1.96 -1.32,1.92 -1.32,5.48 z"
           style="font-family:Asap;-inkscape-font-specification:Asap;fill:#ffffff"
           id="path254" />
        <path
           d="m 203.88326,501.06523 v -1.88 q 0,-3.36 -4.4,-3.36 -2.88,0 -5.32,1.24 -0.84,0.44 -0.92,0.44 -0.4,0 -0.92,-0.8 -0.48,-0.8 -0.48,-1.2 0,-0.84 2.32,-1.68 2.36,-0.88 5.64,-0.88 3.28,0 5.36,1.68 2.08,1.64 2.08,4.6 v 8.96 q 0,2.4 0.2,3.48 0.28,1.48 0.28,1.56 0,0.48 -0.76,0.72 -0.76,0.2 -1.2,0.2 -0.4,0 -0.56,-0.08 -0.16,-0.08 -0.32,-0.28 -0.12,-0.2 -0.2,-0.36 -0.08,-0.2 -0.16,-0.52 -0.08,-0.32 -0.16,-0.48 -0.04,-0.2 -0.12,-0.56 -0.04,-0.4 -0.08,-0.52 -2.72,3 -6.72,3 -3.08,0 -4.96,-1.52 -1.88,-1.52 -1.88,-4.68 0,-3.16 2.16,-4.72 2.2,-1.6 4.92,-1.92 2.72,-0.36 6.2,-0.44 z m -9.68,7.08 q 0,3.28 3.4,3.28 1.96,0 3.36,-0.72 1.44,-0.72 2.92,-2.04 v -4.72 q -5,0 -6.44,0.56 -0.76,0.28 -1.6,0.72 -1.64,0.84 -1.64,2.92 z"
           style="font-family:Asap;-inkscape-font-specification:Asap;fill:#ffffff"
           id="path256" />
        <path
           d="m 213.88319,513.30523 v -14.04 q 0,-2.44 -0.2,-3.48 -0.28,-1.44 -0.28,-1.56 0,-0.48 0.76,-0.68 0.76,-0.24 1.16,-0.24 0.44,0 0.6,0.08 0.16,0.08 0.28,0.28 0.16,0.16 0.24,0.36 0.08,0.16 0.16,0.48 0.08,0.28 0.12,0.48 0.08,0.16 0.12,0.52 0.08,0.32 0.12,0.44 2.68,-3 5.96,-3 3.32,0 5.04,1.72 1.76,1.72 1.76,4.76 v 13.88 q 0,0.88 -1.6,0.88 h -0.16 q -1.6,0 -1.6,-0.88 v -13.56 q 0,-1.84 -1.08,-2.84 -1.04,-1.04 -3,-1.04 -2.88,0 -5.04,2.8 v 14.64 q 0,0.88 -1.6,0.88 h -0.16 q -1.6,0 -1.6,-0.88 z"
           style="font-family:Asap;-inkscape-font-specification:Asap;fill:#ffffff"
           id="path258" />
        <path
           d="m 248.92316,511.34523 q -2.88,3 -6.4,3 -3.52,0 -5.64,-2.96 -2.08,-2.96 -2.08,-7.6 v -0.36 q 0,-4.92 2.24,-7.68 2.24,-2.8 5.6,-2.8 3.36,0 6,2.04 v -10.08 q 0,-0.88 1.6,-0.88 h 0.16 q 1.6,0 1.6,0.88 v 23.28 q 0,2.4 0.2,3.48 0.28,1.48 0.28,1.56 0,0.48 -0.76,0.72 -0.76,0.2 -1.2,0.2 -0.4,0 -0.56,-0.08 -0.16,-0.08 -0.32,-0.28 -0.12,-0.2 -0.2,-0.36 -0.08,-0.2 -0.16,-0.52 -0.08,-0.32 -0.16,-0.48 -0.04,-0.2 -0.12,-0.56 -0.04,-0.4 -0.08,-0.52 z m -10.6,-8 q 0,8.08 5.2,8.08 2.6,0 5.12,-2.76 v -10.96 q -2.16,-1.8 -4.84,-1.8 h -0.24 q -2.56,0.04 -3.92,1.96 -1.32,1.92 -1.32,5.48 z"
           style="font-family:Asap;-inkscape-font-specification:Asap;fill:#ffffff"
           id="path260" />
        <path
           d="m 266.7631,514.34523 q -4.48,0 -6.88,-2.72 -2.36,-2.72 -2.36,-7.88 0,-5.2 2.4,-8 2.4,-2.8 6.84,-2.8 4.44,0 6.76,2.8 2.36,2.76 2.36,8 0,5.2 -2.32,7.92 -2.28,2.68 -6.8,2.68 z m -4.36,-4.76 q 1.36,1.88 4.28,1.88 2.92,0 4.32,-1.88 1.4,-1.92 1.4,-5.92 0,-4 -1.4,-5.92 -1.4,-1.92 -4.32,-1.92 -2.92,0 -4.28,1.92 -1.36,1.88 -1.36,5.92 0,4 1.36,5.92 z"
           style="font-family:Asap;-inkscape-font-specification:Asap;fill:#ffffff"
           id="path262" />
        <path
           d="m 289.04303,517.34523 q 0,-3.28 4.52,-4.88 -2.56,-1.08 -2.56,-3.32 0,-2.28 3.04,-3.32 -1.76,-0.84 -2.72,-2.4 -0.92,-1.6 -0.92,-3.56 0,-3 2.08,-4.96 2.12,-1.96 5.92,-1.96 1.44,0 2.64,0.24 h 6.88 q 0.8,0 0.8,1.2 v 0.48 q 0,1.2 -0.8,1.2 h -2.8 q 1.32,1.6 1.32,3.8 0,2.96 -2.12,4.92 -2.12,1.96 -5.92,1.96 h -0.4 q -3.44,0.16 -3.44,1.68 0,0.84 1.4,1.28 1.4,0.4 3.36,0.64 2,0.24 3.96,0.68 2,0.44 3.4,1.8 1.4,1.32 1.4,3.48 0,2.72 -2.68,4.48 -2.64,1.8 -7.16,1.8 -4.48,0 -6.84,-1.2 -2.36,-1.16 -2.36,-4.04 z m 4.88,-17.48 q 0,4 4.48,4 4.52,0 4.52,-4 0,-4.04 -4.52,-4.04 -4.48,0 -4.48,4.04 z m -1.4,17.12 q 0,2.72 6,2.72 2.68,0 4.32,-0.92 1.68,-0.92 1.68,-2.28 0,-1.08 -0.92,-1.6 -1.52,-0.84 -5.44,-1.36 -1.04,-0.16 -1.64,-0.28 -1.56,0.6 -2.8,1.56 -1.2,0.96 -1.2,2.16 z"
           style="font-family:Asap;-inkscape-font-specification:Asap;fill:#ffffff"
           id="path264" />
        <path
           d="m 313.12301,513.30523 v -14.04 q 0,-2.44 -0.2,-3.48 -0.28,-1.44 -0.28,-1.56 0,-0.48 0.76,-0.68 0.76,-0.24 1.16,-0.24 0.44,0 0.6,0.08 0.16,0.08 0.28,0.28 0.16,0.16 0.24,0.36 0.08,0.16 0.16,0.48 0.08,0.28 0.12,0.48 0.08,0.16 0.12,0.52 0.08,0.32 0.12,0.44 2.12,-3 4.64,-3 1.12,0 1.72,0.44 0.6,0.44 0.6,1.12 0,0.68 -0.24,1.44 -0.24,0.72 -0.56,0.72 -0.16,0 -0.8,-0.2 -0.6,-0.24 -1.48,-0.24 -0.84,0 -1.76,0.64 -0.92,0.6 -1.36,1.2 l -0.48,0.6 v 14.64 q 0,0.88 -1.6,0.88 h -0.16 q -1.6,0 -1.6,-0.88 z"
           style="font-family:Asap;-inkscape-font-specification:Asap;fill:#ffffff"
           id="path266" />
        <path
           d="m 339.40296,501.06523 v -1.88 q 0,-3.36 -4.4,-3.36 -2.88,0 -5.32,1.24 -0.84,0.44 -0.92,0.44 -0.4,0 -0.92,-0.8 -0.48,-0.8 -0.48,-1.2 0,-0.84 2.32,-1.68 2.36,-0.88 5.64,-0.88 3.28,0 5.36,1.68 2.08,1.64 2.08,4.6 v 8.96 q 0,2.4 0.2,3.48 0.28,1.48 0.28,1.56 0,0.48 -0.76,0.72 -0.76,0.2 -1.2,0.2 -0.4,0 -0.56,-0.08 -0.16,-0.08 -0.32,-0.28 -0.12,-0.2 -0.2,-0.36 -0.08,-0.2 -0.16,-0.52 -0.08,-0.32 -0.16,-0.48 -0.04,-0.2 -0.12,-0.56 -0.04,-0.4 -0.08,-0.52 -2.72,3 -6.72,3 -3.08,0 -4.96,-1.52 -1.88,-1.52 -1.88,-4.68 0,-3.16 2.16,-4.72 2.2,-1.6 4.92,-1.92 2.72,-0.36 6.2,-0.44 z m -9.68,7.08 q 0,3.28 3.4,3.28 1.96,0 3.36,-0.72 1.44,-0.72 2.92,-2.04 v -4.72 q -5,0 -6.44,0.56 -0.76,0.28 -1.6,0.72 -1.64,0.84 -1.64,2.92 z"
           style="font-family:Asap;-inkscape-font-specification:Asap;fill:#ffffff"
           id="path268" />
        <path
           d="m 362.16289,511.34523 q -2.88,3 -6.4,3 -3.52,0 -5.64,-2.96 -2.08,-2.96 -2.08,-7.6 v -0.36 q 0,-4.92 2.24,-7.68 2.24,-2.8 5.6,-2.8 3.36,0 6,2.04 v -10.08 q 0,-0.88 1.6,-0.88 h 0.16 q 1.6,0 1.6,0.88 v 23.28 q 0,2.4 0.2,3.48 0.28,1.48 0.28,1.56 0,0.48 -0.76,0.72 -0.76,0.2 -1.2,0.2 -0.4,0 -0.56,-0.08 -0.16,-0.08 -0.32,-0.28 -0.12,-0.2 -0.2,-0.36 -0.08,-0.2 -0.16,-0.52 -0.08,-0.32 -0.16,-0.48 -0.04,-0.2 -0.12,-0.56 -0.04,-0.4 -0.08,-0.52 z m -10.6,-8 q 0,8.08 5.2,8.08 2.6,0 5.12,-2.76 v -10.96 q -2.16,-1.8 -4.84,-1.8 h -0.24 q -2.56,0.04 -3.92,1.96 -1.32,1.92 -1.32,5.48 z"
           style="font-family:Asap;-inkscape-font-specification:Asap;fill:#ffffff"
           id="path270" />
        <path
           d="m 371.56287,507.86523 v -13.88 q 0,-0.88 1.6,-0.88 h 0.16 q 1.6,0 1.6,0.88 v 13.56 q 0,1.84 1.04,2.88 1.08,1 3.04,1 2.88,0 5.04,-2.8 v -14.64 q 0,-0.88 1.6,-0.88 h 0.16 q 1.6,0 1.6,0.88 v 14.2 q 0,2.4 0.2,3.48 0.28,1.48 0.28,1.56 0,0.48 -0.76,0.72 -0.76,0.2 -1.2,0.2 -0.4,0 -0.56,-0.08 -0.16,-0.08 -0.32,-0.28 -0.12,-0.2 -0.2,-0.36 -0.08,-0.2 -0.16,-0.52 -0.08,-0.32 -0.16,-0.48 -0.04,-0.2 -0.12,-0.56 -0.04,-0.4 -0.08,-0.52 -2.68,3 -6,3 -3.28,0 -5.04,-1.72 -1.72,-1.72 -1.72,-4.76 z"
           style="font-family:Asap;-inkscape-font-specification:Asap;fill:#ffffff"
           id="path272" />
        <path
           d="m 406.08283,501.06523 v -1.88 q 0,-3.36 -4.4,-3.36 -2.88,0 -5.32,1.24 -0.84,0.44 -0.92,0.44 -0.4,0 -0.92,-0.8 -0.48,-0.8 -0.48,-1.2 0,-0.84 2.32,-1.68 2.36,-0.88 5.64,-0.88 3.28,0 5.36,1.68 2.08,1.64 2.08,4.6 v 8.96 q 0,2.4 0.2,3.48 0.28,1.48 0.28,1.56 0,0.48 -0.76,0.72 -0.76,0.2 -1.2,0.2 -0.4,0 -0.56,-0.08 -0.16,-0.08 -0.32,-0.28 -0.12,-0.2 -0.2,-0.36 -0.08,-0.2 -0.16,-0.52 -0.08,-0.32 -0.16,-0.48 -0.04,-0.2 -0.12,-0.56 -0.04,-0.4 -0.08,-0.52 -2.72,3 -6.72,3 -3.08,0 -4.96,-1.52 -1.88,-1.52 -1.88,-4.68 0,-3.16 2.16,-4.72 2.2,-1.6 4.92,-1.92 2.72,-0.36 6.2,-0.44 z m -9.68,7.08 q 0,3.28 3.4,3.28 1.96,0 3.36,-0.72 1.44,-0.72 2.92,-2.04 v -4.72 q -5,0 -6.44,0.56 -0.76,0.28 -1.6,0.72 -1.64,0.84 -1.64,2.92 z"
           style="font-family:Asap;-inkscape-font-specification:Asap;fill:#ffffff"
           id="path274" />
        <path
           d="m 415.92276,508.82523 v -23.92 q 0,-0.88 1.6,-0.88 h 0.16 q 1.6,0 1.6,0.88 v 23.6 q 0,2.96 2.16,2.96 0.68,0 1.16,-0.08 0.48,-0.12 0.56,-0.12 0.36,0 0.6,0.76 0.24,0.72 0.24,1.12 0,1.2 -2.92,1.2 -2,0 -3.6,-1.2 -1.56,-1.24 -1.56,-4.32 z"
           style="font-family:Asap;-inkscape-font-specification:Asap;fill:#ffffff"
           id="path276" />
        <path
           d="m 427.92271,513.30523 v -14.04 q 0,-2.44 -0.2,-3.48 -0.28,-1.44 -0.28,-1.56 0,-0.48 0.76,-0.68 0.76,-0.24 1.16,-0.24 0.44,0 0.6,0.08 0.16,0.08 0.28,0.28 0.16,0.16 0.24,0.36 0.08,0.16 0.16,0.48 0.08,0.28 0.12,0.48 0.08,0.16 0.12,0.52 0.08,0.32 0.12,0.44 2.6,-3 6.08,-3 4.36,0 5.72,3.32 2.8,-3.32 6.36,-3.32 2.28,0 4.08,1.16 1,0.68 1.6,2.04 0.6,1.36 0.6,3.28 v 13.88 q 0,0.88 -1.6,0.88 h -0.16 q -1.6,0 -1.6,-0.88 v -13.56 q 0,-1.8 -1,-2.84 -0.96,-1.04 -2.84,-1.04 -2.48,0 -4.92,2.76 0.04,0.28 0.04,0.84 v 13.84 q 0,0.88 -1.6,0.88 h -0.16 q -1.6,0 -1.6,-0.88 v -13.56 q 0,-1.8 -1,-2.84 -0.96,-1.04 -2.56,-1.04 -1.56,0 -2.8,0.68 -1.2,0.68 -1.76,1.4 l -0.6,0.68 v 14.68 q 0,0.88 -1.6,0.88 h -0.16 q -1.6,0 -1.6,-0.88 z"
           style="font-family:Asap;-inkscape-font-specification:Asap;fill:#ffffff"
           id="path278" />
        <path
           d="m 470.44269,514.34523 q -5,0 -7.4,-2.6 -2.4,-2.6 -2.4,-7.92 0,-5.36 2.36,-8.12 2.36,-2.76 6.72,-2.76 8.48,0 8.48,10.44 0,0.36 -0.48,1 -0.48,0.64 -0.84,0.64 h -12.64 q 0.24,3.32 1.72,4.88 1.48,1.56 4.44,1.56 2.72,0 5,-1.28 0.76,-0.4 0.84,-0.4 0.4,0 0.88,0.8 0.52,0.8 0.52,1.2 0,0.8 -2.2,1.68 -2.16,0.88 -5,0.88 z m 4.2,-12.2 q 0,-6.32 -4.8,-6.32 -5.16,0 -5.6,6.32 z"
           style="font-family:Asap;-inkscape-font-specification:Asap;fill:#ffffff"
           id="path280" />
        <path
           d="m 483.44269,513.30523 v -14.04 q 0,-2.44 -0.2,-3.48 -0.28,-1.44 -0.28,-1.56 0,-0.48 0.76,-0.68 0.76,-0.24 1.16,-0.24 0.44,0 0.6,0.08 0.16,0.08 0.28,0.28 0.16,0.16 0.24,0.36 0.08,0.16 0.16,0.48 0.08,0.28 0.12,0.48 0.08,0.16 0.12,0.52 0.08,0.32 0.12,0.44 2.68,-3 5.96,-3 3.32,0 5.04,1.72 1.76,1.72 1.76,4.76 v 13.88 q 0,0.88 -1.6,0.88 h -0.16 q -1.6,0 -1.6,-0.88 v -13.56 q 0,-1.84 -1.08,-2.84 -1.04,-1.04 -3,-1.04 -2.88,0 -5.04,2.8 v 14.64 q 0,0.88 -1.6,0.88 h -0.16 q -1.6,0 -1.6,-0.88 z"
           style="font-family:Asap;-inkscape-font-specification:Asap;fill:#ffffff"
           id="path282" />
        <path
           d="m 506.56265,508.82523 v -12.76 h -2 q -0.8,0 -0.8,-1.2 v -0.48 q 0,-1.2 0.8,-1.2 h 2 l 0.48,-4.2 q 0.08,-0.88 1.28,-0.88 h 0.4 q 1.2,0 1.2,0.88 v 4.2 h 3.36 q 0.8,0 0.8,1.2 v 0.48 q 0,1.2 -0.8,1.2 h -3.36 v 12.44 q 0,2.96 2.16,2.96 0.68,0 1.16,-0.08 0.48,-0.12 0.56,-0.12 0.36,0 0.6,0.76 0.24,0.72 0.24,1.12 0,1.2 -2.92,1.2 -2,0 -3.6,-1.2 -1.56,-1.24 -1.56,-4.32 z"
           style="font-family:Asap;-inkscape-font-specification:Asap;fill:#ffffff"
           id="path284" />
        <path
           d="m 527.96259,514.34523 q -5,0 -7.4,-2.6 -2.4,-2.6 -2.4,-7.92 0,-5.36 2.36,-8.12 2.36,-2.76 6.72,-2.76 8.48,0 8.48,10.44 0,0.36 -0.48,1 -0.48,0.64 -0.84,0.64 h -12.64 q 0.24,3.32 1.72,4.88 1.48,1.56 4.44,1.56 2.72,0 5,-1.28 0.76,-0.4 0.84,-0.4 0.4,0 0.88,0.8 0.52,0.8 0.52,1.2 0,0.8 -2.2,1.68 -2.16,0.88 -5,0.88 z m 4.2,-12.2 q 0,-6.32 -4.8,-6.32 -5.16,0 -5.6,6.32 z"
           style="font-family:Asap;-inkscape-font-specification:Asap;fill:#ffffff"
           id="path286" />
        <path
           d="m 539.56258,513.30523 v -2.64 q 0,-0.88 1.6,-0.88 h 0.68 q 1.6,0 1.6,0.88 v 2.64 q 0,0.88 -1.6,0.88 h -0.68 q -1.6,0 -1.6,-0.88 z"
           style="font-family:Asap;-inkscape-font-specification:Asap;fill:#ffffff"
           id="path288" />
      </g>
      <g
         id="#2a3f58ff"
         transform="matrix(0.35278,0,0,0.35278,7.9804383,15.344829)">
        <path
           fill="#2a3f58"
           opacity="1"
           d="m 42.467511,10.323179 c 4.54,-4.2299994 13.79,-5.0999994 16.84,1.25 2.02,5.5 -3.6,9.45 -7.49,12.12 2.72,-0.02 5.44,-0.03 8.16,-0.02 0,1.58 0,3.16 0.01,4.74 -5.59,0.02 -11.17,0.01 -16.76,0.01 0,-1.4 -0.01,-2.79 -0.01,-4.19 3.5,-2.72 7.43,-5 10.36,-8.38 1.03,-1.07 1.02,-3.45 -0.71,-3.79 -2.62,-1.17 -5.26,0.54 -7.44,1.85 -0.99,-1.2 -1.97,-2.39 -2.96,-3.59 z"
           id="path4-6" />
      </g>
    </g>
  </g>
</svg>
