<?xml version="1.0" encoding="UTF-8" standalone="no"?>
<!-- Created with Inkscape (http://www.inkscape.org/) -->

<svg
   width="653"
   height="583"
   viewBox="0 0 172.77401 154.25242"
   version="1.1"
   id="svg5"
   inkscape:version="1.1.1 (3bf5ae0d25, 2021-09-20)"
   sodipodi:docname="etapa1.svg"
   xmlns:inkscape="http://www.inkscape.org/namespaces/inkscape"
   xmlns:sodipodi="http://sodipodi.sourceforge.net/DTD/sodipodi-0.dtd"
   xmlns="http://www.w3.org/2000/svg"
   xmlns:svg="http://www.w3.org/2000/svg">
  <sodipodi:namedview
     id="namedview7"
     pagecolor="#ffffff"
     bordercolor="#666666"
     borderopacity="1.0"
     inkscape:pageshadow="2"
     inkscape:pageopacity="0.0"
     inkscape:pagecheckerboard="0"
     inkscape:document-units="px"
     showgrid="false"
     units="px"
     width="1025px"
     height="682px"
     showguides="true"
     inkscape:guide-bbox="true"
     inkscape:zoom="0.68423281"
     inkscape:cx="-41.65249"
     inkscape:cy="376.3339"
     inkscape:window-width="1920"
     inkscape:window-height="1011"
     inkscape:window-x="0"
     inkscape:window-y="0"
     inkscape:window-maximized="1"
     inkscape:current-layer="g49">
    <sodipodi:guide
       position="-67.968334,168.96412"
       orientation="1,0"
       id="guide98514" />
  </sodipodi:namedview>
  <defs
     id="defs2">
    <rect
       x="63.603035"
       y="231.66563"
       width="555.02252"
       height="362.80865"
       id="rect27482" />
    <rect
       x="181.43657"
       y="196.51961"
       width="435.39871"
       height="102.46946"
       id="rect2963" />
  </defs>
  <g
     inkscape:label="Layer 1"
     inkscape:groupmode="layer"
     id="layer1">
    <g
       id="g49">
      <g
         id="g1205">
        <path
           id="rect31"
           style="fill:#037aff;fill-rule:evenodd;stroke-width:0.255537"
           d="M 0.09366776,-0.02053081 H 172.86769 V 154.2319 H 0.09366776 Z" />
        <path
           id="path446"
           style="fill:#ffffff;stroke-width:0.230593"
           d="m 35.625477,21.657858 a 9.6399517,9.780426 0 0 1 -9.639952,9.780426 9.6399517,9.780426 0 0 1 -9.639952,-9.780426 9.6399517,9.780426 0 0 1 9.639952,-9.780426 9.6399517,9.780426 0 0 1 9.639952,9.780426 z" />
        <g
           id="g1174"
           transform="translate(3.9783551,36.867312)">
          <g
             id="g13728">
            <path
               fill="#00b8d4"
               opacity="1"
               d="M 11.843569,-25.331548 H 32.30468 V -5.2232151 H 11.843569 V -25.331548 m 8.202083,0.8255 c -1.908528,0.352778 -3.65125,1.368778 -5.012972,2.7305 -2.797528,2.885722 -3.478389,7.549444 -1.583972,11.098389 1.527528,2.9104162 4.60375,4.9812217 7.912805,5.1011661 3.242028,0.254 6.558139,-1.3088055 8.396111,-3.9899166 1.989667,-2.7093335 2.321278,-6.5087495 0.899583,-9.5461665 -1.710972,-3.986389 -6.388805,-6.328833 -10.611555,-5.393972 z"
               id="path2"
               style="stroke-width:0.352778;fill:#037aff;fill-opacity:1" />
            <path
               fill="#00b8d4"
               opacity="1"
               d="m 18.987319,-16.113465 c 0.899583,-0.878417 1.739194,-1.820333 2.716389,-2.617611 0.532694,0.01764 1.065389,0.02117 1.601611,0.01411 0.0071,2.497667 0.0035,4.998861 0,7.496528 -0.645584,0 -1.291167,0 -1.93675,0 -0.02117,-1.654528 0.05292,-3.305528 -0.05292,-4.956528 -0.395111,0.402167 -0.79375,0.800806 -1.185333,1.2065 -0.377472,-0.384528 -0.758472,-0.762 -1.143,-1.143 z"
               id="path4"
               style="stroke-width:0.352778;fill:#037aff;fill-opacity:1" />
          </g>
        </g>
        <g
           aria-label="Infección Aguda"
           transform="matrix(0.26458333,0,0,0.26458333,-33.190863,-16.970379)"
           id="text2961"
           style="font-size:53.3333px;line-height:1.25;white-space:pre;shape-inside:url(#rect2963)">
          <path
             d="m 187.3575,243.7311 c 0,1.65333 1.28,2.93333 2.93333,2.93333 1.6,0 2.98666,-1.28 2.98666,-2.93333 v -31.46665 c 0,-1.65333 -1.38666,-2.93333 -2.98666,-2.93333 -1.65333,0 -2.93333,1.28 -2.93333,2.93333 z"
             style="font-family:Quicksand;-inkscape-font-specification:Quicksand;fill:#ffffff"
             id="path53" />
          <path
             d="m 213.75739,219.99778 c -2.07999,0 -4.05333,0.64 -5.65333,1.65333 -0.47999,-1.01333 -1.49333,-1.65333 -2.61333,-1.65333 -1.6,0 -2.82666,1.28 -2.82666,2.82666 v 8.26666 c 0,0 0,0 0,0 v 12.74666 c 0,1.54667 1.22666,2.82667 2.82666,2.82667 1.38667,0 2.56,-1.01333 2.82667,-2.29333 0.10666,-0.21334 0.10666,-0.37334 0.10666,-0.53334 V 231.0911 c 0,-2.98666 2.34667,-5.38666 5.33333,-5.38666 3.04,0 5.54667,2.4 5.54667,5.38666 v 12.74666 c 0,1.54667 1.33333,2.82667 2.82666,2.82667 1.54667,0 2.77333,-1.28 2.77333,-2.82667 V 231.0911 c 0,-6.02666 -4.95999,-11.09332 -11.14666,-11.09332 z"
             style="font-family:Quicksand;-inkscape-font-specification:Quicksand;fill:#ffffff"
             id="path55" />
          <path
             d="m 244.58399,215.51778 c 0.0533,-0.0533 0.10667,-0.10667 0.32,-0.16 0.21333,-0.10667 0.69333,-0.16 1.38667,-0.16 1.59999,0 2.93333,-1.33333 2.93333,-2.98666 0,-1.6 -1.33334,-2.93334 -2.93333,-2.93334 -1.12,0 -2.13334,0.10667 -3.2,0.42667 -1.6,0.48 -3.09333,1.70667 -3.84,3.30667 -0.8,1.54666 -1.01333,3.25333 -1.01333,5.22666 v 0.74667 h -1.38667 c -1.65333,0 -2.98666,1.27999 -2.98666,2.93333 0,1.6 1.33333,2.93333 2.98666,2.93333 h 1.38667 v 18.82665 c 0,1.6 1.28,2.93334 2.93333,2.93334 1.65333,0 2.93333,-1.33334 2.93333,-2.93334 v -18.82665 h 1.6 c 1.6,0 2.93333,-1.33333 2.93333,-2.93333 0,-1.65334 -1.33333,-2.93333 -2.93333,-2.93333 h -1.6 v -0.74667 c 0,-1.97333 0.42667,-2.72 0.48,-2.72 z"
             style="font-family:Quicksand;-inkscape-font-specification:Quicksand;fill:#ffffff"
             id="path57" />
          <path
             d="m 265.27727,246.66443 c 3.78667,0 6.93333,-1.12 9.54666,-3.52 1.22667,-1.12 0.69334,-2.72 0,-3.46666 -0.69333,-0.85334 -2.87999,-1.01334 -3.99999,0.16 -1.33334,1.01333 -3.62667,1.49333 -5.54667,1.33333 -1.86666,-0.16 -3.99999,-1.12 -5.11999,-2.4 -0.96,-0.90667 -1.54667,-2.29333 -1.81334,-3.52 h 16.95999 c 1.49334,0 2.61334,-0.85333 2.77334,-2.13333 0.0533,-0.10667 0.0533,-0.37333 0.0533,-0.48 0,0 0,0 0,0 0,0 0,0 0,0 0,-0.10667 0,-0.21333 0,-0.26667 -0.42667,-7.19999 -5.92,-12.37332 -12.85333,-12.37332 -7.30666,0 -12.95999,6.07999 -13.01332,13.33332 0.0533,7.25333 5.70666,13.28 13.01332,13.33333 z m 0,-21.59999 c 4.64,0.37333 7.36,3.52 7.89333,5.65333 h -15.09332 c 0.42666,-2.18666 2.66666,-5.44 7.19999,-5.65333 z"
             style="font-family:Quicksand;-inkscape-font-specification:Quicksand;fill:#ffffff"
             id="path59" />
          <path
             d="m 298.29055,246.66443 c 0,0 0,0 0,0 3.2,0 6.18666,-1.17333 8.47999,-2.82667 1.22667,-1.06666 1.44,-2.77333 0.58667,-3.94666 -1.06667,-1.28 -2.82667,-1.49333 -4,-0.58667 -1.38666,1.01334 -3.14666,1.70667 -5.06666,1.70667 -4.32,0 -7.89333,-3.52 -7.89333,-7.62666 0,-4.10667 3.57333,-7.68 7.89333,-7.68 1.97333,0 3.68,0.69333 5.06666,1.70667 1.22667,0.96 2.93333,0.74666 4,-0.53334 0.85333,-1.17333 0.64,-2.98666 -0.58667,-3.94666 -2.29333,-1.76 -5.27999,-2.93333 -8.47999,-2.93333 -7.36,0.0533 -13.54666,5.97333 -13.54666,13.38666 0,7.30666 6.18666,13.27999 13.54666,13.27999 z"
             style="font-family:Quicksand;-inkscape-font-specification:Quicksand;fill:#ffffff"
             id="path61" />
          <path
             d="m 327.94375,246.66443 c 0,0 0,0 0,0 3.19999,0 6.18666,-1.17333 8.47999,-2.82667 1.22667,-1.06666 1.44,-2.77333 0.58667,-3.94666 -1.06667,-1.28 -2.82667,-1.49333 -4,-0.58667 -1.38667,1.01334 -3.14666,1.70667 -5.06666,1.70667 -4.32,0 -7.89333,-3.52 -7.89333,-7.62666 0,-4.10667 3.57333,-7.68 7.89333,-7.68 1.97333,0 3.67999,0.69333 5.06666,1.70667 1.22667,0.96 2.93333,0.74666 4,-0.53334 0.85333,-1.17333 0.64,-2.98666 -0.58667,-3.94666 -2.29333,-1.76 -5.28,-2.93333 -8.47999,-2.93333 -7.36,0.0533 -13.54666,5.97333 -13.54666,13.38666 0,7.30666 6.18666,13.27999 13.54666,13.27999 z"
             style="font-family:Quicksand;-inkscape-font-specification:Quicksand;fill:#ffffff"
             id="path63" />
          <path
             d="m 349.65035,220.05111 c -1.6,0 -2.88,1.22667 -2.88,2.93333 v 20.79999 c 0,1.6 1.28,2.88 2.88,2.88 1.65333,0 2.88,-1.28 2.88,-2.88 v -20.79999 c 0,-1.70666 -1.22667,-2.93333 -2.88,-2.93333 z m 2.88,-7.83999 c 0,-1.6 -1.22667,-2.88 -2.88,-2.88 -1.6,0 -2.88,1.28 -2.88,2.88 v 1.12 c 0,1.59999 1.28,2.93333 2.88,2.93333 1.65333,0 2.88,-1.33334 2.88,-2.93333 z"
             style="font-family:Quicksand;-inkscape-font-specification:Quicksand;fill:#ffffff"
             id="path65" />
          <path
             d="m 372.69025,246.82443 c 0,0 0,0 0,0 3.52,0 6.71999,-1.54667 8.90666,-4.05333 2.4,-2.34667 3.73333,-5.65333 3.73333,-9.38666 0,-3.62667 -1.33333,-6.77333 -3.73333,-9.33333 -2.18667,-2.50667 -5.38666,-4.05333 -8.90666,-4.05333 -3.68,0 -6.77333,1.54666 -9.17333,4.05333 -2.29333,2.56 -3.68,5.70666 -3.68,9.33333 0,3.73333 1.38667,7.03999 3.68,9.38666 2.4,2.50666 5.49333,4.05333 9.17333,4.05333 z m -5.12,-18.98666 c 1.33333,-1.17333 3.09333,-2.02666 5.12,-2.02666 1.86666,0 3.57333,0.85333 4.90666,2.02666 1.33333,1.44 2.08,3.36 2.08,5.54667 0,2.29333 -0.74667,4.15999 -2.08,5.65333 -1.33333,1.28 -3.04,1.97333 -4.90666,1.97333 -2.02667,0 -3.78667,-0.69333 -5.12,-1.97333 -1.22666,-1.49334 -1.92,-3.36 -1.92,-5.65333 0,-2.18667 0.69334,-4.10667 1.92,-5.54667 z m 1.54667,-11.57332 c 1.49333,0 2.50666,-0.26667 3.78666,-1.44 l 3.57333,-3.41333 c 0.53334,-0.48 0.90667,-1.01334 0.90667,-1.6 0,-1.01334 -2.13333,-2.08 -3.84,-2.08 -1.12,0 -1.97333,0.58667 -2.56,1.54666 l -3.04,4.69334 c -0.21333,0.31999 -0.42666,0.79999 -0.42666,1.17333 0,0.69333 0.69333,1.12 1.6,1.12 z"
             style="font-family:Quicksand;-inkscape-font-specification:Quicksand;fill:#ffffff"
             id="path67" />
          <path
             d="m 406.9302,219.99778 c -2.08,0 -4.05333,0.64 -5.65333,1.65333 -0.48,-1.01333 -1.49333,-1.65333 -2.61333,-1.65333 -1.6,0 -2.82667,1.28 -2.82667,2.82666 v 8.26666 c 0,0 0,0 0,0 v 12.74666 c 0,1.54667 1.22667,2.82667 2.82667,2.82667 1.38666,0 2.56,-1.01333 2.82666,-2.29333 0.10667,-0.21334 0.10667,-0.37334 0.10667,-0.53334 V 231.0911 c 0,-2.98666 2.34667,-5.38666 5.33333,-5.38666 3.04,0 5.54666,2.4 5.54666,5.38666 v 12.74666 c 0,1.54667 1.33334,2.82667 2.82667,2.82667 1.54666,0 2.77333,-1.28 2.77333,-2.82667 V 231.0911 c 0,-6.02666 -4.96,-11.09332 -11.14666,-11.09332 z"
             style="font-family:Quicksand;-inkscape-font-specification:Quicksand;fill:#ffffff"
             id="path69" />
          <path
             d="m 466.77005,244.79776 c 0.42667,1.17334 1.54667,1.86667 2.72,1.86667 0.37333,0 0.74667,-0.0533 1.01333,-0.16 1.54667,-0.58667 2.29334,-2.29333 1.76,-3.84 l -11.78666,-31.41331 c -0.48,-1.17334 -1.6,-1.92 -2.82666,-1.86667 -1.17334,-0.0533 -2.34667,0.69333 -2.82667,1.86667 l -11.78666,31.41331 c -0.53333,1.54667 0.21334,3.25333 1.76,3.84 0.32,0.10667 0.64,0.16 1.01333,0.16 1.17334,0 2.29334,-0.69333 2.77334,-1.86667 l 2.61333,-6.93333 h 12.95999 z m -13.43999,-12.79999 4.32,-11.46666 4.32,11.46666 z"
             style="font-family:Quicksand;-inkscape-font-specification:Quicksand;fill:#ffffff"
             id="path71" />
          <path
             d="m 501.48995,233.43777 c 0,0 0,0 0,0 v -10.61333 c 0,-1.54666 -1.22666,-2.82666 -2.82666,-2.82666 -1.38667,0 -2.56,0.96 -2.82667,2.24 -1.91999,-1.38667 -4.37333,-2.24 -7.14666,-2.24 -3.52,0 -6.77333,1.54666 -9.06666,3.94666 -2.29333,2.50667 -3.73333,5.81333 -3.73333,9.49333 0,3.73333 1.44,7.04 3.73333,9.38666 2.29333,2.50667 5.54666,4.05333 9.06666,4.05333 0,0 0,0 0,0 2.61333,0 5.06667,-0.8 6.98666,-2.13333 -0.69333,3.25333 -3.51999,5.70666 -6.98666,5.70666 -1.12,0 -2.13333,-0.26666 -3.04,-0.74666 -1.49333,-0.64 -3.14666,-0.10667 -3.83999,1.33333 -0.74667,1.44 -0.10667,3.2 1.28,3.84 1.65333,0.85333 3.62666,1.33333 5.59999,1.33333 7.09333,0 12.79999,-5.81333 12.79999,-12.79999 v -9.92 c 0,0 0,-0.0533 0,-0.0533 z m -7.73332,5.49333 c -1.38667,1.44 -3.04,2.18667 -5.06667,2.18667 -1.86666,0 -3.62666,-0.74667 -4.90666,-2.18667 -1.28,-1.22667 -2.13333,-3.25333 -2.13333,-5.49333 0,-2.13333 0.85333,-4.16 2.13333,-5.44 1.28,-1.49333 3.04,-2.29333 4.90666,-2.29333 2.02667,0 3.68,0.8 5.06667,2.29333 1.17333,1.28 2.02666,3.30667 2.02666,5.44 0,2.24 -0.85333,4.26666 -2.02666,5.49333 z"
             style="font-family:Quicksand;-inkscape-font-specification:Quicksand;fill:#ffffff"
             id="path73" />
          <path
             d="m 534.66327,235.5711 v -12.74666 c 0,-1.49333 -1.38666,-2.82666 -2.88,-2.82666 -1.6,0 -2.77333,1.33333 -2.77333,2.82666 v 12.74666 c -0.0533,3.04 -2.50666,5.44 -5.6,5.44 -3.03999,0 -5.43999,-2.4 -5.43999,-5.44 v -12.74666 c 0,-1.49333 -1.22667,-2.82666 -2.82667,-2.82666 -1.54666,0 -2.82666,1.33333 -2.82666,2.82666 v 12.74666 c 0,6.08 5.01333,11.09333 11.09332,11.09333 6.13333,0 11.25333,-5.01333 11.25333,-11.09333 z"
             style="font-family:Quicksand;-inkscape-font-specification:Quicksand;fill:#ffffff"
             id="path75" />
          <path
             d="m 569.70317,233.38444 c 0,0 0,0 0,0 0,-0.0533 0,-0.0533 0,-0.0533 v -21.11998 c 0,-1.54667 -1.28,-2.88 -2.87999,-2.88 -1.65334,0 -2.93334,1.33333 -2.93334,2.88 v 10.02666 c -1.97333,-1.38667 -4.53333,-2.24 -7.14666,-2.24 -7.19999,0 -12.95999,6.07999 -12.95999,13.38666 0,7.19999 5.76,13.27999 12.95999,13.27999 2.66667,0 5.22666,-0.90667 7.25333,-2.29333 0.26667,1.28 1.38667,2.29333 2.82667,2.29333 1.59999,0 2.87999,-1.33333 2.87999,-2.88 z m -7.94666,-5.38667 c 1.33333,1.33334 2.13333,3.25333 2.13333,5.38667 0,2.02666 -0.8,3.94666 -2.13333,5.27999 -1.33333,1.38667 -3.04,2.18667 -5.01333,2.18667 -1.92,0 -3.68,-0.8 -5.01333,-2.18667 -1.33333,-1.33333 -2.13333,-3.25333 -2.13333,-5.27999 0,-2.13334 0.8,-4.05333 2.13333,-5.38667 1.33333,-1.38666 3.09333,-2.18666 5.01333,-2.18666 1.97333,0 3.68,0.8 5.01333,2.18666 z"
             style="font-family:Quicksand;-inkscape-font-specification:Quicksand;fill:#ffffff"
             id="path77" />
          <path
             d="m 603.30316,222.87778 c 0,-1.6 -1.28,-2.88 -2.82667,-2.88 -1.38666,0 -2.45333,1.01333 -2.77333,2.34666 -2.02667,-1.44 -4.42666,-2.34666 -7.09333,-2.34666 -3.62666,0 -6.77333,1.54666 -9.06666,4 -2.29333,2.39999 -3.62667,5.70666 -3.62667,9.38666 0,3.62666 1.33334,6.93333 3.62667,9.38666 2.29333,2.4 5.44,3.89333 9.06666,3.89333 0,0 0,0 0,0 2.66667,0 5.06666,-0.85333 7.09333,-2.29333 0.32,1.28 1.38667,2.29333 2.77333,2.29333 1.54667,0 2.82667,-1.28 2.82667,-2.82667 v -10.45332 c 0,0 0,0 0,0 0,0 0,0 0,0 z m -7.73333,15.99999 c -1.28,1.33333 -3.09333,2.08 -4.96,2.08 -1.92,0 -3.73333,-0.74667 -4.96,-2.08 -1.28,-1.38667 -2.02666,-3.30667 -2.02666,-5.49333 0,-2.24 0.74666,-4.16 2.02666,-5.49333 1.22667,-1.44 3.04,-2.18667 4.96,-2.18667 1.86667,0 3.68,0.74667 4.96,2.18667 1.28,1.33333 2.08,3.25333 2.08,5.49333 0,2.18666 -0.8,4.10666 -2.08,5.49333 z"
             style="font-family:Quicksand;-inkscape-font-specification:Quicksand;fill:#ffffff"
             id="path79" />
        </g>
        <g
           aria-label="De 2 a 4 semanas después de la infección Síntomas similares a la gripe Sumamente contagioso e indetectable"
           transform="matrix(0.26458333,0,0,0.26458333,-0.86391158,0.03466807)"
           id="text27480"
           style="font-size:40px;line-height:1.45;white-space:pre;shape-inside:url(#rect27482)">
          <path
             d="m 67.483516,272.06637 v -25.6 q 0,-1.2 1.2,-1.2 h 8.08 q 5.6,0 8.96,3.36 3.4,3.32 3.4,10.68 0,7.32 -3.4,10.64 -3.36,3.32 -8.96,3.32 h -8.08 q -1.2,0 -1.2,-1.2 z m 3.52,-1.84 h 5.48 q 4.04,0 6.52,-2.64 2.48,-2.64 2.48,-8.28 0,-5.68 -2.48,-8.32 -2.48,-2.68 -6.52,-2.68 h -5.48 z"
             style="font-family:Asap;-inkscape-font-specification:Asap;fill:#ffffff"
             id="path82" />
          <path
             d="m 103.4035,273.50637 q -4.999997,0 -7.399997,-2.6 -2.4,-2.6 -2.4,-7.92 0,-5.36 2.36,-8.12 2.36,-2.76 6.719997,-2.76 8.48,0 8.48,10.44 0,0.36 -0.48,1 -0.48,0.64 -0.84,0.64 H 97.203503 q 0.24,3.32 1.72,4.88 1.479997,1.56 4.439997,1.56 2.72,0 5,-1.28 0.76,-0.4 0.84,-0.4 0.4,0 0.88,0.8 0.52,0.8 0.52,1.2 0,0.8 -2.2,1.68 -2.16,0.88 -5,0.88 z m 4.2,-12.2 q 0,-6.32 -4.8,-6.32 -5.159997,0 -5.599997,6.32 z"
             style="font-family:Asap;-inkscape-font-specification:Asap;fill:#ffffff"
             id="path84" />
          <path
             d="m 125.40348,273.26637 q -0.32,0 -0.56,-0.56 -0.24,-0.56 -0.24,-1.12 0,-0.6 0.16,-0.76 1.72,-2.16 6.2,-7.72 4.48,-5.6 5.64,-7.4 1.2,-1.8 1.2,-3.68 0,-1.88 -1.36,-3 -1.32,-1.12 -3.28,-1.12 -1.96,0 -3.32,0.52 -1.32,0.52 -2.08,1.04 -0.76,0.48 -1,0.48 -0.24,0 -0.76,-0.76 -0.48,-0.8 -0.48,-1.24 0,-1.16 2.52,-2.04 2.56,-0.88 4.68,-0.88 3.92,0 6.2,1.84 2.32,1.8 2.32,4.96 0,2 -0.76,3.68 -0.72,1.64 -2.28,3.68 -1.52,2.04 -6.12,7.68 l -2.92,3.56 h 11.52 q 0.8,0 0.8,1.2 v 0.44 q 0,1.2 -0.8,1.2 z"
             style="font-family:Asap;-inkscape-font-specification:Asap;fill:#ffffff"
             id="path86" />
          <path
             d="m 168.80346,260.22637 v -1.88 q 0,-3.36 -4.4,-3.36 -2.88,0 -5.32,1.24 -0.84,0.44 -0.92,0.44 -0.4,0 -0.92,-0.8 -0.48,-0.8 -0.48,-1.2 0,-0.84 2.32,-1.68 2.36,-0.88 5.64,-0.88 3.28,0 5.36,1.68 2.08,1.64 2.08,4.6 v 8.96 q 0,2.4 0.2,3.48 0.28,1.48 0.28,1.56 0,0.48 -0.76,0.72 -0.76,0.2 -1.2,0.2 -0.4,0 -0.56,-0.08 -0.16,-0.08 -0.32,-0.28 -0.12,-0.2 -0.2,-0.36 -0.08,-0.2 -0.16,-0.52 -0.08,-0.32 -0.16,-0.48 -0.04,-0.2 -0.12,-0.56 -0.04,-0.4 -0.08,-0.52 -2.72,3 -6.72,3 -3.08,0 -4.96,-1.52 -1.88,-1.52 -1.88,-4.68 0,-3.16 2.16,-4.72 2.2,-1.6 4.92,-1.92 2.72,-0.36 6.2,-0.44 z m -9.68,7.08 q 0,3.28 3.4,3.28 1.96,0 3.36,-0.72 1.44,-0.72 2.92,-2.04 v -4.72 q -5,0 -6.44,0.56 -0.76,0.28 -1.6,0.72 -1.64,0.84 -1.64,2.92 z"
             style="font-family:Asap;-inkscape-font-specification:Asap;fill:#ffffff"
             id="path88" />
          <path
             d="m 186.64338,266.58637 q -0.32,0 -0.64,-0.72 -0.32,-0.72 -0.32,-1.2 0,-0.48 0.08,-0.56 l 13.16,-18.36 q 0.44,-0.56 1.36,-0.56 h 0.64 q 1.2,0 1.2,0.88 v 17.64 h 2.68 q 0.8,0 0.8,1.2 v 0.48 q 0,1.2 -0.8,1.2 h -2.68 v 5.88 q 0,0.88 -1.2,0.88 h -0.92 q -1.2,0 -1.2,-0.88 v -5.88 z m 12.16,-2.88 v -12.72 l -0.16,-0.08 -9,12.8 z"
             style="font-family:Asap;-inkscape-font-specification:Asap;fill:#ffffff"
             id="path90" />
          <path
             d="m 217.36336,271.10637 q 0,-0.4 0.48,-1.2 0.52,-0.8 0.92,-0.8 0.04,0 0.64,0.4 0.6,0.36 1.72,0.76 1.12,0.36 2.68,0.36 1.6,0 2.6,-0.88 1.04,-0.92 1.04,-2.44 0,-1.56 -0.92,-2.4 -0.88,-0.88 -3.56,-1.64 -2.68,-0.76 -3.88,-1.92 -1.2,-1.2 -1.2,-3.6 0,-2.4 1.84,-4 1.84,-1.64 4.8,-1.64 2.04,0 3.64,0.52 1.6,0.52 1.6,1.16 0,0.52 -0.48,1.36 -0.44,0.8 -0.8,0.8 -0.04,0 -0.52,-0.24 -1.36,-0.72 -3.08,-0.72 -1.68,0 -2.64,0.72 -0.92,0.68 -0.92,1.8 0,1.12 0.68,1.76 0.72,0.64 2.4,1.16 3.76,1.16 5.08,2.56 1.36,1.36 1.36,4.16 0,2.76 -2,4.56 -1.96,1.8 -4.72,1.8 -2.76,0 -4.76,-0.8 -2,-0.84 -2,-1.6 z"
             style="font-family:Asap;-inkscape-font-specification:Asap;fill:#ffffff"
             id="path92" />
          <path
             d="m 244.48329,273.50637 q -5,0 -7.4,-2.6 -2.4,-2.6 -2.4,-7.92 0,-5.36 2.36,-8.12 2.36,-2.76 6.72,-2.76 8.48,0 8.48,10.44 0,0.36 -0.48,1 -0.48,0.64 -0.84,0.64 h -12.64 q 0.24,3.32 1.72,4.88 1.48,1.56 4.44,1.56 2.72,0 5,-1.28 0.76,-0.4 0.84,-0.4 0.4,0 0.88,0.8 0.52,0.8 0.52,1.2 0,0.8 -2.2,1.68 -2.16,0.88 -5,0.88 z m 4.2,-12.2 q 0,-6.32 -4.8,-6.32 -5.16,0 -5.6,6.32 z"
             style="font-family:Asap;-inkscape-font-specification:Asap;fill:#ffffff"
             id="path94" />
          <path
             d="m 257.44327,272.46637 v -14.04 q 0,-2.44 -0.2,-3.48 -0.28,-1.44 -0.28,-1.56 0,-0.48 0.76,-0.68 0.76,-0.24 1.16,-0.24 0.44,0 0.6,0.08 0.16,0.08 0.28,0.28 0.16,0.16 0.24,0.36 0.08,0.16 0.16,0.48 0.08,0.28 0.12,0.48 0.08,0.16 0.12,0.52 0.08,0.32 0.12,0.44 2.6,-3 6.08,-3 4.36,0 5.72,3.32 2.8,-3.32 6.36,-3.32 2.28,0 4.08,1.16 1,0.68 1.6,2.04 0.6,1.36 0.6,3.28 v 13.88 q 0,0.88 -1.6,0.88 h -0.16 q -1.6,0 -1.6,-0.88 v -13.56 q 0,-1.8 -1,-2.84 -0.96,-1.04 -2.84,-1.04 -2.48,0 -4.92,2.76 0.04,0.28 0.04,0.84 v 13.84 q 0,0.88 -1.6,0.88 h -0.16 q -1.6,0 -1.6,-0.88 v -13.56 q 0,-1.8 -1,-2.84 -0.96,-1.04 -2.56,-1.04 -1.56,0 -2.8,0.68 -1.2,0.68 -1.76,1.4 l -0.6,0.68 v 14.68 q 0,0.88 -1.6,0.88 h -0.16 q -1.6,0 -1.6,-0.88 z"
             style="font-family:Asap;-inkscape-font-specification:Asap;fill:#ffffff"
             id="path96" />
          <path
             d="m 303.20326,260.22637 v -1.88 q 0,-3.36 -4.4,-3.36 -2.88,0 -5.32,1.24 -0.84,0.44 -0.92,0.44 -0.4,0 -0.92,-0.8 -0.48,-0.8 -0.48,-1.2 0,-0.84 2.32,-1.68 2.36,-0.88 5.64,-0.88 3.28,0 5.36,1.68 2.08,1.64 2.08,4.6 v 8.96 q 0,2.4 0.2,3.48 0.28,1.48 0.28,1.56 0,0.48 -0.76,0.72 -0.76,0.2 -1.2,0.2 -0.4,0 -0.56,-0.08 -0.16,-0.08 -0.32,-0.28 -0.12,-0.2 -0.2,-0.36 -0.08,-0.2 -0.16,-0.52 -0.08,-0.32 -0.16,-0.48 -0.04,-0.2 -0.12,-0.56 -0.04,-0.4 -0.08,-0.52 -2.72,3 -6.72,3 -3.08,0 -4.96,-1.52 -1.88,-1.52 -1.88,-4.68 0,-3.16 2.16,-4.72 2.2,-1.6 4.92,-1.92 2.72,-0.36 6.2,-0.44 z m -9.68,7.08 q 0,3.28 3.4,3.28 1.96,0 3.36,-0.72 1.44,-0.72 2.92,-2.04 v -4.72 q -5,0 -6.44,0.56 -0.76,0.28 -1.6,0.72 -1.64,0.84 -1.64,2.92 z"
             style="font-family:Asap;-inkscape-font-specification:Asap;fill:#ffffff"
             id="path98" />
          <path
             d="m 313.20318,272.46637 v -14.04 q 0,-2.44 -0.2,-3.48 -0.28,-1.44 -0.28,-1.56 0,-0.48 0.76,-0.68 0.76,-0.24 1.16,-0.24 0.44,0 0.6,0.08 0.16,0.08 0.28,0.28 0.16,0.16 0.24,0.36 0.08,0.16 0.16,0.48 0.08,0.28 0.12,0.48 0.08,0.16 0.12,0.52 0.08,0.32 0.12,0.44 2.68,-3 5.96,-3 3.32,0 5.04,1.72 1.76,1.72 1.76,4.76 v 13.88 q 0,0.88 -1.6,0.88 h -0.16 q -1.6,0 -1.6,-0.88 v -13.56 q 0,-1.84 -1.08,-2.84 -1.04,-1.04 -3,-1.04 -2.88,0 -5.04,2.8 v 14.64 q 0,0.88 -1.6,0.88 h -0.16 q -1.6,0 -1.6,-0.88 z"
             style="font-family:Asap;-inkscape-font-specification:Asap;fill:#ffffff"
             id="path100" />
          <path
             d="m 347.28315,260.22637 v -1.88 q 0,-3.36 -4.4,-3.36 -2.88,0 -5.32,1.24 -0.84,0.44 -0.92,0.44 -0.4,0 -0.92,-0.8 -0.48,-0.8 -0.48,-1.2 0,-0.84 2.32,-1.68 2.36,-0.88 5.64,-0.88 3.28,0 5.36,1.68 2.08,1.64 2.08,4.6 v 8.96 q 0,2.4 0.2,3.48 0.28,1.48 0.28,1.56 0,0.48 -0.76,0.72 -0.76,0.2 -1.2,0.2 -0.4,0 -0.56,-0.08 -0.16,-0.08 -0.32,-0.28 -0.12,-0.2 -0.2,-0.36 -0.08,-0.2 -0.16,-0.52 -0.08,-0.32 -0.16,-0.48 -0.04,-0.2 -0.12,-0.56 -0.04,-0.4 -0.08,-0.52 -2.72,3 -6.72,3 -3.08,0 -4.96,-1.52 -1.88,-1.52 -1.88,-4.68 0,-3.16 2.16,-4.72 2.2,-1.6 4.92,-1.92 2.72,-0.36 6.2,-0.44 z m -9.68,7.08 q 0,3.28 3.4,3.28 1.96,0 3.36,-0.72 1.44,-0.72 2.92,-2.04 v -4.72 q -5,0 -6.44,0.56 -0.76,0.28 -1.6,0.72 -1.64,0.84 -1.64,2.92 z"
             style="font-family:Asap;-inkscape-font-specification:Asap;fill:#ffffff"
             id="path102" />
          <path
             d="m 355.24308,271.10637 q 0,-0.4 0.48,-1.2 0.52,-0.8 0.92,-0.8 0.04,0 0.64,0.4 0.6,0.36 1.72,0.76 1.12,0.36 2.68,0.36 1.6,0 2.6,-0.88 1.04,-0.92 1.04,-2.44 0,-1.56 -0.92,-2.4 -0.88,-0.88 -3.56,-1.64 -2.68,-0.76 -3.88,-1.92 -1.2,-1.2 -1.2,-3.6 0,-2.4 1.84,-4 1.84,-1.64 4.8,-1.64 2.04,0 3.64,0.52 1.6,0.52 1.6,1.16 0,0.52 -0.48,1.36 -0.44,0.8 -0.8,0.8 -0.04,0 -0.52,-0.24 -1.36,-0.72 -3.08,-0.72 -1.68,0 -2.64,0.72 -0.92,0.68 -0.92,1.8 0,1.12 0.68,1.76 0.72,0.64 2.4,1.16 3.76,1.16 5.08,2.56 1.36,1.36 1.36,4.16 0,2.76 -2,4.56 -1.96,1.8 -4.72,1.8 -2.76,0 -4.76,-0.8 -2,-0.84 -2,-1.6 z"
             style="font-family:Asap;-inkscape-font-specification:Asap;fill:#ffffff"
             id="path104" />
          <path
             d="m 396.16301,270.50637 q -2.88,3 -6.4,3 -3.52,0 -5.64,-2.96 -2.08,-2.96 -2.08,-7.6 v -0.36 q 0,-4.92 2.24,-7.68 2.24,-2.8 5.6,-2.8 3.36,0 6,2.04 v -10.08 q 0,-0.88 1.6,-0.88 h 0.16 q 1.6,0 1.6,0.88 v 23.28 q 0,2.4 0.2,3.48 0.28,1.48 0.28,1.56 0,0.48 -0.76,0.72 -0.76,0.2 -1.2,0.2 -0.4,0 -0.56,-0.08 -0.16,-0.08 -0.32,-0.28 -0.12,-0.2 -0.2,-0.36 -0.08,-0.2 -0.16,-0.52 -0.08,-0.32 -0.16,-0.48 -0.04,-0.2 -0.12,-0.56 -0.04,-0.4 -0.08,-0.52 z m -10.6,-8 q 0,8.08 5.2,8.08 2.6,0 5.12,-2.76 v -10.96 q -2.16,-1.8 -4.84,-1.8 h -0.24 q -2.56,0.04 -3.92,1.96 -1.32,1.92 -1.32,5.48 z"
             style="font-family:Asap;-inkscape-font-specification:Asap;fill:#ffffff"
             id="path106" />
          <path
             d="m 414.56293,273.50637 q -5,0 -7.4,-2.6 -2.4,-2.6 -2.4,-7.92 0,-5.36 2.36,-8.12 2.36,-2.76 6.72,-2.76 8.48,0 8.48,10.44 0,0.36 -0.48,1 -0.48,0.64 -0.84,0.64 h -12.64 q 0.24,3.32 1.72,4.88 1.48,1.56 4.44,1.56 2.72,0 5,-1.28 0.76,-0.4 0.84,-0.4 0.4,0 0.88,0.8 0.52,0.8 0.52,1.2 0,0.8 -2.2,1.68 -2.16,0.88 -5,0.88 z m 4.2,-12.2 q 0,-6.32 -4.8,-6.32 -5.16,0 -5.6,6.32 z"
             style="font-family:Asap;-inkscape-font-specification:Asap;fill:#ffffff"
             id="path108" />
          <path
             d="m 425.52292,271.10637 q 0,-0.4 0.48,-1.2 0.52,-0.8 0.92,-0.8 0.04,0 0.64,0.4 0.6,0.36 1.72,0.76 1.12,0.36 2.68,0.36 1.6,0 2.6,-0.88 1.04,-0.92 1.04,-2.44 0,-1.56 -0.92,-2.4 -0.88,-0.88 -3.56,-1.64 -2.68,-0.76 -3.88,-1.92 -1.2,-1.2 -1.2,-3.6 0,-2.4 1.84,-4 1.84,-1.64 4.8,-1.64 2.04,0 3.64,0.52 1.6,0.52 1.6,1.16 0,0.52 -0.48,1.36 -0.44,0.8 -0.8,0.8 -0.04,0 -0.52,-0.24 -1.36,-0.72 -3.08,-0.72 -1.68,0 -2.64,0.72 -0.92,0.68 -0.92,1.8 0,1.12 0.68,1.76 0.72,0.64 2.4,1.16 3.76,1.16 5.08,2.56 1.36,1.36 1.36,4.16 0,2.76 -2,4.56 -1.96,1.8 -4.72,1.8 -2.76,0 -4.76,-0.8 -2,-0.84 -2,-1.6 z"
             style="font-family:Asap;-inkscape-font-specification:Asap;fill:#ffffff"
             id="path110" />
          <path
             d="m 447.44285,280.70637 q 0,0.88 -1.6,0.88 h -0.16 q -1.6,0 -1.6,-0.88 v -22.28 q 0,-2.44 -0.2,-3.48 -0.28,-1.44 -0.28,-1.56 0,-0.48 0.76,-0.68 0.76,-0.24 1.16,-0.24 0.44,0 0.6,0.08 0.16,0.08 0.28,0.28 0.16,0.16 0.24,0.36 0.08,0.16 0.16,0.48 0.08,0.28 0.12,0.48 0.08,0.16 0.12,0.52 0.08,0.32 0.12,0.44 2.88,-3 6.4,-3 3.52,0 5.6,2.96 2.12,2.96 2.12,7.6 v 0.36 q 0,4.92 -2.24,7.72 -2.24,2.76 -5.6,2.76 -3.36,0 -6,-2.04 z m 4.84,-10.16 h 0.24 q 2.56,-0.04 3.88,-1.96 1.36,-1.92 1.36,-5.64 0,-3.72 -1.28,-5.8 -1.28,-2.12 -3.92,-2.12 -2.6,0 -5.12,2.76 v 10.96 q 2.16,1.8 4.84,1.8 z"
             style="font-family:Asap;-inkscape-font-specification:Asap;fill:#ffffff"
             id="path112" />
          <path
             d="m 466.56287,267.02637 v -13.88 q 0,-0.88 1.6,-0.88 h 0.16 q 1.6,0 1.6,0.88 v 13.56 q 0,1.84 1.04,2.88 1.08,1 3.04,1 2.88,0 5.04,-2.8 v -14.64 q 0,-0.88 1.6,-0.88 h 0.16 q 1.6,0 1.6,0.88 v 14.2 q 0,2.4 0.2,3.48 0.28,1.48 0.28,1.56 0,0.48 -0.76,0.72 -0.76,0.2 -1.2,0.2 -0.4,0 -0.56,-0.08 -0.16,-0.08 -0.32,-0.28 -0.12,-0.2 -0.2,-0.36 -0.08,-0.2 -0.16,-0.52 -0.08,-0.32 -0.16,-0.48 -0.04,-0.2 -0.12,-0.56 -0.04,-0.4 -0.08,-0.52 -2.68,3 -6,3 -3.28,0 -5.04,-1.72 -1.72,-1.72 -1.72,-4.76 z"
             style="font-family:Asap;-inkscape-font-specification:Asap;fill:#ffffff"
             id="path114" />
          <path
             d="m 497.84283,273.50637 q -5,0 -7.4,-2.6 -2.4,-2.6 -2.4,-7.92 0,-5.36 2.36,-8.12 2.36,-2.76 6.72,-2.76 8.48,0 8.48,10.44 0,0.36 -0.48,1 -0.48,0.64 -0.84,0.64 h -12.64 q 0.24,3.32 1.72,4.88 1.48,1.56 4.44,1.56 2.72,0 5,-1.28 0.76,-0.4 0.84,-0.4 0.4,0 0.88,0.8 0.52,0.8 0.52,1.2 0,0.8 -2.2,1.68 -2.16,0.88 -5,0.88 z m 4.2,-12.2 q 0,-6.32 -4.8,-6.32 -5.16,0 -5.6,6.32 z m -0.32,-17.6 q 0,0.28 -0.4,0.76 -0.36,0.48 -1.56,1.84 -1.2,1.36 -1.84,2.08 -0.64,0.68 -1.8,0.68 -1.12,0 -1.12,-0.4 0,-0.4 2.32,-4.44 0.6,-1.04 2.48,-1.04 1.92,0 1.92,0.52 z"
             style="font-family:Asap;-inkscape-font-specification:Asap;fill:#ffffff"
             id="path116" />
          <path
             d="m 508.8028,271.10637 q 0,-0.4 0.48,-1.2 0.52,-0.8 0.92,-0.8 0.04,0 0.64,0.4 0.6,0.36 1.72,0.76 1.12,0.36 2.68,0.36 1.6,0 2.6,-0.88 1.04,-0.92 1.04,-2.44 0,-1.56 -0.92,-2.4 -0.88,-0.88 -3.56,-1.64 -2.68,-0.76 -3.88,-1.92 -1.2,-1.2 -1.2,-3.6 0,-2.4 1.84,-4 1.84,-1.64 4.8,-1.64 2.04,0 3.64,0.52 1.6,0.52 1.6,1.16 0,0.52 -0.48,1.36 -0.44,0.8 -0.8,0.8 -0.04,0 -0.52,-0.24 -1.36,-0.72 -3.08,-0.72 -1.68,0 -2.64,0.72 -0.92,0.68 -0.92,1.8 0,1.12 0.68,1.76 0.72,0.64 2.4,1.16 3.76,1.16 5.08,2.56 1.36,1.36 1.36,4.16 0,2.76 -2,4.56 -1.96,1.8 -4.72,1.8 -2.76,0 -4.76,-0.8 -2,-0.84 -2,-1.6 z"
             style="font-family:Asap;-inkscape-font-specification:Asap;fill:#ffffff"
             id="path118" />
          <path
             d="m 549.72271,270.50637 q -2.88,3 -6.4,3 -3.52,0 -5.64,-2.96 -2.08,-2.96 -2.08,-7.6 v -0.36 q 0,-4.92 2.24,-7.68 2.24,-2.8 5.6,-2.8 3.36,0 6,2.04 v -10.08 q 0,-0.88 1.6,-0.88 h 0.16 q 1.6,0 1.6,0.88 v 23.28 q 0,2.4 0.2,3.48 0.28,1.48 0.28,1.56 0,0.48 -0.76,0.72 -0.76,0.2 -1.2,0.2 -0.4,0 -0.56,-0.08 -0.16,-0.08 -0.32,-0.28 -0.12,-0.2 -0.2,-0.36 -0.08,-0.2 -0.16,-0.52 -0.08,-0.32 -0.16,-0.48 -0.04,-0.2 -0.12,-0.56 -0.04,-0.4 -0.08,-0.52 z m -10.6,-8 q 0,8.08 5.2,8.08 2.6,0 5.12,-2.76 v -10.96 q -2.16,-1.8 -4.84,-1.8 h -0.24 q -2.56,0.04 -3.92,1.96 -1.32,1.92 -1.32,5.48 z"
             style="font-family:Asap;-inkscape-font-specification:Asap;fill:#ffffff"
             id="path120" />
          <path
             d="m 568.12268,273.50637 q -5,0 -7.4,-2.6 -2.4,-2.6 -2.4,-7.92 0,-5.36 2.36,-8.12 2.36,-2.76 6.72,-2.76 8.48,0 8.48,10.44 0,0.36 -0.48,1 -0.48,0.64 -0.84,0.64 h -12.64 q 0.24,3.32 1.72,4.88 1.48,1.56 4.44,1.56 2.72,0 5,-1.28 0.76,-0.4 0.84,-0.4 0.4,0 0.88,0.8 0.52,0.8 0.52,1.2 0,0.8 -2.2,1.68 -2.16,0.88 -5,0.88 z m 4.2,-12.2 q 0,-6.32 -4.8,-6.32 -5.16,0 -5.6,6.32 z"
             style="font-family:Asap;-inkscape-font-specification:Asap;fill:#ffffff"
             id="path122" />
          <path
             d="m 66.883516,328.19608 v -23.92 q 0,-0.88 1.6,-0.88 h 0.16 q 1.6,0 1.6,0.88 v 23.6 q 0,2.96 2.16,2.96 0.68,0 1.16,-0.08 0.48,-0.12 0.56,-0.12 0.36,0 0.6,0.76 0.24,0.72 0.24,1.12 0,1.2 -2.92,1.2 -2,0 -3.6,-1.2 -1.56,-1.24 -1.56,-4.32 z"
             style="font-family:Asap;-inkscape-font-specification:Asap;fill:#ffffff"
             id="path124" />
          <path
             d="m 90.723475,320.43608 v -1.88 q 0,-3.36 -4.4,-3.36 -2.88,0 -5.32,1.24 -0.84,0.44 -0.92,0.44 -0.4,0 -0.92,-0.8 -0.48,-0.8 -0.48,-1.2 0,-0.84 2.32,-1.68 2.36,-0.88 5.64,-0.88 3.28,0 5.36,1.68 2.08,1.64 2.08,4.6 v 8.96 q 0,2.4 0.2,3.48 0.28,1.48 0.28,1.56 0,0.48 -0.76,0.72 -0.76,0.2 -1.2,0.2 -0.4,0 -0.56,-0.08 -0.16,-0.08 -0.32,-0.28 -0.12,-0.2 -0.2,-0.36 -0.08,-0.2 -0.16,-0.52 -0.08,-0.32 -0.16,-0.48 -0.04,-0.2 -0.12,-0.56 -0.04,-0.4 -0.08,-0.52 -2.72,3 -6.72,3 -3.08,0 -4.96,-1.52 -1.88,-1.52 -1.88,-4.68 0,-3.16 2.16,-4.72 2.2,-1.6 4.92,-1.92 2.72,-0.36 6.2,-0.44 z m -9.68,7.08 q 0,3.28 3.4,3.28 1.96,0 3.36,-0.72 1.44,-0.72 2.92,-2.04 v -4.72 q -5,0 -6.44,0.56 -0.76,0.28 -1.6,0.72 -1.64,0.84 -1.64,2.92 z"
             style="font-family:Asap;-inkscape-font-specification:Asap;fill:#ffffff"
             id="path126" />
          <path
             d="m 111.96339,307.51608 q -1.6,0 -1.6,-0.88 v -2.36 q 0,-0.88 1.6,-0.88 h 0.48 q 1.6,0 1.6,0.88 v 2.36 q 0,0.88 -1.6,0.88 z m -1.44,25.16 v -19.32 q 0,-0.88 1.6,-0.88 h 0.16 q 1.6,0 1.6,0.88 v 19.32 q 0,0.88 -1.6,0.88 h -0.16 q -1.6,0 -1.6,-0.88 z"
             style="font-family:Asap;-inkscape-font-specification:Asap;fill:#ffffff"
             id="path128" />
          <path
             d="m 120.92337,332.67608 v -14.04 q 0,-2.44 -0.2,-3.48 -0.28,-1.44 -0.28,-1.56 0,-0.48 0.76,-0.68 0.76,-0.24 1.16,-0.24 0.44,0 0.6,0.08 0.16,0.08 0.28,0.28 0.16,0.16 0.24,0.36 0.08,0.16 0.16,0.48 0.08,0.28 0.12,0.48 0.08,0.16 0.12,0.52 0.08,0.32 0.12,0.44 2.68,-3 5.96,-3 3.32,0 5.04,1.72 1.76,1.72 1.76,4.76 v 13.88 q 0,0.88 -1.6,0.88 h -0.16 q -1.6,0 -1.6,-0.88 v -13.56 q 0,-1.84 -1.08,-2.84 -1.04,-1.04 -3,-1.04 -2.88,0 -5.04,2.8 v 14.64 q 0,0.88 -1.6,0.88 h -0.16 q -1.6,0 -1.6,-0.88 z"
             style="font-family:Asap;-inkscape-font-specification:Asap;fill:#ffffff"
             id="path130" />
          <path
             d="m 144.08334,332.67608 v -17.24 h -1.6 q -0.8,0 -0.8,-1.2 v -0.48 q 0,-1.2 0.8,-1.2 h 1.6 v -3.8 q 0,-3.44 1.84,-4.56 1.56,-0.96 3.32,-0.96 2.92,0 2.92,1.2 0,0.4 -0.24,1.16 -0.24,0.72 -0.6,0.72 -0.08,0 -0.56,-0.08 -0.48,-0.12 -1.36,-0.12 -0.84,0 -1.4,0.6 -0.56,0.56 -0.56,2.36 v 3.48 h 3.48 q 0.8,0 0.8,1.2 v 0.48 q 0,1.2 -0.8,1.2 h -3.48 v 17.24 q 0,0.88 -1.6,0.88 h -0.16 q -1.6,0 -1.6,-0.88 z"
             style="font-family:Asap;-inkscape-font-specification:Asap;fill:#ffffff"
             id="path132" />
          <path
             d="m 164.76329,333.71608 q -5,0 -7.4,-2.6 -2.4,-2.6 -2.4,-7.92 0,-5.36 2.36,-8.12 2.36,-2.76 6.72,-2.76 8.48,0 8.48,10.44 0,0.36 -0.48,1 -0.48,0.64 -0.84,0.64 h -12.64 q 0.24,3.32 1.72,4.88 1.48,1.56 4.44,1.56 2.72,0 5,-1.28 0.76,-0.4 0.84,-0.4 0.4,0 0.88,0.8 0.52,0.8 0.52,1.2 0,0.8 -2.2,1.68 -2.16,0.88 -5,0.88 z m 4.2,-12.2 q 0,-6.32 -4.8,-6.32 -5.16,0 -5.6,6.32 z"
             style="font-family:Asap;-inkscape-font-specification:Asap;fill:#ffffff"
             id="path134" />
          <path
             d="m 176.40327,322.91608 q 0,-3 0.8,-5.16 0.84,-2.16 2.24,-3.32 2.64,-2.12 6.44,-2.12 2.32,0 4.16,0.56 1.84,0.56 1.84,1.28 0,0.52 -0.48,1.36 -0.44,0.8 -0.8,0.8 -0.04,0 -0.16,-0.04 -0.08,-0.04 -0.16,-0.04 -0.04,-0.04 -0.12,-0.08 -2.16,-0.96 -4.36,-0.96 -5.8,0 -5.8,7.64 0,4.24 1.4,6.12 1.44,1.88 4.8,1.88 2.44,0 4.52,-1.04 0.12,-0.04 0.24,-0.08 0.16,-0.08 0.2,-0.08 0.4,0 0.88,0.8 0.48,0.76 0.48,1.24 0,0.72 -1.88,1.4 -1.88,0.64 -4.4,0.64 -4.96,0 -7.4,-2.56 -2.44,-2.56 -2.44,-8.24 z"
             style="font-family:Asap;-inkscape-font-specification:Asap;fill:#ffffff"
             id="path136" />
          <path
             d="m 195.80322,322.91608 q 0,-3 0.8,-5.16 0.84,-2.16 2.24,-3.32 2.64,-2.12 6.44,-2.12 2.32,0 4.16,0.56 1.84,0.56 1.84,1.28 0,0.52 -0.48,1.36 -0.44,0.8 -0.8,0.8 -0.04,0 -0.16,-0.04 -0.08,-0.04 -0.16,-0.04 -0.04,-0.04 -0.12,-0.08 -2.16,-0.96 -4.36,-0.96 -5.8,0 -5.8,7.64 0,4.24 1.4,6.12 1.44,1.88 4.8,1.88 2.44,0 4.52,-1.04 0.12,-0.04 0.24,-0.08 0.16,-0.08 0.2,-0.08 0.4,0 0.88,0.8 0.48,0.76 0.48,1.24 0,0.72 -1.88,1.4 -1.88,0.64 -4.4,0.64 -4.96,0 -7.4,-2.56 -2.44,-2.56 -2.44,-8.24 z"
             style="font-family:Asap;-inkscape-font-specification:Asap;fill:#ffffff"
             id="path138" />
          <path
             d="m 218.20317,307.51608 q -1.6,0 -1.6,-0.88 v -2.36 q 0,-0.88 1.6,-0.88 h 0.48 q 1.6,0 1.6,0.88 v 2.36 q 0,0.88 -1.6,0.88 z m -1.44,25.16 v -19.32 q 0,-0.88 1.6,-0.88 h 0.16 q 1.6,0 1.6,0.88 v 19.32 q 0,0.88 -1.6,0.88 h -0.16 q -1.6,0 -1.6,-0.88 z"
             style="font-family:Asap;-inkscape-font-specification:Asap;fill:#ffffff"
             id="path140" />
          <path
             d="m 235.16314,333.71608 q -4.48,0 -6.88,-2.72 -2.36,-2.72 -2.36,-7.88 0,-5.2 2.4,-8 2.4,-2.8 6.84,-2.8 4.44,0 6.76,2.8 2.36,2.76 2.36,8 0,5.2 -2.32,7.92 -2.28,2.68 -6.8,2.68 z m -4.36,-4.76 q 1.36,1.88 4.28,1.88 2.92,0 4.32,-1.88 1.4,-1.92 1.4,-5.92 0,-4 -1.4,-5.92 -1.4,-1.92 -4.32,-1.92 -2.92,0 -4.28,1.92 -1.36,1.88 -1.36,5.92 0,4 1.36,5.92 z m 8.76,-25.04 q 0,0.28 -0.4,0.76 -0.36,0.48 -1.56,1.84 -1.2,1.36 -1.84,2.08 -0.6,0.68 -1.76,0.68 -1.16,0 -1.16,-0.4 0,-0.4 2.32,-4.44 0.6,-1.04 2.48,-1.04 1.92,0 1.92,0.52 z"
             style="font-family:Asap;-inkscape-font-specification:Asap;fill:#ffffff"
             id="path142" />
          <path
             d="m 249.92308,332.67608 v -14.04 q 0,-2.44 -0.2,-3.48 -0.28,-1.44 -0.28,-1.56 0,-0.48 0.76,-0.68 0.76,-0.24 1.16,-0.24 0.44,0 0.6,0.08 0.16,0.08 0.28,0.28 0.16,0.16 0.24,0.36 0.08,0.16 0.16,0.48 0.08,0.28 0.12,0.48 0.08,0.16 0.12,0.52 0.08,0.32 0.12,0.44 2.68,-3 5.96,-3 3.32,0 5.04,1.72 1.76,1.72 1.76,4.76 v 13.88 q 0,0.88 -1.6,0.88 h -0.16 q -1.6,0 -1.6,-0.88 v -13.56 q 0,-1.84 -1.08,-2.84 -1.04,-1.04 -3,-1.04 -2.88,0 -5.04,2.8 v 14.64 q 0,0.88 -1.6,0.88 h -0.16 q -1.6,0 -1.6,-0.88 z"
             style="font-family:Asap;-inkscape-font-specification:Asap;fill:#ffffff"
             id="path144" />
          <path
             d="m 65.083516,391.0058 q 0,-0.48 0.52,-1.32 0.56,-0.84 0.88,-0.84 0.12,0 1,0.52 0.88,0.48 2.48,1 1.6,0.52 3.64,0.52 2.08,0 3.52,-1.32 1.48,-1.32 1.48,-3.36 0,-2.04 -1.36,-3.24 -1.32,-1.2 -3.24,-1.88 -1.88,-0.72 -3.8,-1.52 -1.92,-0.8 -3.28,-2.48 -1.32,-1.68 -1.32,-4.28 0,-3.32 2.44,-5.32 2.44,-2.04 6.44,-2.04 1.96,0 4.2,0.72 2.24,0.72 2.24,1.72 0,0.44 -0.52,1.28 -0.48,0.84 -0.76,0.84 -0.16,0 -0.84,-0.4 -2.04,-1.12 -4.4,-1.12 -2.36,0 -3.76,1.16 -1.4,1.12 -1.4,3.32 0,2.2 2.6,3.44 1.12,0.52 2.52,1.04 1.4,0.48 2.76,1.16 1.4,0.64 2.52,1.52 1.16,0.88 1.88,2.4 0.72,1.52 0.72,3.52 0,3.68 -2.4,5.8 -2.4,2.08 -6.08,2.08 -3.68,0 -6.2,-1 -2.48,-1 -2.48,-1.92 z"
             style="font-family:Asap;-inkscape-font-specification:Asap;fill:#ffffff"
             id="path146" />
          <path
             d="m 87.243439,392.8858 v -19.32 q 0,-0.88 1.6,-0.88 h 0.16 q 1.6,0 1.6,0.88 v 19.32 q 0,0.88 -1.6,0.88 h -0.16 q -1.6,0 -1.6,-0.88 z m 6.2,-28.76 q 0,0.28 -0.4,0.76 -0.36,0.48 -1.56,1.84 -1.2,1.36 -1.84,2.08 -0.6,0.68 -1.76,0.68 -1.16,0 -1.16,-0.4 0,-0.4 2.32,-4.44 0.6,-1.04 2.48,-1.04 1.92,0 1.92,0.52 z"
             style="font-family:Asap;-inkscape-font-specification:Asap;fill:#ffffff"
             id="path148" />
          <path
             d="m 97.643415,392.8858 v -14.04 q 0,-2.44 -0.2,-3.48 -0.28,-1.44 -0.28,-1.56 0,-0.48 0.76,-0.68 0.76,-0.24 1.16,-0.24 0.44,0 0.6,0.08 0.16,0.08 0.28,0.28 0.159995,0.16 0.239995,0.36 0.08,0.16 0.16,0.48 0.08,0.28 0.12,0.48 0.08,0.16 0.12,0.52 0.08,0.32 0.12,0.44 2.68,-3 5.96,-3 3.32,0 5.04,1.72 1.76,1.72 1.76,4.76 v 13.88 q 0,0.88 -1.6,0.88 h -0.16 q -1.6,0 -1.6,-0.88 v -13.56 q 0,-1.84 -1.08,-2.84 -1.04,-1.04 -3,-1.04 -2.88,0 -5.04,2.8 v 14.64 q 0,0.88 -1.599995,0.88 h -0.16 q -1.6,0 -1.6,-0.88 z"
             style="font-family:Asap;-inkscape-font-specification:Asap;fill:#ffffff"
             id="path150" />
          <path
             d="m 120.76338,388.4058 v -12.76 h -2 q -0.8,0 -0.8,-1.2 v -0.48 q 0,-1.2 0.8,-1.2 h 2 l 0.48,-4.2 q 0.08,-0.88 1.28,-0.88 h 0.4 q 1.2,0 1.2,0.88 v 4.2 h 3.36 q 0.8,0 0.8,1.2 v 0.48 q 0,1.2 -0.8,1.2 h -3.36 v 12.44 q 0,2.96 2.16,2.96 0.68,0 1.16,-0.08 0.48,-0.12 0.56,-0.12 0.36,0 0.6,0.76 0.24,0.72 0.24,1.12 0,1.2 -2.92,1.2 -2,0 -3.6,-1.2 -1.56,-1.24 -1.56,-4.32 z"
             style="font-family:Asap;-inkscape-font-specification:Asap;fill:#ffffff"
             id="path152" />
          <path
             d="m 141.60335,393.9258 q -4.48,0 -6.88,-2.72 -2.36,-2.72 -2.36,-7.88 0,-5.2 2.4,-8 2.4,-2.8 6.84,-2.8 4.44,0 6.76,2.8 2.36,2.76 2.36,8 0,5.2 -2.32,7.92 -2.28,2.68 -6.8,2.68 z m -4.36,-4.76 q 1.36,1.88 4.28,1.88 2.92,0 4.32,-1.88 1.4,-1.92 1.4,-5.92 0,-4 -1.4,-5.92 -1.4,-1.92 -4.32,-1.92 -2.92,0 -4.28,1.92 -1.36,1.88 -1.36,5.92 0,4 1.36,5.92 z"
             style="font-family:Asap;-inkscape-font-specification:Asap;fill:#ffffff"
             id="path154" />
          <path
             d="m 156.32328,392.8858 v -14.04 q 0,-2.44 -0.2,-3.48 -0.28,-1.44 -0.28,-1.56 0,-0.48 0.76,-0.68 0.76,-0.24 1.16,-0.24 0.44,0 0.6,0.08 0.16,0.08 0.28,0.28 0.16,0.16 0.24,0.36 0.08,0.16 0.16,0.48 0.08,0.28 0.12,0.48 0.08,0.16 0.12,0.52 0.08,0.32 0.12,0.44 2.6,-3 6.08,-3 4.36,0 5.72,3.32 2.8,-3.32 6.36,-3.32 2.28,0 4.08,1.16 1,0.68 1.6,2.04 0.6,1.36 0.6,3.28 v 13.88 q 0,0.88 -1.6,0.88 h -0.16 q -1.6,0 -1.6,-0.88 v -13.56 q 0,-1.8 -1,-2.84 -0.96,-1.04 -2.84,-1.04 -2.48,0 -4.92,2.76 0.04,0.28 0.04,0.84 v 13.84 q 0,0.88 -1.6,0.88 h -0.16 q -1.6,0 -1.6,-0.88 v -13.56 q 0,-1.8 -1,-2.84 -0.96,-1.04 -2.56,-1.04 -1.56,0 -2.8,0.68 -1.2,0.68 -1.76,1.4 l -0.6,0.68 v 14.68 q 0,0.88 -1.6,0.88 h -0.16 q -1.6,0 -1.6,-0.88 z"
             style="font-family:Asap;-inkscape-font-specification:Asap;fill:#ffffff"
             id="path156" />
          <path
             d="m 202.08326,380.6458 v -1.88 q 0,-3.36 -4.4,-3.36 -2.88,0 -5.32,1.24 -0.84,0.44 -0.92,0.44 -0.4,0 -0.92,-0.8 -0.48,-0.8 -0.48,-1.2 0,-0.84 2.32,-1.68 2.36,-0.88 5.64,-0.88 3.28,0 5.36,1.68 2.08,1.64 2.08,4.6 v 8.96 q 0,2.4 0.2,3.48 0.28,1.48 0.28,1.56 0,0.48 -0.76,0.72 -0.76,0.2 -1.2,0.2 -0.4,0 -0.56,-0.08 -0.16,-0.08 -0.32,-0.28 -0.12,-0.2 -0.2,-0.36 -0.08,-0.2 -0.16,-0.52 -0.08,-0.32 -0.16,-0.48 -0.04,-0.2 -0.12,-0.56 -0.04,-0.4 -0.08,-0.52 -2.72,3 -6.72,3 -3.08,0 -4.96,-1.52 -1.88,-1.52 -1.88,-4.68 0,-3.16 2.16,-4.72 2.2,-1.6 4.92,-1.92 2.72,-0.36 6.2,-0.44 z m -9.68,7.08 q 0,3.28 3.4,3.28 1.96,0 3.36,-0.72 1.44,-0.72 2.92,-2.04 v -4.72 q -5,0 -6.44,0.56 -0.76,0.28 -1.6,0.72 -1.64,0.84 -1.64,2.92 z"
             style="font-family:Asap;-inkscape-font-specification:Asap;fill:#ffffff"
             id="path158" />
          <path
             d="m 210.04319,391.5258 q 0,-0.4 0.48,-1.2 0.52,-0.8 0.92,-0.8 0.04,0 0.64,0.4 0.6,0.36 1.72,0.76 1.12,0.36 2.68,0.36 1.6,0 2.6,-0.88 1.04,-0.92 1.04,-2.44 0,-1.56 -0.92,-2.4 -0.88,-0.88 -3.56,-1.64 -2.68,-0.76 -3.88,-1.92 -1.2,-1.2 -1.2,-3.6 0,-2.4 1.84,-4 1.84,-1.64 4.8,-1.64 2.04,0 3.64,0.52 1.6,0.52 1.6,1.16 0,0.52 -0.48,1.36 -0.44,0.8 -0.8,0.8 -0.04,0 -0.52,-0.24 -1.36,-0.72 -3.08,-0.72 -1.68,0 -2.64,0.72 -0.92,0.68 -0.92,1.8 0,1.12 0.68,1.76 0.72,0.64 2.4,1.16 3.76,1.16 5.08,2.56 1.36,1.36 1.36,4.16 0,2.76 -2,4.56 -1.96,1.8 -4.72,1.8 -2.76,0 -4.76,-0.8 -2,-0.84 -2,-1.6 z"
             style="font-family:Asap;-inkscape-font-specification:Asap;fill:#ffffff"
             id="path160" />
          <path
             d="m 236.16311,391.5258 q 0,-0.4 0.48,-1.2 0.52,-0.8 0.92,-0.8 0.04,0 0.64,0.4 0.6,0.36 1.72,0.76 1.12,0.36 2.68,0.36 1.6,0 2.6,-0.88 1.04,-0.92 1.04,-2.44 0,-1.56 -0.92,-2.4 -0.88,-0.88 -3.56,-1.64 -2.68,-0.76 -3.88,-1.92 -1.2,-1.2 -1.2,-3.6 0,-2.4 1.84,-4 1.84,-1.64 4.8,-1.64 2.04,0 3.64,0.52 1.6,0.52 1.6,1.16 0,0.52 -0.48,1.36 -0.44,0.8 -0.8,0.8 -0.04,0 -0.52,-0.24 -1.36,-0.72 -3.08,-0.72 -1.68,0 -2.64,0.72 -0.92,0.68 -0.92,1.8 0,1.12 0.68,1.76 0.72,0.64 2.4,1.16 3.76,1.16 5.08,2.56 1.36,1.36 1.36,4.16 0,2.76 -2,4.56 -1.96,1.8 -4.72,1.8 -2.76,0 -4.76,-0.8 -2,-0.84 -2,-1.6 z"
             style="font-family:Asap;-inkscape-font-specification:Asap;fill:#ffffff"
             id="path162" />
          <path
             d="m 256.36304,367.7258 q -1.6,0 -1.6,-0.88 v -2.36 q 0,-0.88 1.6,-0.88 h 0.48 q 1.6,0 1.6,0.88 v 2.36 q 0,0.88 -1.6,0.88 z m -1.44,25.16 v -19.32 q 0,-0.88 1.6,-0.88 h 0.16 q 1.6,0 1.6,0.88 v 19.32 q 0,0.88 -1.6,0.88 h -0.16 q -1.6,0 -1.6,-0.88 z"
             style="font-family:Asap;-inkscape-font-specification:Asap;fill:#ffffff"
             id="path164" />
          <path
             d="m 265.28301,392.8858 v -14.04 q 0,-2.44 -0.2,-3.48 -0.28,-1.44 -0.28,-1.56 0,-0.48 0.76,-0.68 0.76,-0.24 1.16,-0.24 0.44,0 0.6,0.08 0.16,0.08 0.28,0.28 0.16,0.16 0.24,0.36 0.08,0.16 0.16,0.48 0.08,0.28 0.12,0.48 0.08,0.16 0.12,0.52 0.08,0.32 0.12,0.44 2.6,-3 6.08,-3 4.36,0 5.72,3.32 2.8,-3.32 6.36,-3.32 2.28,0 4.08,1.16 1,0.68 1.6,2.04 0.6,1.36 0.6,3.28 v 13.88 q 0,0.88 -1.6,0.88 h -0.16 q -1.6,0 -1.6,-0.88 v -13.56 q 0,-1.8 -1,-2.84 -0.96,-1.04 -2.84,-1.04 -2.48,0 -4.92,2.76 0.04,0.28 0.04,0.84 v 13.84 q 0,0.88 -1.6,0.88 h -0.16 q -1.6,0 -1.6,-0.88 v -13.56 q 0,-1.8 -1,-2.84 -0.96,-1.04 -2.56,-1.04 -1.56,0 -2.8,0.68 -1.2,0.68 -1.76,1.4 l -0.6,0.68 v 14.68 q 0,0.88 -1.6,0.88 h -0.16 q -1.6,0 -1.6,-0.88 z"
             style="font-family:Asap;-inkscape-font-specification:Asap;fill:#ffffff"
             id="path166" />
          <path
             d="m 300.88299,367.7258 q -1.6,0 -1.6,-0.88 v -2.36 q 0,-0.88 1.6,-0.88 h 0.48 q 1.6,0 1.6,0.88 v 2.36 q 0,0.88 -1.6,0.88 z m -1.44,25.16 v -19.32 q 0,-0.88 1.6,-0.88 h 0.16 q 1.6,0 1.6,0.88 v 19.32 q 0,0.88 -1.6,0.88 h -0.16 q -1.6,0 -1.6,-0.88 z"
             style="font-family:Asap;-inkscape-font-specification:Asap;fill:#ffffff"
             id="path168" />
          <path
             d="m 309.68297,388.4058 v -23.92 q 0,-0.88 1.6,-0.88 h 0.16 q 1.6,0 1.6,0.88 v 23.6 q 0,2.96 2.16,2.96 0.68,0 1.16,-0.08 0.48,-0.12 0.56,-0.12 0.36,0 0.6,0.76 0.24,0.72 0.24,1.12 0,1.2 -2.92,1.2 -2,0 -3.6,-1.2 -1.56,-1.24 -1.56,-4.32 z"
             style="font-family:Asap;-inkscape-font-specification:Asap;fill:#ffffff"
             id="path170" />
          <path
             d="m 333.52293,380.6458 v -1.88 q 0,-3.36 -4.4,-3.36 -2.88,0 -5.32,1.24 -0.84,0.44 -0.92,0.44 -0.4,0 -0.92,-0.8 -0.48,-0.8 -0.48,-1.2 0,-0.84 2.32,-1.68 2.36,-0.88 5.64,-0.88 3.28,0 5.36,1.68 2.08,1.64 2.08,4.6 v 8.96 q 0,2.4 0.2,3.48 0.28,1.48 0.28,1.56 0,0.48 -0.76,0.72 -0.76,0.2 -1.2,0.2 -0.4,0 -0.56,-0.08 -0.16,-0.08 -0.32,-0.28 -0.12,-0.2 -0.2,-0.36 -0.08,-0.2 -0.16,-0.52 -0.08,-0.32 -0.16,-0.48 -0.04,-0.2 -0.12,-0.56 -0.04,-0.4 -0.08,-0.52 -2.72,3 -6.72,3 -3.08,0 -4.96,-1.52 -1.88,-1.52 -1.88,-4.68 0,-3.16 2.16,-4.72 2.2,-1.6 4.92,-1.92 2.72,-0.36 6.2,-0.44 z m -9.68,7.08 q 0,3.28 3.4,3.28 1.96,0 3.36,-0.72 1.44,-0.72 2.92,-2.04 v -4.72 q -5,0 -6.44,0.56 -0.76,0.28 -1.6,0.72 -1.64,0.84 -1.64,2.92 z"
             style="font-family:Asap;-inkscape-font-specification:Asap;fill:#ffffff"
             id="path172" />
          <path
             d="m 343.68286,392.8858 v -14.04 q 0,-2.44 -0.2,-3.48 -0.28,-1.44 -0.28,-1.56 0,-0.48 0.76,-0.68 0.76,-0.24 1.16,-0.24 0.44,0 0.6,0.08 0.16,0.08 0.28,0.28 0.16,0.16 0.24,0.36 0.08,0.16 0.16,0.48 0.08,0.28 0.12,0.48 0.08,0.16 0.12,0.52 0.08,0.32 0.12,0.44 2.12,-3 4.64,-3 1.12,0 1.72,0.44 0.6,0.44 0.6,1.12 0,0.68 -0.24,1.44 -0.24,0.72 -0.56,0.72 -0.16,0 -0.8,-0.2 -0.6,-0.24 -1.48,-0.24 -0.84,0 -1.76,0.64 -0.92,0.6 -1.36,1.2 l -0.48,0.6 v 14.64 q 0,0.88 -1.6,0.88 h -0.16 q -1.6,0 -1.6,-0.88 z"
             style="font-family:Asap;-inkscape-font-specification:Asap;fill:#ffffff"
             id="path174" />
          <path
             d="m 366.72284,393.9258 q -5,0 -7.4,-2.6 -2.4,-2.6 -2.4,-7.92 0,-5.36 2.36,-8.12 2.36,-2.76 6.72,-2.76 8.48,0 8.48,10.44 0,0.36 -0.48,1 -0.48,0.64 -0.84,0.64 h -12.64 q 0.24,3.32 1.72,4.88 1.48,1.56 4.44,1.56 2.72,0 5,-1.28 0.76,-0.4 0.84,-0.4 0.4,0 0.88,0.8 0.52,0.8 0.52,1.2 0,0.8 -2.2,1.68 -2.16,0.88 -5,0.88 z m 4.2,-12.2 q 0,-6.32 -4.8,-6.32 -5.16,0 -5.6,6.32 z"
             style="font-family:Asap;-inkscape-font-specification:Asap;fill:#ffffff"
             id="path176" />
          <path
             d="m 377.68281,391.5258 q 0,-0.4 0.48,-1.2 0.52,-0.8 0.92,-0.8 0.04,0 0.64,0.4 0.6,0.36 1.72,0.76 1.12,0.36 2.68,0.36 1.6,0 2.6,-0.88 1.04,-0.92 1.04,-2.44 0,-1.56 -0.92,-2.4 -0.88,-0.88 -3.56,-1.64 -2.68,-0.76 -3.88,-1.92 -1.2,-1.2 -1.2,-3.6 0,-2.4 1.84,-4 1.84,-1.64 4.8,-1.64 2.04,0 3.64,0.52 1.6,0.52 1.6,1.16 0,0.52 -0.48,1.36 -0.44,0.8 -0.8,0.8 -0.04,0 -0.52,-0.24 -1.36,-0.72 -3.08,-0.72 -1.68,0 -2.64,0.72 -0.92,0.68 -0.92,1.8 0,1.12 0.68,1.76 0.72,0.64 2.4,1.16 3.76,1.16 5.08,2.56 1.36,1.36 1.36,4.16 0,2.76 -2,4.56 -1.96,1.8 -4.72,1.8 -2.76,0 -4.76,-0.8 -2,-0.84 -2,-1.6 z"
             style="font-family:Asap;-inkscape-font-specification:Asap;fill:#ffffff"
             id="path178" />
          <path
             d="m 417.64271,380.6458 v -1.88 q 0,-3.36 -4.4,-3.36 -2.88,0 -5.32,1.24 -0.84,0.44 -0.92,0.44 -0.4,0 -0.92,-0.8 -0.48,-0.8 -0.48,-1.2 0,-0.84 2.32,-1.68 2.36,-0.88 5.64,-0.88 3.28,0 5.36,1.68 2.08,1.64 2.08,4.6 v 8.96 q 0,2.4 0.2,3.48 0.28,1.48 0.28,1.56 0,0.48 -0.76,0.72 -0.76,0.2 -1.2,0.2 -0.4,0 -0.56,-0.08 -0.16,-0.08 -0.32,-0.28 -0.12,-0.2 -0.2,-0.36 -0.08,-0.2 -0.16,-0.52 -0.08,-0.32 -0.16,-0.48 -0.04,-0.2 -0.12,-0.56 -0.04,-0.4 -0.08,-0.52 -2.72,3 -6.72,3 -3.08,0 -4.96,-1.52 -1.88,-1.52 -1.88,-4.68 0,-3.16 2.16,-4.72 2.2,-1.6 4.92,-1.92 2.72,-0.36 6.2,-0.44 z m -9.68,7.08 q 0,3.28 3.4,3.28 1.96,0 3.36,-0.72 1.44,-0.72 2.92,-2.04 v -4.72 q -5,0 -6.44,0.56 -0.76,0.28 -1.6,0.72 -1.64,0.84 -1.64,2.92 z"
             style="font-family:Asap;-inkscape-font-specification:Asap;fill:#ffffff"
             id="path180" />
          <path
             d="m 437.08264,388.4058 v -23.92 q 0,-0.88 1.6,-0.88 h 0.16 q 1.6,0 1.6,0.88 v 23.6 q 0,2.96 2.16,2.96 0.68,0 1.16,-0.08 0.48,-0.12 0.56,-0.12 0.36,0 0.6,0.76 0.24,0.72 0.24,1.12 0,1.2 -2.92,1.2 -2,0 -3.6,-1.2 -1.56,-1.24 -1.56,-4.32 z"
             style="font-family:Asap;-inkscape-font-specification:Asap;fill:#ffffff"
             id="path182" />
          <path
             d="m 460.92262,380.6458 v -1.88 q 0,-3.36 -4.4,-3.36 -2.88,0 -5.32,1.24 -0.84,0.44 -0.92,0.44 -0.4,0 -0.92,-0.8 -0.48,-0.8 -0.48,-1.2 0,-0.84 2.32,-1.68 2.36,-0.88 5.64,-0.88 3.28,0 5.36,1.68 2.08,1.64 2.08,4.6 v 8.96 q 0,2.4 0.2,3.48 0.28,1.48 0.28,1.56 0,0.48 -0.76,0.72 -0.76,0.2 -1.2,0.2 -0.4,0 -0.56,-0.08 -0.16,-0.08 -0.32,-0.28 -0.12,-0.2 -0.2,-0.36 -0.08,-0.2 -0.16,-0.52 -0.08,-0.32 -0.16,-0.48 -0.04,-0.2 -0.12,-0.56 -0.04,-0.4 -0.08,-0.52 -2.72,3 -6.72,3 -3.08,0 -4.96,-1.52 -1.88,-1.52 -1.88,-4.68 0,-3.16 2.16,-4.72 2.2,-1.6 4.92,-1.92 2.72,-0.36 6.2,-0.44 z m -9.68,7.08 q 0,3.28 3.4,3.28 1.96,0 3.36,-0.72 1.44,-0.72 2.92,-2.04 v -4.72 q -5,0 -6.44,0.56 -0.76,0.28 -1.6,0.72 -1.64,0.84 -1.64,2.92 z"
             style="font-family:Asap;-inkscape-font-specification:Asap;fill:#ffffff"
             id="path184" />
          <path
             d="m 478.44252,396.9258 q 0,-3.28 4.52,-4.88 -2.56,-1.08 -2.56,-3.32 0,-2.28 3.04,-3.32 -1.76,-0.84 -2.72,-2.4 -0.92,-1.6 -0.92,-3.56 0,-3 2.08,-4.96 2.12,-1.96 5.92,-1.96 1.44,0 2.64,0.24 h 6.88 q 0.8,0 0.8,1.2 v 0.48 q 0,1.2 -0.8,1.2 h -2.8 q 1.32,1.6 1.32,3.8 0,2.96 -2.12,4.92 -2.12,1.96 -5.92,1.96 h -0.4 q -3.44,0.16 -3.44,1.68 0,0.84 1.4,1.28 1.4,0.4 3.36,0.64 2,0.24 3.96,0.68 2,0.44 3.4,1.8 1.4,1.32 1.4,3.48 0,2.72 -2.68,4.48 -2.64,1.8 -7.16,1.8 -4.48,0 -6.84,-1.2 -2.36,-1.16 -2.36,-4.04 z m 4.88,-17.48 q 0,4 4.48,4 4.52,0 4.52,-4 0,-4.04 -4.52,-4.04 -4.48,0 -4.48,4.04 z m -1.4,17.12 q 0,2.72 6,2.72 2.68,0 4.32,-0.92 1.68,-0.92 1.68,-2.28 0,-1.08 -0.92,-1.6 -1.52,-0.84 -5.44,-1.36 -1.04,-0.16 -1.64,-0.28 -1.56,0.6 -2.8,1.56 -1.2,0.96 -1.2,2.16 z"
             style="font-family:Asap;-inkscape-font-specification:Asap;fill:#ffffff"
             id="path186" />
          <path
             d="m 502.52249,392.8858 v -14.04 q 0,-2.44 -0.2,-3.48 -0.28,-1.44 -0.28,-1.56 0,-0.48 0.76,-0.68 0.76,-0.24 1.16,-0.24 0.44,0 0.6,0.08 0.16,0.08 0.28,0.28 0.16,0.16 0.24,0.36 0.08,0.16 0.16,0.48 0.08,0.28 0.12,0.48 0.08,0.16 0.12,0.52 0.08,0.32 0.12,0.44 2.12,-3 4.64,-3 1.12,0 1.72,0.44 0.6,0.44 0.6,1.12 0,0.68 -0.24,1.44 -0.24,0.72 -0.56,0.72 -0.16,0 -0.8,-0.2 -0.6,-0.24 -1.48,-0.24 -0.84,0 -1.76,0.64 -0.92,0.6 -1.36,1.2 l -0.48,0.6 v 14.64 q 0,0.88 -1.6,0.88 h -0.16 q -1.6,0 -1.6,-0.88 z"
             style="font-family:Asap;-inkscape-font-specification:Asap;fill:#ffffff"
             id="path188" />
          <path
             d="m 518.64247,367.7258 q -1.6,0 -1.6,-0.88 v -2.36 q 0,-0.88 1.6,-0.88 h 0.48 q 1.6,0 1.6,0.88 v 2.36 q 0,0.88 -1.6,0.88 z m -1.44,25.16 v -19.32 q 0,-0.88 1.6,-0.88 h 0.16 q 1.6,0 1.6,0.88 v 19.32 q 0,0.88 -1.6,0.88 h -0.16 q -1.6,0 -1.6,-0.88 z"
             style="font-family:Asap;-inkscape-font-specification:Asap;fill:#ffffff"
             id="path190" />
          <path
             d="m 530.96245,401.1258 q 0,0.88 -1.6,0.88 h -0.16 q -1.6,0 -1.6,-0.88 v -22.28 q 0,-2.44 -0.2,-3.48 -0.28,-1.44 -0.28,-1.56 0,-0.48 0.76,-0.68 0.76,-0.24 1.16,-0.24 0.44,0 0.6,0.08 0.16,0.08 0.28,0.28 0.16,0.16 0.24,0.36 0.08,0.16 0.16,0.48 0.08,0.28 0.12,0.48 0.08,0.16 0.12,0.52 0.08,0.32 0.12,0.44 2.88,-3 6.4,-3 3.52,0 5.6,2.96 2.12,2.96 2.12,7.6 v 0.36 q 0,4.92 -2.24,7.72 -2.24,2.76 -5.6,2.76 -3.36,0 -6,-2.04 z m 4.84,-10.16 h 0.24 q 2.56,-0.04 3.88,-1.96 1.36,-1.92 1.36,-5.64 0,-3.72 -1.28,-5.8 -1.28,-2.12 -3.92,-2.12 -2.6,0 -5.12,2.76 v 10.96 q 2.16,1.8 4.84,1.8 z"
             style="font-family:Asap;-inkscape-font-specification:Asap;fill:#ffffff"
             id="path192" />
          <path
             d="m 559.08246,393.9258 q -5,0 -7.4,-2.6 -2.4,-2.6 -2.4,-7.92 0,-5.36 2.36,-8.12 2.36,-2.76 6.72,-2.76 8.48,0 8.48,10.44 0,0.36 -0.48,1 -0.48,0.64 -0.84,0.64 h -12.64 q 0.24,3.32 1.72,4.88 1.48,1.56 4.44,1.56 2.72,0 5,-1.28 0.76,-0.4 0.84,-0.4 0.4,0 0.88,0.8 0.52,0.8 0.52,1.2 0,0.8 -2.2,1.68 -2.16,0.88 -5,0.88 z m 4.2,-12.2 q 0,-6.32 -4.8,-6.32 -5.16,0 -5.6,6.32 z"
             style="font-family:Asap;-inkscape-font-specification:Asap;fill:#ffffff"
             id="path194" />
          <path
             d="m 65.083516,451.21552 q 0,-0.48 0.52,-1.32 0.56,-0.84 0.88,-0.84 0.12,0 1,0.52 0.88,0.48 2.48,1 1.6,0.52 3.64,0.52 2.08,0 3.52,-1.32 1.48,-1.32 1.48,-3.36 0,-2.04 -1.36,-3.24 -1.32,-1.2 -3.24,-1.88 -1.88,-0.72 -3.8,-1.52 -1.92,-0.8 -3.28,-2.48 -1.32,-1.68 -1.32,-4.28 0,-3.32 2.44,-5.32 2.44,-2.04 6.44,-2.04 1.96,0 4.2,0.72 2.24,0.72 2.24,1.72 0,0.44 -0.52,1.28 -0.48,0.84 -0.76,0.84 -0.16,0 -0.84,-0.4 -2.04,-1.12 -4.4,-1.12 -2.36,0 -3.76,1.16 -1.4,1.12 -1.4,3.32 0,2.2 2.6,3.44 1.12,0.52 2.52,1.04 1.4,0.48 2.76,1.16 1.4,0.64 2.52,1.52 1.16,0.88 1.88,2.4 0.72,1.52 0.72,3.52 0,3.68 -2.4,5.8 -2.4,2.08 -6.08,2.08 -3.68,0 -6.2,-1 -2.48,-1 -2.48,-1.92 z"
             style="font-family:Asap;-inkscape-font-specification:Asap;fill:#ffffff"
             id="path196" />
          <path
             d="m 86.603439,447.65552 v -13.88 q 0,-0.88 1.6,-0.88 h 0.16 q 1.6,0 1.6,0.88 v 13.56 q 0,1.84 1.04,2.88 1.08,1 3.04,1 2.88,0 5.04,-2.8 v -14.64 q 0,-0.88 1.600001,-0.88 h 0.16 q 1.6,0 1.6,0.88 v 14.2 q 0,2.4 0.2,3.48 0.28,1.48 0.28,1.56 0,0.48 -0.76,0.72 -0.76,0.2 -1.2,0.2 -0.4,0 -0.56,-0.08 -0.16,-0.08 -0.32,-0.28 -0.120001,-0.2 -0.200001,-0.36 -0.08,-0.2 -0.16,-0.52 -0.08,-0.32 -0.16,-0.48 -0.04,-0.2 -0.12,-0.56 -0.04,-0.4 -0.08,-0.52 -2.68,3 -6,3 -3.28,0 -5.04,-1.72 -1.72,-1.72 -1.72,-4.76 z"
             style="font-family:Asap;-inkscape-font-specification:Asap;fill:#ffffff"
             id="path198" />
          <path
             d="m 109.28341,453.09552 v -14.04 q 0,-2.44 -0.2,-3.48 -0.28,-1.44 -0.28,-1.56 0,-0.48 0.76,-0.68 0.76,-0.24 1.16,-0.24 0.44,0 0.6,0.08 0.16,0.08 0.28,0.28 0.16,0.16 0.24,0.36 0.08,0.16 0.16,0.48 0.08,0.28 0.12,0.48 0.08,0.16 0.12,0.52 0.08,0.32 0.12,0.44 2.6,-3 6.08,-3 4.36,0 5.72,3.32 2.8,-3.32 6.36,-3.32 2.28,0 4.08,1.16 1,0.68 1.6,2.04 0.6,1.36 0.6,3.28 v 13.88 q 0,0.88 -1.6,0.88 h -0.16 q -1.6,0 -1.6,-0.88 v -13.56 q 0,-1.8 -1,-2.84 -0.96,-1.04 -2.84,-1.04 -2.48,0 -4.92,2.76 0.04,0.28 0.04,0.84 v 13.84 q 0,0.88 -1.6,0.88 h -0.16 q -1.6,0 -1.6,-0.88 v -13.56 q 0,-1.8 -1,-2.84 -0.96,-1.04 -2.56,-1.04 -1.56,0 -2.8,0.68 -1.2,0.68 -1.76,1.4 l -0.6,0.68 v 14.68 q 0,0.88 -1.6,0.88 h -0.16 q -1.6,0 -1.6,-0.88 z"
             style="font-family:Asap;-inkscape-font-specification:Asap;fill:#ffffff"
             id="path200" />
          <path
             d="m 155.04339,440.85552 v -1.88 q 0,-3.36 -4.4,-3.36 -2.88,0 -5.32,1.24 -0.84,0.44 -0.92,0.44 -0.4,0 -0.92,-0.8 -0.48,-0.8 -0.48,-1.2 0,-0.84 2.32,-1.68 2.36,-0.88 5.64,-0.88 3.28,0 5.36,1.68 2.08,1.64 2.08,4.6 v 8.96 q 0,2.4 0.2,3.48 0.28,1.48 0.28,1.56 0,0.48 -0.76,0.72 -0.76,0.2 -1.2,0.2 -0.4,0 -0.56,-0.08 -0.16,-0.08 -0.32,-0.28 -0.12,-0.2 -0.2,-0.36 -0.08,-0.2 -0.16,-0.52 -0.08,-0.32 -0.16,-0.48 -0.04,-0.2 -0.12,-0.56 -0.04,-0.4 -0.08,-0.52 -2.72,3 -6.72,3 -3.08,0 -4.96,-1.52 -1.88,-1.52 -1.88,-4.68 0,-3.16 2.16,-4.72 2.2,-1.6 4.92,-1.92 2.72,-0.36 6.2,-0.44 z m -9.68,7.08 q 0,3.28 3.4,3.28 1.96,0 3.36,-0.72 1.44,-0.72 2.92,-2.04 v -4.72 q -5,0 -6.44,0.56 -0.76,0.28 -1.6,0.72 -1.64,0.84 -1.64,2.92 z"
             style="font-family:Asap;-inkscape-font-specification:Asap;fill:#ffffff"
             id="path202" />
          <path
             d="m 165.00332,453.09552 v -14.04 q 0,-2.44 -0.2,-3.48 -0.28,-1.44 -0.28,-1.56 0,-0.48 0.76,-0.68 0.76,-0.24 1.16,-0.24 0.44,0 0.6,0.08 0.16,0.08 0.28,0.28 0.16,0.16 0.24,0.36 0.08,0.16 0.16,0.48 0.08,0.28 0.12,0.48 0.08,0.16 0.12,0.52 0.08,0.32 0.12,0.44 2.6,-3 6.08,-3 4.36,0 5.72,3.32 2.8,-3.32 6.36,-3.32 2.28,0 4.08,1.16 1,0.68 1.6,2.04 0.6,1.36 0.6,3.28 v 13.88 q 0,0.88 -1.6,0.88 h -0.16 q -1.6,0 -1.6,-0.88 v -13.56 q 0,-1.8 -1,-2.84 -0.96,-1.04 -2.84,-1.04 -2.48,0 -4.92,2.76 0.04,0.28 0.04,0.84 v 13.84 q 0,0.88 -1.6,0.88 h -0.16 q -1.6,0 -1.6,-0.88 v -13.56 q 0,-1.8 -1,-2.84 -0.96,-1.04 -2.56,-1.04 -1.56,0 -2.8,0.68 -1.2,0.68 -1.76,1.4 l -0.6,0.68 v 14.68 q 0,0.88 -1.6,0.88 h -0.16 q -1.6,0 -1.6,-0.88 z"
             style="font-family:Asap;-inkscape-font-specification:Asap;fill:#ffffff"
             id="path204" />
          <path
             d="m 207.5233,454.13552 q -5,0 -7.4,-2.6 -2.4,-2.6 -2.4,-7.92 0,-5.36 2.36,-8.12 2.36,-2.76 6.72,-2.76 8.48,0 8.48,10.44 0,0.36 -0.48,1 -0.48,0.64 -0.84,0.64 h -12.64 q 0.24,3.32 1.72,4.88 1.48,1.56 4.44,1.56 2.72,0 5,-1.28 0.76,-0.4 0.84,-0.4 0.4,0 0.88,0.8 0.52,0.8 0.52,1.2 0,0.8 -2.2,1.68 -2.16,0.88 -5,0.88 z m 4.2,-12.2 q 0,-6.32 -4.8,-6.32 -5.16,0 -5.6,6.32 z"
             style="font-family:Asap;-inkscape-font-specification:Asap;fill:#ffffff"
             id="path206" />
          <path
             d="m 220.52328,453.09552 v -14.04 q 0,-2.44 -0.2,-3.48 -0.28,-1.44 -0.28,-1.56 0,-0.48 0.76,-0.68 0.76,-0.24 1.16,-0.24 0.44,0 0.6,0.08 0.16,0.08 0.28,0.28 0.16,0.16 0.24,0.36 0.08,0.16 0.16,0.48 0.08,0.28 0.12,0.48 0.08,0.16 0.12,0.52 0.08,0.32 0.12,0.44 2.68,-3 5.96,-3 3.32,0 5.04,1.72 1.76,1.72 1.76,4.76 v 13.88 q 0,0.88 -1.6,0.88 h -0.16 q -1.6,0 -1.6,-0.88 v -13.56 q 0,-1.84 -1.08,-2.84 -1.04,-1.04 -3,-1.04 -2.88,0 -5.04,2.8 v 14.64 q 0,0.88 -1.6,0.88 h -0.16 q -1.6,0 -1.6,-0.88 z"
             style="font-family:Asap;-inkscape-font-specification:Asap;fill:#ffffff"
             id="path208" />
          <path
             d="m 243.64325,448.61552 v -12.76 h -2 q -0.8,0 -0.8,-1.2 v -0.48 q 0,-1.2 0.8,-1.2 h 2 l 0.48,-4.2 q 0.08,-0.88 1.28,-0.88 h 0.4 q 1.2,0 1.2,0.88 v 4.2 h 3.36 q 0.8,0 0.8,1.2 v 0.48 q 0,1.2 -0.8,1.2 h -3.36 v 12.44 q 0,2.96 2.16,2.96 0.68,0 1.16,-0.08 0.48,-0.12 0.56,-0.12 0.36,0 0.6,0.76 0.24,0.72 0.24,1.12 0,1.2 -2.92,1.2 -2,0 -3.6,-1.2 -1.56,-1.24 -1.56,-4.32 z"
             style="font-family:Asap;-inkscape-font-specification:Asap;fill:#ffffff"
             id="path210" />
          <path
             d="m 265.04321,454.13552 q -5,0 -7.4,-2.6 -2.4,-2.6 -2.4,-7.92 0,-5.36 2.36,-8.12 2.36,-2.76 6.72,-2.76 8.48,0 8.48,10.44 0,0.36 -0.48,1 -0.48,0.64 -0.84,0.64 h -12.64 q 0.24,3.32 1.72,4.88 1.48,1.56 4.44,1.56 2.72,0 5,-1.28 0.76,-0.4 0.84,-0.4 0.4,0 0.88,0.8 0.52,0.8 0.52,1.2 0,0.8 -2.2,1.68 -2.16,0.88 -5,0.88 z m 4.2,-12.2 q 0,-6.32 -4.8,-6.32 -5.16,0 -5.6,6.32 z"
             style="font-family:Asap;-inkscape-font-specification:Asap;fill:#ffffff"
             id="path212" />
          <path
             d="m 286.28319,443.33552 q 0,-3 0.8,-5.16 0.84,-2.16 2.24,-3.32 2.64,-2.12 6.44,-2.12 2.32,0 4.16,0.56 1.84,0.56 1.84,1.28 0,0.52 -0.48,1.36 -0.44,0.8 -0.8,0.8 -0.04,0 -0.16,-0.04 -0.08,-0.04 -0.16,-0.04 -0.04,-0.04 -0.12,-0.08 -2.16,-0.96 -4.36,-0.96 -5.8,0 -5.8,7.64 0,4.24 1.4,6.12 1.44,1.88 4.8,1.88 2.44,0 4.52,-1.04 0.12,-0.04 0.24,-0.08 0.16,-0.08 0.2,-0.08 0.4,0 0.88,0.8 0.48,0.76 0.48,1.24 0,0.72 -1.88,1.4 -1.88,0.64 -4.4,0.64 -4.96,0 -7.4,-2.56 -2.44,-2.56 -2.44,-8.24 z"
             style="font-family:Asap;-inkscape-font-specification:Asap;fill:#ffffff"
             id="path214" />
          <path
             d="m 315.04313,454.13552 q -4.48,0 -6.88,-2.72 -2.36,-2.72 -2.36,-7.88 0,-5.2 2.4,-8 2.4,-2.8 6.84,-2.8 4.44,0 6.76,2.8 2.36,2.76 2.36,8 0,5.2 -2.32,7.92 -2.28,2.68 -6.8,2.68 z m -4.36,-4.76 q 1.36,1.88 4.28,1.88 2.92,0 4.32,-1.88 1.4,-1.92 1.4,-5.92 0,-4 -1.4,-5.92 -1.4,-1.92 -4.32,-1.92 -2.92,0 -4.28,1.92 -1.36,1.88 -1.36,5.92 0,4 1.36,5.92 z"
             style="font-family:Asap;-inkscape-font-specification:Asap;fill:#ffffff"
             id="path216" />
          <path
             d="m 329.80307,453.09552 v -14.04 q 0,-2.44 -0.2,-3.48 -0.28,-1.44 -0.28,-1.56 0,-0.48 0.76,-0.68 0.76,-0.24 1.16,-0.24 0.44,0 0.6,0.08 0.16,0.08 0.28,0.28 0.16,0.16 0.24,0.36 0.08,0.16 0.16,0.48 0.08,0.28 0.12,0.48 0.08,0.16 0.12,0.52 0.08,0.32 0.12,0.44 2.68,-3 5.96,-3 3.32,0 5.04,1.72 1.76,1.72 1.76,4.76 v 13.88 q 0,0.88 -1.6,0.88 h -0.16 q -1.6,0 -1.6,-0.88 v -13.56 q 0,-1.84 -1.08,-2.84 -1.04,-1.04 -3,-1.04 -2.88,0 -5.04,2.8 v 14.64 q 0,0.88 -1.6,0.88 h -0.16 q -1.6,0 -1.6,-0.88 z"
             style="font-family:Asap;-inkscape-font-specification:Asap;fill:#ffffff"
             id="path218" />
          <path
             d="m 352.92304,448.61552 v -12.76 h -2 q -0.8,0 -0.8,-1.2 v -0.48 q 0,-1.2 0.8,-1.2 h 2 l 0.48,-4.2 q 0.08,-0.88 1.28,-0.88 h 0.4 q 1.2,0 1.2,0.88 v 4.2 h 3.36 q 0.8,0 0.8,1.2 v 0.48 q 0,1.2 -0.8,1.2 h -3.36 v 12.44 q 0,2.96 2.16,2.96 0.68,0 1.16,-0.08 0.48,-0.12 0.56,-0.12 0.36,0 0.6,0.76 0.24,0.72 0.24,1.12 0,1.2 -2.92,1.2 -2,0 -3.6,-1.2 -1.56,-1.24 -1.56,-4.32 z"
             style="font-family:Asap;-inkscape-font-specification:Asap;fill:#ffffff"
             id="path220" />
          <path
             d="m 377.563,440.85552 v -1.88 q 0,-3.36 -4.4,-3.36 -2.88,0 -5.32,1.24 -0.84,0.44 -0.92,0.44 -0.4,0 -0.92,-0.8 -0.48,-0.8 -0.48,-1.2 0,-0.84 2.32,-1.68 2.36,-0.88 5.64,-0.88 3.28,0 5.36,1.68 2.08,1.64 2.08,4.6 v 8.96 q 0,2.4 0.2,3.48 0.28,1.48 0.28,1.56 0,0.48 -0.76,0.72 -0.76,0.2 -1.2,0.2 -0.4,0 -0.56,-0.08 -0.16,-0.08 -0.32,-0.28 -0.12,-0.2 -0.2,-0.36 -0.08,-0.2 -0.16,-0.52 -0.08,-0.32 -0.16,-0.48 -0.04,-0.2 -0.12,-0.56 -0.04,-0.4 -0.08,-0.52 -2.72,3 -6.72,3 -3.08,0 -4.96,-1.52 -1.88,-1.52 -1.88,-4.68 0,-3.16 2.16,-4.72 2.2,-1.6 4.92,-1.92 2.72,-0.36 6.2,-0.44 z m -9.68,7.08 q 0,3.28 3.4,3.28 1.96,0 3.36,-0.72 1.44,-0.72 2.92,-2.04 v -4.72 q -5,0 -6.44,0.56 -0.76,0.28 -1.6,0.72 -1.64,0.84 -1.64,2.92 z"
             style="font-family:Asap;-inkscape-font-specification:Asap;fill:#ffffff"
             id="path222" />
          <path
             d="m 385.48292,457.13552 q 0,-3.28 4.52,-4.88 -2.56,-1.08 -2.56,-3.32 0,-2.28 3.04,-3.32 -1.76,-0.84 -2.72,-2.4 -0.92,-1.6 -0.92,-3.56 0,-3 2.08,-4.96 2.12,-1.96 5.92,-1.96 1.44,0 2.64,0.24 h 6.88 q 0.8,0 0.8,1.2 v 0.48 q 0,1.2 -0.8,1.2 h -2.8 q 1.32,1.6 1.32,3.8 0,2.96 -2.12,4.92 -2.12,1.96 -5.92,1.96 h -0.4 q -3.44,0.16 -3.44,1.68 0,0.84 1.4,1.28 1.4,0.4 3.36,0.64 2,0.24 3.96,0.68 2,0.44 3.4,1.8 1.4,1.32 1.4,3.48 0,2.72 -2.68,4.48 -2.64,1.8 -7.16,1.8 -4.48,0 -6.84,-1.2 -2.36,-1.16 -2.36,-4.04 z m 4.88,-17.48 q 0,4 4.48,4 4.52,0 4.52,-4 0,-4.04 -4.52,-4.04 -4.48,0 -4.48,4.04 z m -1.4,17.12 q 0,2.72 6,2.72 2.68,0 4.32,-0.92 1.68,-0.92 1.68,-2.28 0,-1.08 -0.92,-1.6 -1.52,-0.84 -5.44,-1.36 -1.04,-0.16 -1.64,-0.28 -1.56,0.6 -2.8,1.56 -1.2,0.96 -1.2,2.16 z"
             style="font-family:Asap;-inkscape-font-specification:Asap;fill:#ffffff"
             id="path224" />
          <path
             d="m 411.04289,427.93552 q -1.6,0 -1.6,-0.88 v -2.36 q 0,-0.88 1.6,-0.88 h 0.48 q 1.6,0 1.6,0.88 v 2.36 q 0,0.88 -1.6,0.88 z m -1.44,25.16 v -19.32 q 0,-0.88 1.6,-0.88 h 0.16 q 1.6,0 1.6,0.88 v 19.32 q 0,0.88 -1.6,0.88 h -0.16 q -1.6,0 -1.6,-0.88 z"
             style="font-family:Asap;-inkscape-font-specification:Asap;fill:#ffffff"
             id="path226" />
          <path
             d="m 428.00287,454.13552 q -4.48,0 -6.88,-2.72 -2.36,-2.72 -2.36,-7.88 0,-5.2 2.4,-8 2.4,-2.8 6.84,-2.8 4.44,0 6.76,2.8 2.36,2.76 2.36,8 0,5.2 -2.32,7.92 -2.28,2.68 -6.8,2.68 z m -4.36,-4.76 q 1.36,1.88 4.28,1.88 2.92,0 4.32,-1.88 1.4,-1.92 1.4,-5.92 0,-4 -1.4,-5.92 -1.4,-1.92 -4.32,-1.92 -2.92,0 -4.28,1.92 -1.36,1.88 -1.36,5.92 0,4 1.36,5.92 z"
             style="font-family:Asap;-inkscape-font-specification:Asap;fill:#ffffff"
             id="path228" />
          <path
             d="m 440.72281,451.73552 q 0,-0.4 0.48,-1.2 0.52,-0.8 0.92,-0.8 0.04,0 0.64,0.4 0.6,0.36 1.72,0.76 1.12,0.36 2.68,0.36 1.6,0 2.6,-0.88 1.04,-0.92 1.04,-2.44 0,-1.56 -0.92,-2.4 -0.88,-0.88 -3.56,-1.64 -2.68,-0.76 -3.88,-1.92 -1.2,-1.2 -1.2,-3.6 0,-2.4 1.84,-4 1.84,-1.64 4.8,-1.64 2.04,0 3.64,0.52 1.6,0.52 1.6,1.16 0,0.52 -0.48,1.36 -0.44,0.8 -0.8,0.8 -0.04,0 -0.52,-0.24 -1.36,-0.72 -3.08,-0.72 -1.68,0 -2.64,0.72 -0.92,0.68 -0.92,1.8 0,1.12 0.68,1.76 0.72,0.64 2.4,1.16 3.76,1.16 5.08,2.56 1.36,1.36 1.36,4.16 0,2.76 -2,4.56 -1.96,1.8 -4.72,1.8 -2.76,0 -4.76,-0.8 -2,-0.84 -2,-1.6 z"
             style="font-family:Asap;-inkscape-font-specification:Asap;fill:#ffffff"
             id="path230" />
          <path
             d="m 467.28274,454.13552 q -4.48,0 -6.88,-2.72 -2.36,-2.72 -2.36,-7.88 0,-5.2 2.4,-8 2.4,-2.8 6.84,-2.8 4.44,0 6.76,2.8 2.36,2.76 2.36,8 0,5.2 -2.32,7.92 -2.28,2.68 -6.8,2.68 z m -4.36,-4.76 q 1.36,1.88 4.28,1.88 2.92,0 4.32,-1.88 1.4,-1.92 1.4,-5.92 0,-4 -1.4,-5.92 -1.4,-1.92 -4.32,-1.92 -2.92,0 -4.28,1.92 -1.36,1.88 -1.36,5.92 0,4 1.36,5.92 z"
             style="font-family:Asap;-inkscape-font-specification:Asap;fill:#ffffff"
             id="path232" />
          <path
             d="m 500.20267,454.13552 q -5,0 -7.4,-2.6 -2.4,-2.6 -2.4,-7.92 0,-5.36 2.36,-8.12 2.36,-2.76 6.72,-2.76 8.48,0 8.48,10.44 0,0.36 -0.48,1 -0.48,0.64 -0.84,0.64 h -12.64 q 0.24,3.32 1.72,4.88 1.48,1.56 4.44,1.56 2.72,0 5,-1.28 0.76,-0.4 0.84,-0.4 0.4,0 0.88,0.8 0.52,0.8 0.52,1.2 0,0.8 -2.2,1.68 -2.16,0.88 -5,0.88 z m 4.2,-12.2 q 0,-6.32 -4.8,-6.32 -5.16,0 -5.6,6.32 z"
             style="font-family:Asap;-inkscape-font-specification:Asap;fill:#ffffff"
             id="path234" />
          <path
             d="m 68.683516,488.14523 q -1.6,0 -1.6,-0.88 v -2.36 q 0,-0.88 1.6,-0.88 h 0.48 q 1.6,0 1.6,0.88 v 2.36 q 0,0.88 -1.6,0.88 z m -1.44,25.16 v -19.32 q 0,-0.88 1.6,-0.88 h 0.16 q 1.6,0 1.6,0.88 v 19.32 q 0,0.88 -1.6,0.88 h -0.16 q -1.6,0 -1.6,-0.88 z"
             style="font-family:Asap;-inkscape-font-specification:Asap;fill:#ffffff"
             id="path236" />
          <path
             d="m 77.643491,513.30523 v -14.04 q 0,-2.44 -0.2,-3.48 -0.28,-1.44 -0.28,-1.56 0,-0.48 0.76,-0.68 0.76,-0.24 1.16,-0.24 0.44,0 0.6,0.08 0.16,0.08 0.28,0.28 0.16,0.16 0.24,0.36 0.08,0.16 0.16,0.48 0.08,0.28 0.12,0.48 0.08,0.16 0.12,0.52 0.08,0.32 0.12,0.44 2.68,-3 5.96,-3 3.32,0 5.04,1.72 1.76,1.72 1.76,4.76 v 13.88 q 0,0.88 -1.6,0.88 h -0.16 q -1.6,0 -1.6,-0.88 v -13.56 q 0,-1.84 -1.08,-2.84 -1.04,-1.04 -3,-1.04 -2.88,0 -5.04,2.8 v 14.64 q 0,0.88 -1.6,0.88 h -0.16 q -1.6,0 -1.6,-0.88 z"
             style="font-family:Asap;-inkscape-font-specification:Asap;fill:#ffffff"
             id="path238" />
          <path
             d="m 112.68346,511.34523 q -2.88,3 -6.4,3 -3.52,0 -5.64,-2.96 -2.080001,-2.96 -2.080001,-7.6 v -0.36 q 0,-4.92 2.240001,-7.68 2.24,-2.8 5.6,-2.8 3.36,0 6,2.04 v -10.08 q 0,-0.88 1.6,-0.88 h 0.16 q 1.6,0 1.6,0.88 v 23.28 q 0,2.4 0.2,3.48 0.28,1.48 0.28,1.56 0,0.48 -0.76,0.72 -0.76,0.2 -1.2,0.2 -0.4,0 -0.56,-0.08 -0.16,-0.08 -0.32,-0.28 -0.12,-0.2 -0.2,-0.36 -0.08,-0.2 -0.16,-0.52 -0.08,-0.32 -0.16,-0.48 -0.04,-0.2 -0.12,-0.56 -0.04,-0.4 -0.08,-0.52 z m -10.6,-8 q 0,8.08 5.2,8.08 2.6,0 5.12,-2.76 v -10.96 q -2.16,-1.8 -4.84,-1.8 h -0.24 q -2.56,0.04 -3.92,1.96 -1.32,1.92 -1.32,5.48 z"
             style="font-family:Asap;-inkscape-font-specification:Asap;fill:#ffffff"
             id="path240" />
          <path
             d="m 131.0834,514.34523 q -5,0 -7.4,-2.6 -2.4,-2.6 -2.4,-7.92 0,-5.36 2.36,-8.12 2.36,-2.76 6.72,-2.76 8.48,0 8.48,10.44 0,0.36 -0.48,1 -0.48,0.64 -0.84,0.64 h -12.64 q 0.24,3.32 1.72,4.88 1.48,1.56 4.44,1.56 2.72,0 5,-1.28 0.76,-0.4 0.84,-0.4 0.4,0 0.88,0.8 0.52,0.8 0.52,1.2 0,0.8 -2.2,1.68 -2.16,0.88 -5,0.88 z m 4.2,-12.2 q 0,-6.32 -4.8,-6.32 -5.16,0 -5.6,6.32 z"
             style="font-family:Asap;-inkscape-font-specification:Asap;fill:#ffffff"
             id="path242" />
          <path
             d="m 144.92339,508.82523 v -12.76 h -2 q -0.8,0 -0.8,-1.2 v -0.48 q 0,-1.2 0.8,-1.2 h 2 l 0.48,-4.2 q 0.08,-0.88 1.28,-0.88 h 0.4 q 1.2,0 1.2,0.88 v 4.2 h 3.36 q 0.8,0 0.8,1.2 v 0.48 q 0,1.2 -0.8,1.2 h -3.36 v 12.44 q 0,2.96 2.16,2.96 0.68,0 1.16,-0.08 0.48,-0.12 0.56,-0.12 0.36,0 0.6,0.76 0.24,0.72 0.24,1.12 0,1.2 -2.92,1.2 -2,0 -3.6,-1.2 -1.56,-1.24 -1.56,-4.32 z"
             style="font-family:Asap;-inkscape-font-specification:Asap;fill:#ffffff"
             id="path244" />
          <path
             d="m 166.32335,514.34523 q -5,0 -7.4,-2.6 -2.4,-2.6 -2.4,-7.92 0,-5.36 2.36,-8.12 2.36,-2.76 6.72,-2.76 8.48,0 8.48,10.44 0,0.36 -0.48,1 -0.48,0.64 -0.84,0.64 h -12.64 q 0.24,3.32 1.72,4.88 1.48,1.56 4.44,1.56 2.72,0 5,-1.28 0.76,-0.4 0.84,-0.4 0.4,0 0.88,0.8 0.52,0.8 0.52,1.2 0,0.8 -2.2,1.68 -2.16,0.88 -5,0.88 z m 4.2,-12.2 q 0,-6.32 -4.8,-6.32 -5.16,0 -5.6,6.32 z"
             style="font-family:Asap;-inkscape-font-specification:Asap;fill:#ffffff"
             id="path246" />
          <path
             d="m 177.96333,503.54523 q 0,-3 0.8,-5.16 0.84,-2.16 2.24,-3.32 2.64,-2.12 6.44,-2.12 2.32,0 4.16,0.56 1.84,0.56 1.84,1.28 0,0.52 -0.48,1.36 -0.44,0.8 -0.8,0.8 -0.04,0 -0.16,-0.04 -0.08,-0.04 -0.16,-0.04 -0.04,-0.04 -0.12,-0.08 -2.16,-0.96 -4.36,-0.96 -5.8,0 -5.8,7.64 0,4.24 1.4,6.12 1.44,1.88 4.8,1.88 2.44,0 4.52,-1.04 0.12,-0.04 0.24,-0.08 0.16,-0.08 0.2,-0.08 0.4,0 0.88,0.8 0.48,0.76 0.48,1.24 0,0.72 -1.88,1.4 -1.88,0.64 -4.4,0.64 -4.96,0 -7.4,-2.56 -2.44,-2.56 -2.44,-8.24 z"
             style="font-family:Asap;-inkscape-font-specification:Asap;fill:#ffffff"
             id="path248" />
          <path
             d="m 199.56328,508.82523 v -12.76 h -2 q -0.8,0 -0.8,-1.2 v -0.48 q 0,-1.2 0.8,-1.2 h 2 l 0.48,-4.2 q 0.08,-0.88 1.28,-0.88 h 0.4 q 1.2,0 1.2,0.88 v 4.2 h 3.36 q 0.8,0 0.8,1.2 v 0.48 q 0,1.2 -0.8,1.2 h -3.36 v 12.44 q 0,2.96 2.16,2.96 0.68,0 1.16,-0.08 0.48,-0.12 0.56,-0.12 0.36,0 0.6,0.76 0.24,0.72 0.24,1.12 0,1.2 -2.92,1.2 -2,0 -3.6,-1.2 -1.56,-1.24 -1.56,-4.32 z"
             style="font-family:Asap;-inkscape-font-specification:Asap;fill:#ffffff"
             id="path250" />
          <path
             d="m 224.20324,501.06523 v -1.88 q 0,-3.36 -4.4,-3.36 -2.88,0 -5.32,1.24 -0.84,0.44 -0.92,0.44 -0.4,0 -0.92,-0.8 -0.48,-0.8 -0.48,-1.2 0,-0.84 2.32,-1.68 2.36,-0.88 5.64,-0.88 3.28,0 5.36,1.68 2.08,1.64 2.08,4.6 v 8.96 q 0,2.4 0.2,3.48 0.28,1.48 0.28,1.56 0,0.48 -0.76,0.72 -0.76,0.2 -1.2,0.2 -0.4,0 -0.56,-0.08 -0.16,-0.08 -0.32,-0.28 -0.12,-0.2 -0.2,-0.36 -0.08,-0.2 -0.16,-0.52 -0.08,-0.32 -0.16,-0.48 -0.04,-0.2 -0.12,-0.56 -0.04,-0.4 -0.08,-0.52 -2.72,3 -6.72,3 -3.08,0 -4.96,-1.52 -1.88,-1.52 -1.88,-4.68 0,-3.16 2.16,-4.72 2.2,-1.6 4.92,-1.92 2.72,-0.36 6.2,-0.44 z m -9.68,7.08 q 0,3.28 3.4,3.28 1.96,0 3.36,-0.72 1.44,-0.72 2.92,-2.04 v -4.72 q -5,0 -6.44,0.56 -0.76,0.28 -1.6,0.72 -1.64,0.84 -1.64,2.92 z"
             style="font-family:Asap;-inkscape-font-specification:Asap;fill:#ffffff"
             id="path252" />
          <path
             d="m 234.16317,513.30523 v -28.4 q 0,-0.88 1.6,-0.88 h 0.16 q 1.6,0 1.6,0.88 v 10.08 q 2.64,-2.04 6,-2.04 3.36,0 5.6,2.8 2.24,2.76 2.24,7.68 v 0.36 q 0,4.64 -2.12,7.6 -2.08,2.96 -5.6,2.96 -3.52,0 -6.4,-3 l -0.64,2.36 q -0.2,0.48 -1.08,0.48 h -0.16 q -1.2,0 -1.2,-0.88 z m 3.36,-4.64 q 2.52,2.76 5.16,2.76 5.16,0 5.16,-8.08 0,-3.56 -1.36,-5.48 -1.32,-1.92 -3.88,-1.96 h -0.24 q -2.68,0 -4.84,1.8 z"
             style="font-family:Asap;-inkscape-font-specification:Asap;fill:#ffffff"
             id="path254" />
          <path
             d="m 256.8031,508.82523 v -23.92 q 0,-0.88 1.6,-0.88 h 0.16 q 1.6,0 1.6,0.88 v 23.6 q 0,2.96 2.16,2.96 0.68,0 1.16,-0.08 0.48,-0.12 0.56,-0.12 0.36,0 0.6,0.76 0.24,0.72 0.24,1.12 0,1.2 -2.92,1.2 -2,0 -3.6,-1.2 -1.56,-1.24 -1.56,-4.32 z"
             style="font-family:Asap;-inkscape-font-specification:Asap;fill:#ffffff"
             id="path256" />
          <path
             d="m 277.40306,514.34523 q -5,0 -7.4,-2.6 -2.4,-2.6 -2.4,-7.92 0,-5.36 2.36,-8.12 2.36,-2.76 6.72,-2.76 8.48,0 8.48,10.44 0,0.36 -0.48,1 -0.48,0.64 -0.84,0.64 h -12.64 q 0.24,3.32 1.72,4.88 1.48,1.56 4.44,1.56 2.72,0 5,-1.28 0.76,-0.4 0.84,-0.4 0.4,0 0.88,0.8 0.52,0.8 0.52,1.2 0,0.8 -2.2,1.68 -2.16,0.88 -5,0.88 z m 4.2,-12.2 q 0,-6.32 -4.8,-6.32 -5.16,0 -5.6,6.32 z"
             style="font-family:Asap;-inkscape-font-specification:Asap;fill:#ffffff"
             id="path258" />
        </g>
      </g>
    </g>
  </g>
</svg>
