<?xml version="1.0" encoding="UTF-8" standalone="no"?>
<!-- Created with Inkscape (http://www.inkscape.org/) -->

<svg
   width="653"
   height="583"
   viewBox="0 0 172.77401 154.25242"
   version="1.1"
   id="svg5"
   inkscape:version="1.1.1 (3bf5ae0d25, 2021-09-20)"
   sodipodi:docname="etapa3.svg"
   xmlns:inkscape="http://www.inkscape.org/namespaces/inkscape"
   xmlns:sodipodi="http://sodipodi.sourceforge.net/DTD/sodipodi-0.dtd"
   xmlns="http://www.w3.org/2000/svg"
   xmlns:svg="http://www.w3.org/2000/svg">
  <sodipodi:namedview
     id="namedview7"
     pagecolor="#ffffff"
     bordercolor="#666666"
     borderopacity="1.0"
     inkscape:pageshadow="2"
     inkscape:pageopacity="0.0"
     inkscape:pagecheckerboard="0"
     inkscape:document-units="px"
     showgrid="false"
     units="px"
     width="1025px"
     height="682px"
     showguides="true"
     inkscape:guide-bbox="true"
     inkscape:zoom="0.3679675"
     inkscape:cx="-221.48695"
     inkscape:cy="6.7940782"
     inkscape:window-width="1920"
     inkscape:window-height="1011"
     inkscape:window-x="0"
     inkscape:window-y="0"
     inkscape:window-maximized="1"
     inkscape:current-layer="layer1">
    <sodipodi:guide
       position="-67.968334,168.96412"
       orientation="1,0"
       id="guide98514" />
  </sodipodi:namedview>
  <defs
     id="defs2">
    <rect
       x="63.603035"
       y="231.66563"
       width="555.02252"
       height="362.80865"
       id="rect27482" />
    <rect
       x="181.43657"
       y="196.51961"
       width="521.11708"
       height="100.2923"
       id="rect2963" />
  </defs>
  <g
     inkscape:label="Layer 1"
     inkscape:groupmode="layer"
     id="layer1">
    <g
       id="g577">
      <path
         id="rect31"
         style="fill:#ff5252;fill-rule:evenodd;stroke-width:0.255537"
         d="M 0.09366776,-0.02053081 H 172.86769 V 154.2319 H 0.09366776 Z" />
      <path
         id="path446"
         style="fill:#ffffff;stroke-width:0.230593"
         d="m 35.525589,21.715273 a 9.6399517,9.780426 0 0 1 -9.639952,9.780426 9.6399517,9.780426 0 0 1 -9.639951,-9.780426 9.6399517,9.780426 0 0 1 9.639951,-9.780426 9.6399517,9.780426 0 0 1 9.639952,9.780426 z" />
      <g
         aria-label="SIDA"
         transform="matrix(0.26458333,0,0,0.26458333,-33.190863,-16.970379)"
         id="text2961"
         style="font-size:53.3333px;line-height:1.25;white-space:pre;shape-inside:url(#rect2963)">
        <path
           d="m 186.2375,241.27777 c 3.04,2.39999 7.89333,5.27999 13.65332,5.33333 3.78667,0 7.25333,-1.12 9.86666,-3.04 2.66667,-1.92 4.58667,-4.85333 4.58667,-8.26666 0,-1.65334 -0.48,-3.25334 -1.28,-4.53333 -1.22667,-1.97334 -3.14667,-3.36 -5.33333,-4.42667 -2.13333,-1.01333 -4.64,-1.70666 -7.36,-2.24 h -0.10666 c -2.88,-0.53333 -5.28,-1.38666 -6.66667,-2.34666 -0.69333,-0.48 -1.17333,-0.96 -1.44,-1.38667 -0.26666,-0.42667 -0.37333,-0.85333 -0.37333,-1.49333 0,-1.12 0.58667,-2.29333 2.02667,-3.36 1.44,-1.06667 3.57333,-1.81333 5.97333,-1.81333 3.25333,0 5.86666,1.6 8.58666,3.41333 1.28,0.85333 2.98666,0.48 3.78666,-0.8 0.85333,-1.22667 0.48,-2.93333 -0.74666,-3.78666 -2.72,-1.76 -6.50667,-4.26667 -11.62666,-4.26667 -3.46667,0 -6.72,1.01333 -9.22667,2.82667 -2.45333,1.81333 -4.26666,4.58666 -4.26666,7.78666 0,1.6 0.42667,3.09333 1.22667,4.37333 1.17333,1.86667 2.93333,3.2 4.95999,4.16 2.02667,0.96 4.37333,1.6 6.88,2.08 h 0.10667 c 3.14666,0.58666 5.75999,1.49333 7.30666,2.50666 0.8,0.53333 1.28,1.06667 1.6,1.6 0.32,0.53333 0.48,1.01333 0.48,1.70667 0,1.33333 -0.69334,2.66666 -2.29333,3.83999 -1.6,1.17334 -4,1.97334 -6.66667,1.97334 -3.78666,0.0533 -7.83999,-2.18667 -10.18666,-4.10667 -1.17333,-0.96 -2.93333,-0.8 -3.89333,0.37333 -0.90667,1.17334 -0.74667,2.93334 0.42667,3.89334 z"
           style="font-family:Quicksand;-inkscape-font-specification:Quicksand;fill:#ffffff"
           id="path272228" />
        <path
           d="m 222.9308,243.7311 c 0,1.65333 1.28,2.93333 2.93333,2.93333 1.6,0 2.98667,-1.28 2.98667,-2.93333 v -31.46665 c 0,-1.65333 -1.38667,-2.93333 -2.98667,-2.93333 -1.65333,0 -2.93333,1.28 -2.93333,2.93333 z"
           style="font-family:Quicksand;-inkscape-font-specification:Quicksand;fill:#ffffff"
           id="path272230" />
        <path
           d="m 241.75737,246.66443 c 0,0 0,0 0,0 0,0 0,0 0,0 h 6.29333 c 10.29333,0 18.61332,-8.37333 18.61332,-18.71999 0,-10.23999 -8.31999,-18.61332 -18.61332,-18.61332 h -6.29333 c 0,0 0,0 0,0 0,0 0,0 0,0 -1.65333,0 -2.93333,1.28 -2.93333,2.93333 v 31.46665 c 0,1.6 1.28,2.93333 2.93333,2.93333 z m 2.98666,-31.41332 h 3.30667 c 7.03999,0 12.69332,5.70667 12.69332,12.69333 0,7.09333 -5.65333,12.74666 -12.69332,12.79999 h -3.30667 z"
           style="font-family:Quicksand;-inkscape-font-specification:Quicksand;fill:#ffffff"
           id="path272232" />
        <path
           d="m 295.3573,244.79776 c 0.42667,1.17334 1.54667,1.86667 2.72,1.86667 0.37333,0 0.74667,-0.0533 1.01333,-0.16 1.54667,-0.58667 2.29333,-2.29333 1.76,-3.84 l -11.78666,-31.41331 c -0.48,-1.17334 -1.6,-1.92 -2.82666,-1.86667 -1.17334,-0.0533 -2.34667,0.69333 -2.82667,1.86667 l -11.78666,31.41331 c -0.53333,1.54667 0.21334,3.25333 1.76,3.84 0.32,0.10667 0.64,0.16 1.01333,0.16 1.17334,0 2.29334,-0.69333 2.77334,-1.86667 l 2.61333,-6.93333 h 12.95999 z m -13.43999,-12.79999 4.32,-11.46666 4.31999,11.46666 z"
           style="font-family:Quicksand;-inkscape-font-specification:Quicksand;fill:#ffffff"
           id="path272234" />
      </g>
      <g
         aria-label="Sistema inmune muy debilitado  Defensas muy bajas Aparecen multitud de enfermedades oportunitas  "
         transform="matrix(0.26458333,0,0,0.26458333,-0.86391158,0.03466807)"
         id="text27480"
         style="font-size:40px;line-height:1.45;white-space:pre;shape-inside:url(#rect27482)">
        <path
           d="m 65.083516,270.58637 q 0,-0.48 0.52,-1.32 0.56,-0.84 0.88,-0.84 0.12,0 1,0.52 0.88,0.48 2.48,1 1.6,0.52 3.64,0.52 2.08,0 3.52,-1.32 1.48,-1.32 1.48,-3.36 0,-2.04 -1.36,-3.24 -1.32,-1.2 -3.24,-1.88 -1.88,-0.72 -3.8,-1.52 -1.92,-0.8 -3.28,-2.48 -1.32,-1.68 -1.32,-4.28 0,-3.32 2.44,-5.32 2.44,-2.04 6.44,-2.04 1.96,0 4.2,0.72 2.24,0.72 2.24,1.72 0,0.44 -0.52,1.28 -0.48,0.84 -0.76,0.84 -0.16,0 -0.84,-0.4 -2.04,-1.12 -4.4,-1.12 -2.36,0 -3.76,1.16 -1.4,1.12 -1.4,3.32 0,2.2 2.6,3.44 1.12,0.52 2.52,1.04 1.4,0.48 2.76,1.16 1.4,0.64 2.52,1.52 1.16,0.88 1.88,2.4 0.72,1.52 0.72,3.52 0,3.68 -2.4,5.8 -2.4,2.08 -6.08,2.08 -3.68,0 -6.2,-1 -2.48,-1 -2.48,-1.92 z"
           style="font-family:Asap;-inkscape-font-specification:Asap;fill:#ffffff"
           id="path272237" />
        <path
           d="m 88.683439,247.30637 q -1.6,0 -1.6,-0.88 v -2.36 q 0,-0.88 1.6,-0.88 h 0.48 q 1.6,0 1.6,0.88 v 2.36 q 0,0.88 -1.6,0.88 z m -1.44,25.16 v -19.32 q 0,-0.88 1.6,-0.88 h 0.16 q 1.6,0 1.6,0.88 v 19.32 q 0,0.88 -1.6,0.88 h -0.16 q -1.6,0 -1.6,-0.88 z"
           style="font-family:Asap;-inkscape-font-specification:Asap;fill:#ffffff"
           id="path272239" />
        <path
           d="m 95.603415,271.10637 q 0,-0.4 0.48,-1.2 0.52,-0.8 0.92,-0.8 0.04,0 0.64,0.4 0.6,0.36 1.72,0.76 1.119995,0.36 2.679995,0.36 1.6,0 2.6,-0.88 1.04,-0.92 1.04,-2.44 0,-1.56 -0.92,-2.4 -0.88,-0.88 -3.56,-1.64 -2.679995,-0.76 -3.879995,-1.92 -1.2,-1.2 -1.2,-3.6 0,-2.4 1.84,-4 1.84,-1.64 4.799995,-1.64 2.04,0 3.64,0.52 1.6,0.52 1.6,1.16 0,0.52 -0.48,1.36 -0.44,0.8 -0.8,0.8 -0.04,0 -0.52,-0.24 -1.36,-0.72 -3.08,-0.72 -1.68,0 -2.64,0.72 -0.919995,0.68 -0.919995,1.8 0,1.12 0.679995,1.76 0.72,0.64 2.4,1.16 3.76,1.16 5.08,2.56 1.36,1.36 1.36,4.16 0,2.76 -2,4.56 -1.96,1.8 -4.72,1.8 -2.759995,0 -4.759995,-0.8 -2,-0.84 -2,-1.6 z"
           style="font-family:Asap;-inkscape-font-specification:Asap;fill:#ffffff"
           id="path272241" />
        <path
           d="m 115.00334,267.98637 v -12.76 h -2 q -0.8,0 -0.8,-1.2 v -0.48 q 0,-1.2 0.8,-1.2 h 2 l 0.48,-4.2 q 0.08,-0.88 1.28,-0.88 h 0.4 q 1.2,0 1.2,0.88 v 4.2 h 3.36 q 0.8,0 0.8,1.2 v 0.48 q 0,1.2 -0.8,1.2 h -3.36 v 12.44 q 0,2.96 2.16,2.96 0.68,0 1.16,-0.08 0.48,-0.12 0.56,-0.12 0.36,0 0.6,0.76 0.24,0.72 0.24,1.12 0,1.2 -2.92,1.2 -2,0 -3.6,-1.2 -1.56,-1.24 -1.56,-4.32 z"
           style="font-family:Asap;-inkscape-font-specification:Asap;fill:#ffffff"
           id="path272243" />
        <path
           d="m 136.40331,273.50637 q -5,0 -7.4,-2.6 -2.4,-2.6 -2.4,-7.92 0,-5.36 2.36,-8.12 2.36,-2.76 6.72,-2.76 8.48,0 8.48,10.44 0,0.36 -0.48,1 -0.48,0.64 -0.84,0.64 h -12.64 q 0.24,3.32 1.72,4.88 1.48,1.56 4.44,1.56 2.72,0 5,-1.28 0.76,-0.4 0.84,-0.4 0.4,0 0.88,0.8 0.52,0.8 0.52,1.2 0,0.8 -2.2,1.68 -2.16,0.88 -5,0.88 z m 4.2,-12.2 q 0,-6.32 -4.8,-6.32 -5.16,0 -5.6,6.32 z"
           style="font-family:Asap;-inkscape-font-specification:Asap;fill:#ffffff"
           id="path272245" />
        <path
           d="m 149.36329,272.46637 v -14.04 q 0,-2.44 -0.2,-3.48 -0.28,-1.44 -0.28,-1.56 0,-0.48 0.76,-0.68 0.76,-0.24 1.16,-0.24 0.44,0 0.6,0.08 0.16,0.08 0.28,0.28 0.16,0.16 0.24,0.36 0.08,0.16 0.16,0.48 0.08,0.28 0.12,0.48 0.08,0.16 0.12,0.52 0.08,0.32 0.12,0.44 2.6,-3 6.08,-3 4.36,0 5.72,3.32 2.8,-3.32 6.36,-3.32 2.28,0 4.08,1.16 1,0.68 1.6,2.04 0.6,1.36 0.6,3.28 v 13.88 q 0,0.88 -1.6,0.88 h -0.16 q -1.6,0 -1.6,-0.88 v -13.56 q 0,-1.8 -1,-2.84 -0.96,-1.04 -2.84,-1.04 -2.48,0 -4.92,2.76 0.04,0.28 0.04,0.84 v 13.84 q 0,0.88 -1.6,0.88 h -0.16 q -1.6,0 -1.6,-0.88 v -13.56 q 0,-1.8 -1,-2.84 -0.96,-1.04 -2.56,-1.04 -1.56,0 -2.8,0.68 -1.2,0.68 -1.76,1.4 l -0.6,0.68 v 14.68 q 0,0.88 -1.6,0.88 h -0.16 q -1.6,0 -1.6,-0.88 z"
           style="font-family:Asap;-inkscape-font-specification:Asap;fill:#ffffff"
           id="path272247" />
        <path
           d="m 195.12327,260.22637 v -1.88 q 0,-3.36 -4.4,-3.36 -2.88,0 -5.32,1.24 -0.84,0.44 -0.92,0.44 -0.4,0 -0.92,-0.8 -0.48,-0.8 -0.48,-1.2 0,-0.84 2.32,-1.68 2.36,-0.88 5.64,-0.88 3.28,0 5.36,1.68 2.08,1.64 2.08,4.6 v 8.96 q 0,2.4 0.2,3.48 0.28,1.48 0.28,1.56 0,0.48 -0.76,0.72 -0.76,0.2 -1.2,0.2 -0.4,0 -0.56,-0.08 -0.16,-0.08 -0.32,-0.28 -0.12,-0.2 -0.2,-0.36 -0.08,-0.2 -0.16,-0.52 -0.08,-0.32 -0.16,-0.48 -0.04,-0.2 -0.12,-0.56 -0.04,-0.4 -0.08,-0.52 -2.72,3 -6.72,3 -3.08,0 -4.96,-1.52 -1.88,-1.52 -1.88,-4.68 0,-3.16 2.16,-4.72 2.2,-1.6 4.92,-1.92 2.72,-0.36 6.2,-0.44 z m -9.68,7.08 q 0,3.28 3.4,3.28 1.96,0 3.36,-0.72 1.44,-0.72 2.92,-2.04 v -4.72 q -5,0 -6.44,0.56 -0.76,0.28 -1.6,0.72 -1.64,0.84 -1.64,2.92 z"
           style="font-family:Asap;-inkscape-font-specification:Asap;fill:#ffffff"
           id="path272249" />
        <path
           d="m 216.36319,247.30637 q -1.6,0 -1.6,-0.88 v -2.36 q 0,-0.88 1.6,-0.88 h 0.48 q 1.6,0 1.6,0.88 v 2.36 q 0,0.88 -1.6,0.88 z m -1.44,25.16 v -19.32 q 0,-0.88 1.6,-0.88 h 0.16 q 1.6,0 1.6,0.88 v 19.32 q 0,0.88 -1.6,0.88 h -0.16 q -1.6,0 -1.6,-0.88 z"
           style="font-family:Asap;-inkscape-font-specification:Asap;fill:#ffffff"
           id="path272251" />
        <path
           d="m 225.32316,272.46637 v -14.04 q 0,-2.44 -0.2,-3.48 -0.28,-1.44 -0.28,-1.56 0,-0.48 0.76,-0.68 0.76,-0.24 1.16,-0.24 0.44,0 0.6,0.08 0.16,0.08 0.28,0.28 0.16,0.16 0.24,0.36 0.08,0.16 0.16,0.48 0.08,0.28 0.12,0.48 0.08,0.16 0.12,0.52 0.08,0.32 0.12,0.44 2.68,-3 5.96,-3 3.32,0 5.04,1.72 1.76,1.72 1.76,4.76 v 13.88 q 0,0.88 -1.6,0.88 h -0.16 q -1.6,0 -1.6,-0.88 v -13.56 q 0,-1.84 -1.08,-2.84 -1.04,-1.04 -3,-1.04 -2.88,0 -5.04,2.8 v 14.64 q 0,0.88 -1.6,0.88 h -0.16 q -1.6,0 -1.6,-0.88 z"
           style="font-family:Asap;-inkscape-font-specification:Asap;fill:#ffffff"
           id="path272253" />
        <path
           d="m 247.56313,272.46637 v -14.04 q 0,-2.44 -0.2,-3.48 -0.28,-1.44 -0.28,-1.56 0,-0.48 0.76,-0.68 0.76,-0.24 1.16,-0.24 0.44,0 0.6,0.08 0.16,0.08 0.28,0.28 0.16,0.16 0.24,0.36 0.08,0.16 0.16,0.48 0.08,0.28 0.12,0.48 0.08,0.16 0.12,0.52 0.08,0.32 0.12,0.44 2.6,-3 6.08,-3 4.36,0 5.72,3.32 2.8,-3.32 6.36,-3.32 2.28,0 4.08,1.16 1,0.68 1.6,2.04 0.6,1.36 0.6,3.28 v 13.88 q 0,0.88 -1.6,0.88 h -0.16 q -1.6,0 -1.6,-0.88 v -13.56 q 0,-1.8 -1,-2.84 -0.96,-1.04 -2.84,-1.04 -2.48,0 -4.92,2.76 0.04,0.28 0.04,0.84 v 13.84 q 0,0.88 -1.6,0.88 h -0.16 q -1.6,0 -1.6,-0.88 v -13.56 q 0,-1.8 -1,-2.84 -0.96,-1.04 -2.56,-1.04 -1.56,0 -2.8,0.68 -1.2,0.68 -1.76,1.4 l -0.6,0.68 v 14.68 q 0,0.88 -1.6,0.88 h -0.16 q -1.6,0 -1.6,-0.88 z"
           style="font-family:Asap;-inkscape-font-specification:Asap;fill:#ffffff"
           id="path272255" />
        <path
           d="m 281.08311,267.02637 v -13.88 q 0,-0.88 1.6,-0.88 h 0.16 q 1.6,0 1.6,0.88 v 13.56 q 0,1.84 1.04,2.88 1.08,1 3.04,1 2.88,0 5.04,-2.8 v -14.64 q 0,-0.88 1.6,-0.88 h 0.16 q 1.6,0 1.6,0.88 v 14.2 q 0,2.4 0.2,3.48 0.28,1.48 0.28,1.56 0,0.48 -0.76,0.72 -0.76,0.2 -1.2,0.2 -0.4,0 -0.56,-0.08 -0.16,-0.08 -0.32,-0.28 -0.12,-0.2 -0.2,-0.36 -0.08,-0.2 -0.16,-0.52 -0.08,-0.32 -0.16,-0.48 -0.04,-0.2 -0.12,-0.56 -0.04,-0.4 -0.08,-0.52 -2.68,3 -6,3 -3.28,0 -5.04,-1.72 -1.72,-1.72 -1.72,-4.76 z"
           style="font-family:Asap;-inkscape-font-specification:Asap;fill:#ffffff"
           id="path272257" />
        <path
           d="m 303.80308,272.46637 v -14.04 q 0,-2.44 -0.2,-3.48 -0.28,-1.44 -0.28,-1.56 0,-0.48 0.76,-0.68 0.76,-0.24 1.16,-0.24 0.44,0 0.6,0.08 0.16,0.08 0.28,0.28 0.16,0.16 0.24,0.36 0.08,0.16 0.16,0.48 0.08,0.28 0.12,0.48 0.08,0.16 0.12,0.52 0.08,0.32 0.12,0.44 2.68,-3 5.96,-3 3.32,0 5.04,1.72 1.76,1.72 1.76,4.76 v 13.88 q 0,0.88 -1.6,0.88 h -0.16 q -1.6,0 -1.6,-0.88 v -13.56 q 0,-1.84 -1.08,-2.84 -1.04,-1.04 -3,-1.04 -2.88,0 -5.04,2.8 v 14.64 q 0,0.88 -1.6,0.88 h -0.16 q -1.6,0 -1.6,-0.88 z"
           style="font-family:Asap;-inkscape-font-specification:Asap;fill:#ffffff"
           id="path272259" />
        <path
           d="m 334.64307,273.50637 q -5,0 -7.4,-2.6 -2.4,-2.6 -2.4,-7.92 0,-5.36 2.36,-8.12 2.36,-2.76 6.72,-2.76 8.48,0 8.48,10.44 0,0.36 -0.48,1 -0.48,0.64 -0.84,0.64 h -12.64 q 0.24,3.32 1.72,4.88 1.48,1.56 4.44,1.56 2.72,0 5,-1.28 0.76,-0.4 0.84,-0.4 0.4,0 0.88,0.8 0.52,0.8 0.52,1.2 0,0.8 -2.2,1.68 -2.16,0.88 -5,0.88 z m 4.2,-12.2 q 0,-6.32 -4.8,-6.32 -5.16,0 -5.6,6.32 z"
           style="font-family:Asap;-inkscape-font-specification:Asap;fill:#ffffff"
           id="path272261" />
        <path
           d="m 357.20304,272.46637 v -14.04 q 0,-2.44 -0.2,-3.48 -0.28,-1.44 -0.28,-1.56 0,-0.48 0.76,-0.68 0.76,-0.24 1.16,-0.24 0.44,0 0.6,0.08 0.16,0.08 0.28,0.28 0.16,0.16 0.24,0.36 0.08,0.16 0.16,0.48 0.08,0.28 0.12,0.48 0.08,0.16 0.12,0.52 0.08,0.32 0.12,0.44 2.6,-3 6.08,-3 4.36,0 5.72,3.32 2.8,-3.32 6.36,-3.32 2.28,0 4.08,1.16 1,0.68 1.6,2.04 0.6,1.36 0.6,3.28 v 13.88 q 0,0.88 -1.6,0.88 h -0.16 q -1.6,0 -1.6,-0.88 v -13.56 q 0,-1.8 -1,-2.84 -0.96,-1.04 -2.84,-1.04 -2.48,0 -4.92,2.76 0.04,0.28 0.04,0.84 v 13.84 q 0,0.88 -1.6,0.88 h -0.16 q -1.6,0 -1.6,-0.88 v -13.56 q 0,-1.8 -1,-2.84 -0.96,-1.04 -2.56,-1.04 -1.56,0 -2.8,0.68 -1.2,0.68 -1.76,1.4 l -0.6,0.68 v 14.68 q 0,0.88 -1.6,0.88 h -0.16 q -1.6,0 -1.6,-0.88 z"
           style="font-family:Asap;-inkscape-font-specification:Asap;fill:#ffffff"
           id="path272263" />
        <path
           d="m 390.72302,267.02637 v -13.88 q 0,-0.88 1.6,-0.88 h 0.16 q 1.6,0 1.6,0.88 v 13.56 q 0,1.84 1.04,2.88 1.08,1 3.04,1 2.88,0 5.04,-2.8 v -14.64 q 0,-0.88 1.6,-0.88 h 0.16 q 1.6,0 1.6,0.88 v 14.2 q 0,2.4 0.2,3.48 0.28,1.48 0.28,1.56 0,0.48 -0.76,0.72 -0.76,0.2 -1.2,0.2 -0.4,0 -0.56,-0.08 -0.16,-0.08 -0.32,-0.28 -0.12,-0.2 -0.2,-0.36 -0.08,-0.2 -0.16,-0.52 -0.08,-0.32 -0.16,-0.48 -0.04,-0.2 -0.12,-0.56 -0.04,-0.4 -0.08,-0.52 -2.68,3 -6,3 -3.28,0 -5.04,-1.72 -1.72,-1.72 -1.72,-4.76 z"
           style="font-family:Asap;-inkscape-font-specification:Asap;fill:#ffffff"
           id="path272265" />
        <path
           d="m 410.72299,252.94637 q 0,-0.68 1.72,-0.68 h 0.32 q 1.32,0 1.6,0.64 l 5.44,14.44 5.32,-14.44 q 0.2,-0.64 1.76,-0.64 1.6,0 1.6,0.68 0,0.2 -0.12,0.56 l -10.28,27.24 q -0.32,0.84 -1.88,0.84 h -0.6 q -1.32,0 -1.32,-0.64 0,-0.12 3.56,-8.8 l -7,-18.68 q -0.12,-0.36 -0.12,-0.52 z"
           style="font-family:Asap;-inkscape-font-specification:Asap;fill:#ffffff"
           id="path272267" />
        <path
           d="m 79.803516,330.71608 q -2.88,3 -6.4,3 -3.52,0 -5.64,-2.96 -2.08,-2.96 -2.08,-7.6 v -0.36 q 0,-4.92 2.24,-7.68 2.24,-2.8 5.6,-2.8 3.36,0 6,2.04 v -10.08 q 0,-0.88 1.6,-0.88 h 0.16 q 1.6,0 1.6,0.88 v 23.28 q 0,2.4 0.2,3.48 0.28,1.48 0.28,1.56 0,0.48 -0.76,0.72 -0.76,0.2 -1.2,0.2 -0.4,0 -0.56,-0.08 -0.16,-0.08 -0.32,-0.28 -0.12,-0.2 -0.2,-0.36 -0.08,-0.2 -0.16,-0.52 -0.08,-0.32 -0.16,-0.48 -0.04,-0.2 -0.12,-0.56 -0.04,-0.4 -0.08,-0.52 z m -10.6,-8 q 0,8.08 5.2,8.08 2.6,0 5.12,-2.76 v -10.96 q -2.16,-1.8 -4.84,-1.8 h -0.24 q -2.56,0.04 -3.92,1.96 -1.32,1.92 -1.32,5.48 z"
           style="font-family:Asap;-inkscape-font-specification:Asap;fill:#ffffff"
           id="path272269" />
        <path
           d="m 98.203461,333.71608 q -5,0 -7.4,-2.6 -2.4,-2.6 -2.4,-7.92 0,-5.36 2.36,-8.12 2.36,-2.76 6.72,-2.76 8.479999,0 8.479999,10.44 0,0.36 -0.48,1 -0.48,0.64 -0.84,0.64 H 92.003461 q 0.24,3.32 1.72,4.88 1.48,1.56 4.44,1.56 2.719999,0 4.999999,-1.28 0.76,-0.4 0.84,-0.4 0.4,0 0.88,0.8 0.52,0.8 0.52,1.2 0,0.8 -2.2,1.68 -2.16,0.88 -4.999999,0.88 z m 4.199999,-12.2 q 0,-6.32 -4.799999,-6.32 -5.16,0 -5.6,6.32 z"
           style="font-family:Asap;-inkscape-font-specification:Asap;fill:#ffffff"
           id="path272271" />
        <path
           d="m 111.16344,332.67608 v -28.4 q 0,-0.88 1.6,-0.88 h 0.16 q 1.6,0 1.6,0.88 v 10.08 q 2.64,-2.04 6,-2.04 3.36,0 5.6,2.8 2.24,2.76 2.24,7.68 v 0.36 q 0,4.64 -2.12,7.6 -2.08,2.96 -5.6,2.96 -3.52,0 -6.4,-3 l -0.64,2.36 q -0.2,0.48 -1.08,0.48 h -0.16 q -1.2,0 -1.2,-0.88 z m 3.36,-4.64 q 2.52,2.76 5.16,2.76 5.16,0 5.16,-8.08 0,-3.56 -1.36,-5.48 -1.32,-1.92 -3.88,-1.96 h -0.24 q -2.68,0 -4.84,1.8 z"
           style="font-family:Asap;-inkscape-font-specification:Asap;fill:#ffffff"
           id="path272273" />
        <path
           d="m 135.60338,307.51608 q -1.6,0 -1.6,-0.88 v -2.36 q 0,-0.88 1.6,-0.88 h 0.48 q 1.6,0 1.6,0.88 v 2.36 q 0,0.88 -1.6,0.88 z m -1.44,25.16 v -19.32 q 0,-0.88 1.6,-0.88 h 0.16 q 1.6,0 1.6,0.88 v 19.32 q 0,0.88 -1.6,0.88 h -0.16 q -1.6,0 -1.6,-0.88 z"
           style="font-family:Asap;-inkscape-font-specification:Asap;fill:#ffffff"
           id="path272275" />
        <path
           d="m 144.40335,328.19608 v -23.92 q 0,-0.88 1.6,-0.88 h 0.16 q 1.6,0 1.6,0.88 v 23.6 q 0,2.96 2.16,2.96 0.68,0 1.16,-0.08 0.48,-0.12 0.56,-0.12 0.36,0 0.6,0.76 0.24,0.72 0.24,1.12 0,1.2 -2.92,1.2 -2,0 -3.6,-1.2 -1.56,-1.24 -1.56,-4.32 z"
           style="font-family:Asap;-inkscape-font-specification:Asap;fill:#ffffff"
           id="path272277" />
        <path
           d="m 158.08331,307.51608 q -1.6,0 -1.6,-0.88 v -2.36 q 0,-0.88 1.6,-0.88 h 0.48 q 1.6,0 1.6,0.88 v 2.36 q 0,0.88 -1.6,0.88 z m -1.44,25.16 v -19.32 q 0,-0.88 1.6,-0.88 h 0.16 q 1.6,0 1.6,0.88 v 19.32 q 0,0.88 -1.6,0.88 h -0.16 q -1.6,0 -1.6,-0.88 z"
           style="font-family:Asap;-inkscape-font-specification:Asap;fill:#ffffff"
           id="path272279" />
        <path
           d="m 167.88329,328.19608 v -12.76 h -2 q -0.8,0 -0.8,-1.2 v -0.48 q 0,-1.2 0.8,-1.2 h 2 l 0.48,-4.2 q 0.08,-0.88 1.28,-0.88 h 0.4 q 1.2,0 1.2,0.88 v 4.2 h 3.36 q 0.8,0 0.8,1.2 v 0.48 q 0,1.2 -0.8,1.2 h -3.36 v 12.44 q 0,2.96 2.16,2.96 0.68,0 1.16,-0.08 0.48,-0.12 0.56,-0.12 0.36,0 0.6,0.76 0.24,0.72 0.24,1.12 0,1.2 -2.92,1.2 -2,0 -3.6,-1.2 -1.56,-1.24 -1.56,-4.32 z"
           style="font-family:Asap;-inkscape-font-specification:Asap;fill:#ffffff"
           id="path272281" />
        <path
           d="m 192.52325,320.43608 v -1.88 q 0,-3.36 -4.4,-3.36 -2.88,0 -5.32,1.24 -0.84,0.44 -0.92,0.44 -0.4,0 -0.92,-0.8 -0.48,-0.8 -0.48,-1.2 0,-0.84 2.32,-1.68 2.36,-0.88 5.64,-0.88 3.28,0 5.36,1.68 2.08,1.64 2.08,4.6 v 8.96 q 0,2.4 0.2,3.48 0.28,1.48 0.28,1.56 0,0.48 -0.76,0.72 -0.76,0.2 -1.2,0.2 -0.4,0 -0.56,-0.08 -0.16,-0.08 -0.32,-0.28 -0.12,-0.2 -0.2,-0.36 -0.08,-0.2 -0.16,-0.52 -0.08,-0.32 -0.16,-0.48 -0.04,-0.2 -0.12,-0.56 -0.04,-0.4 -0.08,-0.52 -2.72,3 -6.72,3 -3.08,0 -4.96,-1.52 -1.88,-1.52 -1.88,-4.68 0,-3.16 2.16,-4.72 2.2,-1.6 4.92,-1.92 2.72,-0.36 6.2,-0.44 z m -9.68,7.08 q 0,3.28 3.4,3.28 1.96,0 3.36,-0.72 1.44,-0.72 2.92,-2.04 v -4.72 q -5,0 -6.44,0.56 -0.76,0.28 -1.6,0.72 -1.64,0.84 -1.64,2.92 z"
           style="font-family:Asap;-inkscape-font-specification:Asap;fill:#ffffff"
           id="path272283" />
        <path
           d="m 215.28318,330.71608 q -2.88,3 -6.4,3 -3.52,0 -5.64,-2.96 -2.08,-2.96 -2.08,-7.6 v -0.36 q 0,-4.92 2.24,-7.68 2.24,-2.8 5.6,-2.8 3.36,0 6,2.04 v -10.08 q 0,-0.88 1.6,-0.88 h 0.16 q 1.6,0 1.6,0.88 v 23.28 q 0,2.4 0.2,3.48 0.28,1.48 0.28,1.56 0,0.48 -0.76,0.72 -0.76,0.2 -1.2,0.2 -0.4,0 -0.56,-0.08 -0.16,-0.08 -0.32,-0.28 -0.12,-0.2 -0.2,-0.36 -0.08,-0.2 -0.16,-0.52 -0.08,-0.32 -0.16,-0.48 -0.04,-0.2 -0.12,-0.56 -0.04,-0.4 -0.08,-0.52 z m -10.6,-8 q 0,8.08 5.2,8.08 2.6,0 5.12,-2.76 v -10.96 q -2.16,-1.8 -4.84,-1.8 h -0.24 q -2.56,0.04 -3.92,1.96 -1.32,1.92 -1.32,5.48 z"
           style="font-family:Asap;-inkscape-font-specification:Asap;fill:#ffffff"
           id="path272285" />
        <path
           d="m 233.12312,333.71608 q -4.48,0 -6.88,-2.72 -2.36,-2.72 -2.36,-7.88 0,-5.2 2.4,-8 2.4,-2.8 6.84,-2.8 4.44,0 6.76,2.8 2.36,2.76 2.36,8 0,5.2 -2.32,7.92 -2.28,2.68 -6.8,2.68 z m -4.36,-4.76 q 1.36,1.88 4.28,1.88 2.92,0 4.32,-1.88 1.4,-1.92 1.4,-5.92 0,-4 -1.4,-5.92 -1.4,-1.92 -4.32,-1.92 -2.92,0 -4.28,1.92 -1.36,1.88 -1.36,5.92 0,4 1.36,5.92 z"
           style="font-family:Asap;-inkscape-font-specification:Asap;fill:#ffffff"
           id="path272287" />
        <path
           d="m 67.483516,392.4858 v -25.6 q 0,-1.2 1.2,-1.2 h 8.08 q 5.6,0 8.96,3.36 3.4,3.32 3.4,10.68 0,7.32 -3.4,10.64 -3.36,3.32 -8.96,3.32 h -8.08 q -1.2,0 -1.2,-1.2 z m 3.52,-1.84 h 5.48 q 4.04,0 6.52,-2.64 2.48,-2.64 2.48,-8.28 0,-5.68 -2.48,-8.32 -2.48,-2.68 -6.52,-2.68 h -5.48 z"
           style="font-family:Asap;-inkscape-font-specification:Asap;fill:#ffffff"
           id="path272289" />
        <path
           d="m 103.4035,393.9258 q -4.999997,0 -7.399997,-2.6 -2.4,-2.6 -2.4,-7.92 0,-5.36 2.36,-8.12 2.36,-2.76 6.719997,-2.76 8.48,0 8.48,10.44 0,0.36 -0.48,1 -0.48,0.64 -0.84,0.64 H 97.203503 q 0.24,3.32 1.72,4.88 1.479997,1.56 4.439997,1.56 2.72,0 5,-1.28 0.76,-0.4 0.84,-0.4 0.4,0 0.88,0.8 0.52,0.8 0.52,1.2 0,0.8 -2.2,1.68 -2.16,0.88 -5,0.88 z m 4.2,-12.2 q 0,-6.32 -4.8,-6.32 -5.159997,0 -5.599997,6.32 z"
           style="font-family:Asap;-inkscape-font-specification:Asap;fill:#ffffff"
           id="path272291" />
        <path
           d="m 117.28349,392.8858 v -17.24 h -1.6 q -0.8,0 -0.8,-1.2 v -0.48 q 0,-1.2 0.8,-1.2 h 1.6 v -3.8 q 0,-3.44 1.84,-4.56 1.56,-0.96 3.32,-0.96 2.92,0 2.92,1.2 0,0.4 -0.24,1.16 -0.24,0.72 -0.6,0.72 -0.08,0 -0.56,-0.08 -0.48,-0.12 -1.36,-0.12 -0.84,0 -1.4,0.6 -0.56,0.56 -0.56,2.36 v 3.48 h 3.48 q 0.8,0 0.8,1.2 v 0.48 q 0,1.2 -0.8,1.2 h -3.48 v 17.24 q 0,0.88 -1.6,0.88 h -0.16 q -1.6,0 -1.6,-0.88 z"
           style="font-family:Asap;-inkscape-font-specification:Asap;fill:#ffffff"
           id="path272293" />
        <path
           d="m 137.96344,393.9258 q -5,0 -7.4,-2.6 -2.4,-2.6 -2.4,-7.92 0,-5.36 2.36,-8.12 2.36,-2.76 6.72,-2.76 8.48,0 8.48,10.44 0,0.36 -0.48,1 -0.48,0.64 -0.84,0.64 h -12.64 q 0.24,3.32 1.72,4.88 1.48,1.56 4.44,1.56 2.72,0 5,-1.28 0.76,-0.4 0.84,-0.4 0.4,0 0.88,0.8 0.52,0.8 0.52,1.2 0,0.8 -2.2,1.68 -2.16,0.88 -5,0.88 z m 4.2,-12.2 q 0,-6.32 -4.8,-6.32 -5.16,0 -5.6,6.32 z"
           style="font-family:Asap;-inkscape-font-specification:Asap;fill:#ffffff"
           id="path272295" />
        <path
           d="m 150.96342,392.8858 v -14.04 q 0,-2.44 -0.2,-3.48 -0.28,-1.44 -0.28,-1.56 0,-0.48 0.76,-0.68 0.76,-0.24 1.16,-0.24 0.44,0 0.6,0.08 0.16,0.08 0.28,0.28 0.16,0.16 0.24,0.36 0.08,0.16 0.16,0.48 0.08,0.28 0.12,0.48 0.08,0.16 0.12,0.52 0.08,0.32 0.12,0.44 2.68,-3 5.96,-3 3.32,0 5.04,1.72 1.76,1.72 1.76,4.76 v 13.88 q 0,0.88 -1.6,0.88 h -0.16 q -1.6,0 -1.6,-0.88 v -13.56 q 0,-1.84 -1.08,-2.84 -1.04,-1.04 -3,-1.04 -2.88,0 -5.04,2.8 v 14.64 q 0,0.88 -1.6,0.88 h -0.16 q -1.6,0 -1.6,-0.88 z"
           style="font-family:Asap;-inkscape-font-specification:Asap;fill:#ffffff"
           id="path272297" />
        <path
           d="m 171.20339,391.5258 q 0,-0.4 0.48,-1.2 0.52,-0.8 0.92,-0.8 0.04,0 0.64,0.4 0.6,0.36 1.72,0.76 1.12,0.36 2.68,0.36 1.6,0 2.6,-0.88 1.04,-0.92 1.04,-2.44 0,-1.56 -0.92,-2.4 -0.88,-0.88 -3.56,-1.64 -2.68,-0.76 -3.88,-1.92 -1.2,-1.2 -1.2,-3.6 0,-2.4 1.84,-4 1.84,-1.64 4.8,-1.64 2.04,0 3.64,0.52 1.6,0.52 1.6,1.16 0,0.52 -0.48,1.36 -0.44,0.8 -0.8,0.8 -0.04,0 -0.52,-0.24 -1.36,-0.72 -3.08,-0.72 -1.68,0 -2.64,0.72 -0.92,0.68 -0.92,1.8 0,1.12 0.68,1.76 0.72,0.64 2.4,1.16 3.76,1.16 5.08,2.56 1.36,1.36 1.36,4.16 0,2.76 -2,4.56 -1.96,1.8 -4.72,1.8 -2.76,0 -4.76,-0.8 -2,-0.84 -2,-1.6 z"
           style="font-family:Asap;-inkscape-font-specification:Asap;fill:#ffffff"
           id="path272299" />
        <path
           d="m 201.56332,380.6458 v -1.88 q 0,-3.36 -4.4,-3.36 -2.88,0 -5.32,1.24 -0.84,0.44 -0.92,0.44 -0.4,0 -0.92,-0.8 -0.48,-0.8 -0.48,-1.2 0,-0.84 2.32,-1.68 2.36,-0.88 5.64,-0.88 3.28,0 5.36,1.68 2.08,1.64 2.08,4.6 v 8.96 q 0,2.4 0.2,3.48 0.28,1.48 0.28,1.56 0,0.48 -0.76,0.72 -0.76,0.2 -1.2,0.2 -0.4,0 -0.56,-0.08 -0.16,-0.08 -0.32,-0.28 -0.12,-0.2 -0.2,-0.36 -0.08,-0.2 -0.16,-0.52 -0.08,-0.32 -0.16,-0.48 -0.04,-0.2 -0.12,-0.56 -0.04,-0.4 -0.08,-0.52 -2.72,3 -6.72,3 -3.08,0 -4.96,-1.52 -1.88,-1.52 -1.88,-4.68 0,-3.16 2.16,-4.72 2.2,-1.6 4.92,-1.92 2.72,-0.36 6.2,-0.44 z m -9.68,7.08 q 0,3.28 3.4,3.28 1.96,0 3.36,-0.72 1.44,-0.72 2.92,-2.04 v -4.72 q -5,0 -6.44,0.56 -0.76,0.28 -1.6,0.72 -1.64,0.84 -1.64,2.92 z"
           style="font-family:Asap;-inkscape-font-specification:Asap;fill:#ffffff"
           id="path272301" />
        <path
           d="m 209.52325,391.5258 q 0,-0.4 0.48,-1.2 0.52,-0.8 0.92,-0.8 0.04,0 0.64,0.4 0.6,0.36 1.72,0.76 1.12,0.36 2.68,0.36 1.6,0 2.6,-0.88 1.04,-0.92 1.04,-2.44 0,-1.56 -0.92,-2.4 -0.88,-0.88 -3.56,-1.64 -2.68,-0.76 -3.88,-1.92 -1.2,-1.2 -1.2,-3.6 0,-2.4 1.84,-4 1.84,-1.64 4.8,-1.64 2.04,0 3.64,0.52 1.6,0.52 1.6,1.16 0,0.52 -0.48,1.36 -0.44,0.8 -0.8,0.8 -0.04,0 -0.52,-0.24 -1.36,-0.72 -3.08,-0.72 -1.68,0 -2.64,0.72 -0.92,0.68 -0.92,1.8 0,1.12 0.68,1.76 0.72,0.64 2.4,1.16 3.76,1.16 5.08,2.56 1.36,1.36 1.36,4.16 0,2.76 -2,4.56 -1.96,1.8 -4.72,1.8 -2.76,0 -4.76,-0.8 -2,-0.84 -2,-1.6 z"
           style="font-family:Asap;-inkscape-font-specification:Asap;fill:#ffffff"
           id="path272303" />
        <path
           d="m 237.64316,392.8858 v -14.04 q 0,-2.44 -0.2,-3.48 -0.28,-1.44 -0.28,-1.56 0,-0.48 0.76,-0.68 0.76,-0.24 1.16,-0.24 0.44,0 0.6,0.08 0.16,0.08 0.28,0.28 0.16,0.16 0.24,0.36 0.08,0.16 0.16,0.48 0.08,0.28 0.12,0.48 0.08,0.16 0.12,0.52 0.08,0.32 0.12,0.44 2.6,-3 6.08,-3 4.36,0 5.72,3.32 2.8,-3.32 6.36,-3.32 2.28,0 4.08,1.16 1,0.68 1.6,2.04 0.6,1.36 0.6,3.28 v 13.88 q 0,0.88 -1.6,0.88 h -0.16 q -1.6,0 -1.6,-0.88 v -13.56 q 0,-1.8 -1,-2.84 -0.96,-1.04 -2.84,-1.04 -2.48,0 -4.92,2.76 0.04,0.28 0.04,0.84 v 13.84 q 0,0.88 -1.6,0.88 h -0.16 q -1.6,0 -1.6,-0.88 v -13.56 q 0,-1.8 -1,-2.84 -0.96,-1.04 -2.56,-1.04 -1.56,0 -2.8,0.68 -1.2,0.68 -1.76,1.4 l -0.6,0.68 v 14.68 q 0,0.88 -1.6,0.88 h -0.16 q -1.6,0 -1.6,-0.88 z"
           style="font-family:Asap;-inkscape-font-specification:Asap;fill:#ffffff"
           id="path272305" />
        <path
           d="m 271.16315,387.4458 v -13.88 q 0,-0.88 1.6,-0.88 h 0.16 q 1.6,0 1.6,0.88 v 13.56 q 0,1.84 1.04,2.88 1.08,1 3.04,1 2.88,0 5.04,-2.8 v -14.64 q 0,-0.88 1.6,-0.88 h 0.16 q 1.6,0 1.6,0.88 v 14.2 q 0,2.4 0.2,3.48 0.28,1.48 0.28,1.56 0,0.48 -0.76,0.72 -0.76,0.2 -1.2,0.2 -0.4,0 -0.56,-0.08 -0.16,-0.08 -0.32,-0.28 -0.12,-0.2 -0.2,-0.36 -0.08,-0.2 -0.16,-0.52 -0.08,-0.32 -0.16,-0.48 -0.04,-0.2 -0.12,-0.56 -0.04,-0.4 -0.08,-0.52 -2.68,3 -6,3 -3.28,0 -5.04,-1.72 -1.72,-1.72 -1.72,-4.76 z"
           style="font-family:Asap;-inkscape-font-specification:Asap;fill:#ffffff"
           id="path272307" />
        <path
           d="m 291.16312,373.3658 q 0,-0.68 1.72,-0.68 h 0.32 q 1.32,0 1.6,0.64 l 5.44,14.44 5.32,-14.44 q 0.2,-0.64 1.76,-0.64 1.6,0 1.6,0.68 0,0.2 -0.12,0.56 l -10.28,27.24 q -0.32,0.84 -1.88,0.84 h -0.6 q -1.32,0 -1.32,-0.64 0,-0.12 3.56,-8.8 l -7,-18.68 q -0.12,-0.36 -0.12,-0.52 z"
           style="font-family:Asap;-inkscape-font-specification:Asap;fill:#ffffff"
           id="path272309" />
        <path
           d="m 322.68307,392.8858 v -28.4 q 0,-0.88 1.6,-0.88 h 0.16 q 1.6,0 1.6,0.88 v 10.08 q 2.64,-2.04 6,-2.04 3.36,0 5.6,2.8 2.24,2.76 2.24,7.68 v 0.36 q 0,4.64 -2.12,7.6 -2.08,2.96 -5.6,2.96 -3.52,0 -6.4,-3 l -0.64,2.36 q -0.2,0.48 -1.08,0.48 h -0.16 q -1.2,0 -1.2,-0.88 z m 3.36,-4.64 q 2.52,2.76 5.16,2.76 5.16,0 5.16,-8.08 0,-3.56 -1.36,-5.48 -1.32,-1.92 -3.88,-1.96 h -0.24 q -2.68,0 -4.84,1.8 z"
           style="font-family:Asap;-inkscape-font-specification:Asap;fill:#ffffff"
           id="path272311" />
        <path
           d="m 357.283,380.6458 v -1.88 q 0,-3.36 -4.4,-3.36 -2.88,0 -5.32,1.24 -0.84,0.44 -0.92,0.44 -0.4,0 -0.92,-0.8 -0.48,-0.8 -0.48,-1.2 0,-0.84 2.32,-1.68 2.36,-0.88 5.64,-0.88 3.28,0 5.36,1.68 2.08,1.64 2.08,4.6 v 8.96 q 0,2.4 0.2,3.48 0.28,1.48 0.28,1.56 0,0.48 -0.76,0.72 -0.76,0.2 -1.2,0.2 -0.4,0 -0.56,-0.08 -0.16,-0.08 -0.32,-0.28 -0.12,-0.2 -0.2,-0.36 -0.08,-0.2 -0.16,-0.52 -0.08,-0.32 -0.16,-0.48 -0.04,-0.2 -0.12,-0.56 -0.04,-0.4 -0.08,-0.52 -2.72,3 -6.72,3 -3.08,0 -4.96,-1.52 -1.88,-1.52 -1.88,-4.68 0,-3.16 2.16,-4.72 2.2,-1.6 4.92,-1.92 2.72,-0.36 6.2,-0.44 z m -9.68,7.08 q 0,3.28 3.4,3.28 1.96,0 3.36,-0.72 1.44,-0.72 2.92,-2.04 v -4.72 q -5,0 -6.44,0.56 -0.76,0.28 -1.6,0.72 -1.64,0.84 -1.64,2.92 z"
           style="font-family:Asap;-inkscape-font-specification:Asap;fill:#ffffff"
           id="path272313" />
        <path
           d="m 369.32293,367.7258 q -1.6,0 -1.6,-0.88 v -2.36 q 0,-0.88 1.6,-0.88 h 0.48 q 1.6,0 1.6,0.88 v 2.36 q 0,0.88 -1.6,0.88 z m -1.44,28.6 v -22.76 q 0,-0.88 1.6,-0.88 h 0.16 q 1.6,0 1.6,0.88 v 23.08 q 0,3.08 -1.6,4.28 -1.56,1.24 -3.56,1.24 -2.92,0 -2.92,-1.2 0,-0.4 0.24,-1.16 0.24,-0.72 0.6,-0.72 0.08,0 0.56,0.08 0.48,0.12 1.16,0.12 2.16,0 2.16,-2.96 z"
           style="font-family:Asap;-inkscape-font-specification:Asap;fill:#ffffff"
           id="path272315" />
        <path
           d="m 390.12287,380.6458 v -1.88 q 0,-3.36 -4.4,-3.36 -2.88,0 -5.32,1.24 -0.84,0.44 -0.92,0.44 -0.4,0 -0.92,-0.8 -0.48,-0.8 -0.48,-1.2 0,-0.84 2.32,-1.68 2.36,-0.88 5.64,-0.88 3.28,0 5.36,1.68 2.08,1.64 2.08,4.6 v 8.96 q 0,2.4 0.2,3.48 0.28,1.48 0.28,1.56 0,0.48 -0.76,0.72 -0.76,0.2 -1.2,0.2 -0.4,0 -0.56,-0.08 -0.16,-0.08 -0.32,-0.28 -0.12,-0.2 -0.2,-0.36 -0.08,-0.2 -0.16,-0.52 -0.08,-0.32 -0.16,-0.48 -0.04,-0.2 -0.12,-0.56 -0.04,-0.4 -0.08,-0.52 -2.72,3 -6.72,3 -3.08,0 -4.96,-1.52 -1.88,-1.52 -1.88,-4.68 0,-3.16 2.16,-4.72 2.2,-1.6 4.92,-1.92 2.72,-0.36 6.2,-0.44 z m -9.68,7.08 q 0,3.28 3.4,3.28 1.96,0 3.36,-0.72 1.44,-0.72 2.92,-2.04 v -4.72 q -5,0 -6.44,0.56 -0.76,0.28 -1.6,0.72 -1.64,0.84 -1.64,2.92 z"
           style="font-family:Asap;-inkscape-font-specification:Asap;fill:#ffffff"
           id="path272317" />
        <path
           d="m 398.0828,391.5258 q 0,-0.4 0.48,-1.2 0.52,-0.8 0.92,-0.8 0.04,0 0.64,0.4 0.6,0.36 1.72,0.76 1.12,0.36 2.68,0.36 1.6,0 2.6,-0.88 1.04,-0.92 1.04,-2.44 0,-1.56 -0.92,-2.4 -0.88,-0.88 -3.56,-1.64 -2.68,-0.76 -3.88,-1.92 -1.2,-1.2 -1.2,-3.6 0,-2.4 1.84,-4 1.84,-1.64 4.8,-1.64 2.04,0 3.64,0.52 1.6,0.52 1.6,1.16 0,0.52 -0.48,1.36 -0.44,0.8 -0.8,0.8 -0.04,0 -0.52,-0.24 -1.36,-0.72 -3.08,-0.72 -1.68,0 -2.64,0.72 -0.92,0.68 -0.92,1.8 0,1.12 0.68,1.76 0.72,0.64 2.4,1.16 3.76,1.16 5.08,2.56 1.36,1.36 1.36,4.16 0,2.76 -2,4.56 -1.96,1.8 -4.72,1.8 -2.76,0 -4.76,-0.8 -2,-0.84 -2,-1.6 z"
           style="font-family:Asap;-inkscape-font-specification:Asap;fill:#ffffff"
           id="path272319" />
        <path
           d="m 64.083516,453.29552 q 0,-0.2 0.12,-0.56 l 9.48,-26.28 q 0.2,-0.64 1.6,-0.64 h 1.16 q 1.4,0 1.6,0.64 l 9.48,26.32 q 0.12,0.28 0.12,0.52 0,0.68 -1.72,0.68 h -0.32 q -1.4,0 -1.6,-0.64 l -2.36,-6.56 h -11.76 l -2.28,6.56 q -0.2,0.64 -1.6,0.64 h -0.2 q -1.72,0 -1.72,-0.68 z m 6.92,-9.56 h 9.56 l -4.2,-11.92 -0.52,-2.32 -0.64,2.32 z"
           style="font-family:Asap;-inkscape-font-specification:Asap;fill:#ffffff"
           id="path272321" />
        <path
           d="m 94.923474,461.33552 q 0,0.88 -1.6,0.88 h -0.16 q -1.6,0 -1.6,-0.88 v -22.28 q 0,-2.44 -0.2,-3.48 -0.28,-1.44 -0.28,-1.56 0,-0.48 0.76,-0.68 0.76,-0.24 1.16,-0.24 0.44,0 0.6,0.08 0.16,0.08 0.28,0.28 0.16,0.16 0.24,0.36 0.08,0.16 0.16,0.48 0.08,0.28 0.12,0.48 0.08,0.16 0.12,0.52 0.08,0.32 0.12,0.44 2.88,-3 6.399996,-3 3.52,0 5.6,2.96 2.12,2.96 2.12,7.6 v 0.36 q 0,4.92 -2.24,7.72 -2.24,2.76 -5.6,2.76 -3.359996,0 -5.999996,-2.04 z m 4.84,-10.16 h 0.239996 q 2.56,-0.04 3.88,-1.96 1.36,-1.92 1.36,-5.64 0,-3.72 -1.28,-5.8 -1.28,-2.12 -3.92,-2.12 -2.599996,0 -5.119996,2.76 v 10.96 q 2.16,1.8 4.84,1.8 z"
           style="font-family:Asap;-inkscape-font-specification:Asap;fill:#ffffff"
           id="path272323" />
        <path
           d="m 126.28347,440.85552 v -1.88 q 0,-3.36 -4.4,-3.36 -2.88,0 -5.32,1.24 -0.84,0.44 -0.92,0.44 -0.4,0 -0.92,-0.8 -0.48,-0.8 -0.48,-1.2 0,-0.84 2.32,-1.68 2.36,-0.88 5.64,-0.88 3.28,0 5.36,1.68 2.08,1.64 2.08,4.6 v 8.96 q 0,2.4 0.2,3.48 0.28,1.48 0.28,1.56 0,0.48 -0.76,0.72 -0.76,0.2 -1.2,0.2 -0.4,0 -0.56,-0.08 -0.16,-0.08 -0.32,-0.28 -0.12,-0.2 -0.2,-0.36 -0.08,-0.2 -0.16,-0.52 -0.08,-0.32 -0.16,-0.48 -0.04,-0.2 -0.12,-0.56 -0.04,-0.4 -0.08,-0.52 -2.72,3 -6.72,3 -3.08,0 -4.96,-1.52 -1.88,-1.52 -1.88,-4.68 0,-3.16 2.16,-4.72 2.2,-1.6 4.92,-1.92 2.72,-0.36 6.2,-0.44 z m -9.68,7.08 q 0,3.28 3.4,3.28 1.96,0 3.36,-0.72 1.44,-0.72 2.92,-2.04 v -4.72 q -5,0 -6.44,0.56 -0.76,0.28 -1.6,0.72 -1.64,0.84 -1.64,2.92 z"
           style="font-family:Asap;-inkscape-font-specification:Asap;fill:#ffffff"
           id="path272325" />
        <path
           d="m 136.4434,453.09552 v -14.04 q 0,-2.44 -0.2,-3.48 -0.28,-1.44 -0.28,-1.56 0,-0.48 0.76,-0.68 0.76,-0.24 1.16,-0.24 0.44,0 0.6,0.08 0.16,0.08 0.28,0.28 0.16,0.16 0.24,0.36 0.08,0.16 0.16,0.48 0.08,0.28 0.12,0.48 0.08,0.16 0.12,0.52 0.08,0.32 0.12,0.44 2.12,-3 4.64,-3 1.12,0 1.72,0.44 0.6,0.44 0.6,1.12 0,0.68 -0.24,1.44 -0.24,0.72 -0.56,0.72 -0.16,0 -0.8,-0.2 -0.6,-0.24 -1.48,-0.24 -0.84,0 -1.76,0.64 -0.92,0.6 -1.36,1.2 l -0.48,0.6 v 14.64 q 0,0.88 -1.6,0.88 h -0.16 q -1.6,0 -1.6,-0.88 z"
           style="font-family:Asap;-inkscape-font-specification:Asap;fill:#ffffff"
           id="path272327" />
        <path
           d="m 159.48337,454.13552 q -5,0 -7.4,-2.6 -2.4,-2.6 -2.4,-7.92 0,-5.36 2.36,-8.12 2.36,-2.76 6.72,-2.76 8.48,0 8.48,10.44 0,0.36 -0.48,1 -0.48,0.64 -0.84,0.64 h -12.64 q 0.24,3.32 1.72,4.88 1.48,1.56 4.44,1.56 2.72,0 5,-1.28 0.76,-0.4 0.84,-0.4 0.4,0 0.88,0.8 0.52,0.8 0.52,1.2 0,0.8 -2.2,1.68 -2.16,0.88 -5,0.88 z m 4.2,-12.2 q 0,-6.32 -4.8,-6.32 -5.16,0 -5.6,6.32 z"
           style="font-family:Asap;-inkscape-font-specification:Asap;fill:#ffffff"
           id="path272329" />
        <path
           d="m 171.12335,443.33552 q 0,-3 0.8,-5.16 0.84,-2.16 2.24,-3.32 2.64,-2.12 6.44,-2.12 2.32,0 4.16,0.56 1.84,0.56 1.84,1.28 0,0.52 -0.48,1.36 -0.44,0.8 -0.8,0.8 -0.04,0 -0.16,-0.04 -0.08,-0.04 -0.16,-0.04 -0.04,-0.04 -0.12,-0.08 -2.16,-0.96 -4.36,-0.96 -5.8,0 -5.8,7.64 0,4.24 1.4,6.12 1.44,1.88 4.8,1.88 2.44,0 4.52,-1.04 0.12,-0.04 0.24,-0.08 0.16,-0.08 0.2,-0.08 0.4,0 0.88,0.8 0.48,0.76 0.48,1.24 0,0.72 -1.88,1.4 -1.88,0.64 -4.4,0.64 -4.96,0 -7.4,-2.56 -2.44,-2.56 -2.44,-8.24 z"
           style="font-family:Asap;-inkscape-font-specification:Asap;fill:#ffffff"
           id="path272331" />
        <path
           d="m 200.4433,454.13552 q -5,0 -7.4,-2.6 -2.4,-2.6 -2.4,-7.92 0,-5.36 2.36,-8.12 2.36,-2.76 6.72,-2.76 8.48,0 8.48,10.44 0,0.36 -0.48,1 -0.48,0.64 -0.84,0.64 h -12.64 q 0.24,3.32 1.72,4.88 1.48,1.56 4.44,1.56 2.72,0 5,-1.28 0.76,-0.4 0.84,-0.4 0.4,0 0.88,0.8 0.52,0.8 0.52,1.2 0,0.8 -2.2,1.68 -2.16,0.88 -5,0.88 z m 4.2,-12.2 q 0,-6.32 -4.8,-6.32 -5.16,0 -5.6,6.32 z"
           style="font-family:Asap;-inkscape-font-specification:Asap;fill:#ffffff"
           id="path272333" />
        <path
           d="m 213.44328,453.09552 v -14.04 q 0,-2.44 -0.2,-3.48 -0.28,-1.44 -0.28,-1.56 0,-0.48 0.76,-0.68 0.76,-0.24 1.16,-0.24 0.44,0 0.6,0.08 0.16,0.08 0.28,0.28 0.16,0.16 0.24,0.36 0.08,0.16 0.16,0.48 0.08,0.28 0.12,0.48 0.08,0.16 0.12,0.52 0.08,0.32 0.12,0.44 2.68,-3 5.96,-3 3.32,0 5.04,1.72 1.76,1.72 1.76,4.76 v 13.88 q 0,0.88 -1.6,0.88 h -0.16 q -1.6,0 -1.6,-0.88 v -13.56 q 0,-1.84 -1.08,-2.84 -1.04,-1.04 -3,-1.04 -2.88,0 -5.04,2.8 v 14.64 q 0,0.88 -1.6,0.88 h -0.16 q -1.6,0 -1.6,-0.88 z"
           style="font-family:Asap;-inkscape-font-specification:Asap;fill:#ffffff"
           id="path272335" />
        <path
           d="m 245.28324,453.09552 v -14.04 q 0,-2.44 -0.2,-3.48 -0.28,-1.44 -0.28,-1.56 0,-0.48 0.76,-0.68 0.76,-0.24 1.16,-0.24 0.44,0 0.6,0.08 0.16,0.08 0.28,0.28 0.16,0.16 0.24,0.36 0.08,0.16 0.16,0.48 0.08,0.28 0.12,0.48 0.08,0.16 0.12,0.52 0.08,0.32 0.12,0.44 2.6,-3 6.08,-3 4.36,0 5.72,3.32 2.8,-3.32 6.36,-3.32 2.28,0 4.08,1.16 1,0.68 1.6,2.04 0.6,1.36 0.6,3.28 v 13.88 q 0,0.88 -1.6,0.88 h -0.16 q -1.6,0 -1.6,-0.88 v -13.56 q 0,-1.8 -1,-2.84 -0.96,-1.04 -2.84,-1.04 -2.48,0 -4.92,2.76 0.04,0.28 0.04,0.84 v 13.84 q 0,0.88 -1.6,0.88 h -0.16 q -1.6,0 -1.6,-0.88 v -13.56 q 0,-1.8 -1,-2.84 -0.96,-1.04 -2.56,-1.04 -1.56,0 -2.8,0.68 -1.2,0.68 -1.76,1.4 l -0.6,0.68 v 14.68 q 0,0.88 -1.6,0.88 h -0.16 q -1.6,0 -1.6,-0.88 z"
           style="font-family:Asap;-inkscape-font-specification:Asap;fill:#ffffff"
           id="path272337" />
        <path
           d="m 278.80322,447.65552 v -13.88 q 0,-0.88 1.6,-0.88 h 0.16 q 1.6,0 1.6,0.88 v 13.56 q 0,1.84 1.04,2.88 1.08,1 3.04,1 2.88,0 5.04,-2.8 v -14.64 q 0,-0.88 1.6,-0.88 h 0.16 q 1.6,0 1.6,0.88 v 14.2 q 0,2.4 0.2,3.48 0.28,1.48 0.28,1.56 0,0.48 -0.76,0.72 -0.76,0.2 -1.2,0.2 -0.4,0 -0.56,-0.08 -0.16,-0.08 -0.32,-0.28 -0.12,-0.2 -0.2,-0.36 -0.08,-0.2 -0.16,-0.52 -0.08,-0.32 -0.16,-0.48 -0.04,-0.2 -0.12,-0.56 -0.04,-0.4 -0.08,-0.52 -2.68,3 -6,3 -3.28,0 -5.04,-1.72 -1.72,-1.72 -1.72,-4.76 z"
           style="font-family:Asap;-inkscape-font-specification:Asap;fill:#ffffff"
           id="path272339" />
        <path
           d="m 301.36319,448.61552 v -23.92 q 0,-0.88 1.6,-0.88 h 0.16 q 1.6,0 1.6,0.88 v 23.6 q 0,2.96 2.16,2.96 0.68,0 1.16,-0.08 0.48,-0.12 0.56,-0.12 0.36,0 0.6,0.76 0.24,0.72 0.24,1.12 0,1.2 -2.92,1.2 -2,0 -3.6,-1.2 -1.56,-1.24 -1.56,-4.32 z"
           style="font-family:Asap;-inkscape-font-specification:Asap;fill:#ffffff"
           id="path272341" />
        <path
           d="m 314.24315,448.61552 v -12.76 h -2 q -0.8,0 -0.8,-1.2 v -0.48 q 0,-1.2 0.8,-1.2 h 2 l 0.48,-4.2 q 0.08,-0.88 1.28,-0.88 h 0.4 q 1.2,0 1.2,0.88 v 4.2 h 3.36 q 0.8,0 0.8,1.2 v 0.48 q 0,1.2 -0.8,1.2 h -3.36 v 12.44 q 0,2.96 2.16,2.96 0.68,0 1.16,-0.08 0.48,-0.12 0.56,-0.12 0.36,0 0.6,0.76 0.24,0.72 0.24,1.12 0,1.2 -2.92,1.2 -2,0 -3.6,-1.2 -1.56,-1.24 -1.56,-4.32 z"
           style="font-family:Asap;-inkscape-font-specification:Asap;fill:#ffffff"
           id="path272343" />
        <path
           d="m 328.72313,427.93552 q -1.6,0 -1.6,-0.88 v -2.36 q 0,-0.88 1.6,-0.88 h 0.48 q 1.6,0 1.6,0.88 v 2.36 q 0,0.88 -1.6,0.88 z m -1.44,25.16 v -19.32 q 0,-0.88 1.6,-0.88 h 0.16 q 1.6,0 1.6,0.88 v 19.32 q 0,0.88 -1.6,0.88 h -0.16 q -1.6,0 -1.6,-0.88 z"
           style="font-family:Asap;-inkscape-font-specification:Asap;fill:#ffffff"
           id="path272345" />
        <path
           d="m 338.5231,448.61552 v -12.76 h -2 q -0.8,0 -0.8,-1.2 v -0.48 q 0,-1.2 0.8,-1.2 h 2 l 0.48,-4.2 q 0.08,-0.88 1.28,-0.88 h 0.4 q 1.2,0 1.2,0.88 v 4.2 h 3.36 q 0.8,0 0.8,1.2 v 0.48 q 0,1.2 -0.8,1.2 h -3.36 v 12.44 q 0,2.96 2.16,2.96 0.68,0 1.16,-0.08 0.48,-0.12 0.56,-0.12 0.36,0 0.6,0.76 0.24,0.72 0.24,1.12 0,1.2 -2.92,1.2 -2,0 -3.6,-1.2 -1.56,-1.24 -1.56,-4.32 z"
           style="font-family:Asap;-inkscape-font-specification:Asap;fill:#ffffff"
           id="path272347" />
        <path
           d="m 350.92303,447.65552 v -13.88 q 0,-0.88 1.6,-0.88 h 0.16 q 1.6,0 1.6,0.88 v 13.56 q 0,1.84 1.04,2.88 1.08,1 3.04,1 2.88,0 5.04,-2.8 v -14.64 q 0,-0.88 1.6,-0.88 h 0.16 q 1.6,0 1.6,0.88 v 14.2 q 0,2.4 0.2,3.48 0.28,1.48 0.28,1.56 0,0.48 -0.76,0.72 -0.76,0.2 -1.2,0.2 -0.4,0 -0.56,-0.08 -0.16,-0.08 -0.32,-0.28 -0.12,-0.2 -0.2,-0.36 -0.08,-0.2 -0.16,-0.52 -0.08,-0.32 -0.16,-0.48 -0.04,-0.2 -0.12,-0.56 -0.04,-0.4 -0.08,-0.52 -2.68,3 -6,3 -3.28,0 -5.04,-1.72 -1.72,-1.72 -1.72,-4.76 z"
           style="font-family:Asap;-inkscape-font-specification:Asap;fill:#ffffff"
           id="path272349" />
        <path
           d="m 386.403,451.13552 q -2.88,3 -6.4,3 -3.52,0 -5.64,-2.96 -2.08,-2.96 -2.08,-7.6 v -0.36 q 0,-4.92 2.24,-7.68 2.24,-2.8 5.6,-2.8 3.36,0 6,2.04 v -10.08 q 0,-0.88 1.6,-0.88 h 0.16 q 1.6,0 1.6,0.88 v 23.28 q 0,2.4 0.2,3.48 0.28,1.48 0.28,1.56 0,0.48 -0.76,0.72 -0.76,0.2 -1.2,0.2 -0.4,0 -0.56,-0.08 -0.16,-0.08 -0.32,-0.28 -0.12,-0.2 -0.2,-0.36 -0.08,-0.2 -0.16,-0.52 -0.08,-0.32 -0.16,-0.48 -0.04,-0.2 -0.12,-0.56 -0.04,-0.4 -0.08,-0.52 z m -10.6,-8 q 0,8.08 5.2,8.08 2.6,0 5.12,-2.76 v -10.96 q -2.16,-1.8 -4.84,-1.8 h -0.24 q -2.56,0.04 -3.92,1.96 -1.32,1.92 -1.32,5.48 z"
           style="font-family:Asap;-inkscape-font-specification:Asap;fill:#ffffff"
           id="path272351" />
        <path
           d="m 418.60295,451.13552 q -2.88,3 -6.4,3 -3.52,0 -5.64,-2.96 -2.08,-2.96 -2.08,-7.6 v -0.36 q 0,-4.92 2.24,-7.68 2.24,-2.8 5.6,-2.8 3.36,0 6,2.04 v -10.08 q 0,-0.88 1.6,-0.88 h 0.16 q 1.6,0 1.6,0.88 v 23.28 q 0,2.4 0.2,3.48 0.28,1.48 0.28,1.56 0,0.48 -0.76,0.72 -0.76,0.2 -1.2,0.2 -0.4,0 -0.56,-0.08 -0.16,-0.08 -0.32,-0.28 -0.12,-0.2 -0.2,-0.36 -0.08,-0.2 -0.16,-0.52 -0.08,-0.32 -0.16,-0.48 -0.04,-0.2 -0.12,-0.56 -0.04,-0.4 -0.08,-0.52 z m -10.6,-8 q 0,8.08 5.2,8.08 2.6,0 5.12,-2.76 v -10.96 q -2.16,-1.8 -4.84,-1.8 h -0.24 q -2.56,0.04 -3.92,1.96 -1.32,1.92 -1.32,5.48 z"
           style="font-family:Asap;-inkscape-font-specification:Asap;fill:#ffffff"
           id="path272353" />
        <path
           d="m 437.0029,454.13552 q -5,0 -7.4,-2.6 -2.4,-2.6 -2.4,-7.92 0,-5.36 2.36,-8.12 2.36,-2.76 6.72,-2.76 8.48,0 8.48,10.44 0,0.36 -0.48,1 -0.48,0.64 -0.84,0.64 h -12.64 q 0.24,3.32 1.72,4.88 1.48,1.56 4.44,1.56 2.72,0 5,-1.28 0.76,-0.4 0.84,-0.4 0.4,0 0.88,0.8 0.52,0.8 0.52,1.2 0,0.8 -2.2,1.68 -2.16,0.88 -5,0.88 z m 4.2,-12.2 q 0,-6.32 -4.8,-6.32 -5.16,0 -5.6,6.32 z"
           style="font-family:Asap;-inkscape-font-specification:Asap;fill:#ffffff"
           id="path272355" />
        <path
           d="m 75.603516,514.34523 q -5,0 -7.4,-2.6 -2.4,-2.6 -2.4,-7.92 0,-5.36 2.36,-8.12 2.36,-2.76 6.72,-2.76 8.48,0 8.48,10.44 0,0.36 -0.48,1 -0.48,0.64 -0.84,0.64 h -12.64 q 0.24,3.32 1.72,4.88 1.48,1.56 4.44,1.56 2.72,0 5,-1.28 0.76,-0.4 0.84,-0.4 0.4,0 0.88,0.8 0.52,0.8 0.52,1.2 0,0.8 -2.2,1.68 -2.16,0.88 -5,0.88 z m 4.2,-12.2 q 0,-6.32 -4.8,-6.32 -5.16,0 -5.6,6.32 z"
           style="font-family:Asap;-inkscape-font-specification:Asap;fill:#ffffff"
           id="path272357" />
        <path
           d="m 88.603498,513.30523 v -14.04 q 0,-2.44 -0.2,-3.48 -0.28,-1.44 -0.28,-1.56 0,-0.48 0.76,-0.68 0.76,-0.24 1.16,-0.24 0.44,0 0.6,0.08 0.16,0.08 0.28,0.28 0.16,0.16 0.24,0.36 0.08,0.16 0.16,0.48 0.08,0.28 0.12,0.48 0.08,0.16 0.12,0.52 0.08,0.32 0.12,0.44 2.68,-3 5.96,-3 3.320002,0 5.040002,1.72 1.76,1.72 1.76,4.76 v 13.88 q 0,0.88 -1.6,0.88 h -0.16 q -1.6,0 -1.6,-0.88 v -13.56 q 0,-1.84 -1.08,-2.84 -1.040002,-1.04 -3.000002,-1.04 -2.88,0 -5.04,2.8 v 14.64 q 0,0.88 -1.6,0.88 h -0.16 q -1.6,0 -1.6,-0.88 z"
           style="font-family:Asap;-inkscape-font-specification:Asap;fill:#ffffff"
           id="path272359" />
        <path
           d="m 111.76347,513.30523 v -17.24 h -1.6 q -0.8,0 -0.8,-1.2 v -0.48 q 0,-1.2 0.8,-1.2 h 1.6 v -3.8 q 0,-3.44 1.84,-4.56 1.56,-0.96 3.32,-0.96 2.92,0 2.92,1.2 0,0.4 -0.24,1.16 -0.24,0.72 -0.6,0.72 -0.08,0 -0.56,-0.08 -0.48,-0.12 -1.36,-0.12 -0.84,0 -1.4,0.6 -0.56,0.56 -0.56,2.36 v 3.48 h 3.48 q 0.8,0 0.8,1.2 v 0.48 q 0,1.2 -0.8,1.2 h -3.48 v 17.24 q 0,0.88 -1.6,0.88 h -0.16 q -1.6,0 -1.6,-0.88 z"
           style="font-family:Asap;-inkscape-font-specification:Asap;fill:#ffffff"
           id="path272361" />
        <path
           d="m 132.44342,514.34523 q -5,0 -7.4,-2.6 -2.4,-2.6 -2.4,-7.92 0,-5.36 2.36,-8.12 2.36,-2.76 6.72,-2.76 8.48,0 8.48,10.44 0,0.36 -0.48,1 -0.48,0.64 -0.84,0.64 h -12.64 q 0.24,3.32 1.72,4.88 1.48,1.56 4.44,1.56 2.72,0 5,-1.28 0.76,-0.4 0.84,-0.4 0.4,0 0.88,0.8 0.52,0.8 0.52,1.2 0,0.8 -2.2,1.68 -2.16,0.88 -5,0.88 z m 4.2,-12.2 q 0,-6.32 -4.8,-6.32 -5.16,0 -5.6,6.32 z"
           style="font-family:Asap;-inkscape-font-specification:Asap;fill:#ffffff"
           id="path272363" />
        <path
           d="m 145.6034,513.30523 v -14.04 q 0,-2.44 -0.2,-3.48 -0.28,-1.44 -0.28,-1.56 0,-0.48 0.76,-0.68 0.76,-0.24 1.16,-0.24 0.44,0 0.6,0.08 0.16,0.08 0.28,0.28 0.16,0.16 0.24,0.36 0.08,0.16 0.16,0.48 0.08,0.28 0.12,0.48 0.08,0.16 0.12,0.52 0.08,0.32 0.12,0.44 2.12,-3 4.64,-3 1.12,0 1.72,0.44 0.6,0.44 0.6,1.12 0,0.68 -0.24,1.44 -0.24,0.72 -0.56,0.72 -0.16,0 -0.8,-0.2 -0.6,-0.24 -1.48,-0.24 -0.84,0 -1.76,0.64 -0.92,0.6 -1.36,1.2 l -0.48,0.6 v 14.64 q 0,0.88 -1.6,0.88 h -0.16 q -1.6,0 -1.6,-0.88 z"
           style="font-family:Asap;-inkscape-font-specification:Asap;fill:#ffffff"
           id="path272365" />
        <path
           d="m 160.04337,513.30523 v -14.04 q 0,-2.44 -0.2,-3.48 -0.28,-1.44 -0.28,-1.56 0,-0.48 0.76,-0.68 0.76,-0.24 1.16,-0.24 0.44,0 0.6,0.08 0.16,0.08 0.28,0.28 0.16,0.16 0.24,0.36 0.08,0.16 0.16,0.48 0.08,0.28 0.12,0.48 0.08,0.16 0.12,0.52 0.08,0.32 0.12,0.44 2.6,-3 6.08,-3 4.36,0 5.72,3.32 2.8,-3.32 6.36,-3.32 2.28,0 4.08,1.16 1,0.68 1.6,2.04 0.6,1.36 0.6,3.28 v 13.88 q 0,0.88 -1.6,0.88 h -0.16 q -1.6,0 -1.6,-0.88 v -13.56 q 0,-1.8 -1,-2.84 -0.96,-1.04 -2.84,-1.04 -2.48,0 -4.92,2.76 0.04,0.28 0.04,0.84 v 13.84 q 0,0.88 -1.6,0.88 h -0.16 q -1.6,0 -1.6,-0.88 v -13.56 q 0,-1.8 -1,-2.84 -0.96,-1.04 -2.56,-1.04 -1.56,0 -2.8,0.68 -1.2,0.68 -1.76,1.4 l -0.6,0.68 v 14.68 q 0,0.88 -1.6,0.88 h -0.16 q -1.6,0 -1.6,-0.88 z"
           style="font-family:Asap;-inkscape-font-specification:Asap;fill:#ffffff"
           id="path272367" />
        <path
           d="m 202.56335,514.34523 q -5,0 -7.4,-2.6 -2.4,-2.6 -2.4,-7.92 0,-5.36 2.36,-8.12 2.36,-2.76 6.72,-2.76 8.48,0 8.48,10.44 0,0.36 -0.48,1 -0.48,0.64 -0.84,0.64 h -12.64 q 0.24,3.32 1.72,4.88 1.48,1.56 4.44,1.56 2.72,0 5,-1.28 0.76,-0.4 0.84,-0.4 0.4,0 0.88,0.8 0.52,0.8 0.52,1.2 0,0.8 -2.2,1.68 -2.16,0.88 -5,0.88 z m 4.2,-12.2 q 0,-6.32 -4.8,-6.32 -5.16,0 -5.6,6.32 z"
           style="font-family:Asap;-inkscape-font-specification:Asap;fill:#ffffff"
           id="path272369" />
        <path
           d="m 228.32334,511.34523 q -2.88,3 -6.4,3 -3.52,0 -5.64,-2.96 -2.08,-2.96 -2.08,-7.6 v -0.36 q 0,-4.92 2.24,-7.68 2.24,-2.8 5.6,-2.8 3.36,0 6,2.04 v -10.08 q 0,-0.88 1.6,-0.88 h 0.16 q 1.6,0 1.6,0.88 v 23.28 q 0,2.4 0.2,3.48 0.28,1.48 0.28,1.56 0,0.48 -0.76,0.72 -0.76,0.2 -1.2,0.2 -0.4,0 -0.56,-0.08 -0.16,-0.08 -0.32,-0.28 -0.12,-0.2 -0.2,-0.36 -0.08,-0.2 -0.16,-0.52 -0.08,-0.32 -0.16,-0.48 -0.04,-0.2 -0.12,-0.56 -0.04,-0.4 -0.08,-0.52 z m -10.6,-8 q 0,8.08 5.2,8.08 2.6,0 5.12,-2.76 v -10.96 q -2.16,-1.8 -4.84,-1.8 h -0.24 q -2.56,0.04 -3.92,1.96 -1.32,1.92 -1.32,5.48 z"
           style="font-family:Asap;-inkscape-font-specification:Asap;fill:#ffffff"
           id="path272371" />
        <path
           d="m 249.96328,501.06523 v -1.88 q 0,-3.36 -4.4,-3.36 -2.88,0 -5.32,1.24 -0.84,0.44 -0.92,0.44 -0.4,0 -0.92,-0.8 -0.48,-0.8 -0.48,-1.2 0,-0.84 2.32,-1.68 2.36,-0.88 5.64,-0.88 3.28,0 5.36,1.68 2.08,1.64 2.08,4.6 v 8.96 q 0,2.4 0.2,3.48 0.28,1.48 0.28,1.56 0,0.48 -0.76,0.72 -0.76,0.2 -1.2,0.2 -0.4,0 -0.56,-0.08 -0.16,-0.08 -0.32,-0.28 -0.12,-0.2 -0.2,-0.36 -0.08,-0.2 -0.16,-0.52 -0.08,-0.32 -0.16,-0.48 -0.04,-0.2 -0.12,-0.56 -0.04,-0.4 -0.08,-0.52 -2.72,3 -6.72,3 -3.08,0 -4.96,-1.52 -1.88,-1.52 -1.88,-4.68 0,-3.16 2.16,-4.72 2.2,-1.6 4.92,-1.92 2.72,-0.36 6.2,-0.44 z m -9.68,7.08 q 0,3.28 3.4,3.28 1.96,0 3.36,-0.72 1.44,-0.72 2.92,-2.04 v -4.72 q -5,0 -6.44,0.56 -0.76,0.28 -1.6,0.72 -1.64,0.84 -1.64,2.92 z"
           style="font-family:Asap;-inkscape-font-specification:Asap;fill:#ffffff"
           id="path272373" />
        <path
           d="m 272.72321,511.34523 q -2.88,3 -6.4,3 -3.52,0 -5.64,-2.96 -2.08,-2.96 -2.08,-7.6 v -0.36 q 0,-4.92 2.24,-7.68 2.24,-2.8 5.6,-2.8 3.36,0 6,2.04 v -10.08 q 0,-0.88 1.6,-0.88 h 0.16 q 1.6,0 1.6,0.88 v 23.28 q 0,2.4 0.2,3.48 0.28,1.48 0.28,1.56 0,0.48 -0.76,0.72 -0.76,0.2 -1.2,0.2 -0.4,0 -0.56,-0.08 -0.16,-0.08 -0.32,-0.28 -0.12,-0.2 -0.2,-0.36 -0.08,-0.2 -0.16,-0.52 -0.08,-0.32 -0.16,-0.48 -0.04,-0.2 -0.12,-0.56 -0.04,-0.4 -0.08,-0.52 z m -10.6,-8 q 0,8.08 5.2,8.08 2.6,0 5.12,-2.76 v -10.96 q -2.16,-1.8 -4.84,-1.8 h -0.24 q -2.56,0.04 -3.92,1.96 -1.32,1.92 -1.32,5.48 z"
           style="font-family:Asap;-inkscape-font-specification:Asap;fill:#ffffff"
           id="path272375" />
        <path
           d="m 291.12315,514.34523 q -5,0 -7.4,-2.6 -2.4,-2.6 -2.4,-7.92 0,-5.36 2.36,-8.12 2.36,-2.76 6.72,-2.76 8.48,0 8.48,10.44 0,0.36 -0.48,1 -0.48,0.64 -0.84,0.64 h -12.64 q 0.24,3.32 1.72,4.88 1.48,1.56 4.44,1.56 2.72,0 5,-1.28 0.76,-0.4 0.84,-0.4 0.4,0 0.88,0.8 0.52,0.8 0.52,1.2 0,0.8 -2.2,1.68 -2.16,0.88 -5,0.88 z m 4.2,-12.2 q 0,-6.32 -4.8,-6.32 -5.16,0 -5.6,6.32 z"
           style="font-family:Asap;-inkscape-font-specification:Asap;fill:#ffffff"
           id="path272377" />
        <path
           d="m 302.08314,511.94523 q 0,-0.4 0.48,-1.2 0.52,-0.8 0.92,-0.8 0.04,0 0.64,0.4 0.6,0.36 1.72,0.76 1.12,0.36 2.68,0.36 1.6,0 2.6,-0.88 1.04,-0.92 1.04,-2.44 0,-1.56 -0.92,-2.4 -0.88,-0.88 -3.56,-1.64 -2.68,-0.76 -3.88,-1.92 -1.2,-1.2 -1.2,-3.6 0,-2.4 1.84,-4 1.84,-1.64 4.8,-1.64 2.04,0 3.64,0.52 1.6,0.52 1.6,1.16 0,0.52 -0.48,1.36 -0.44,0.8 -0.8,0.8 -0.04,0 -0.52,-0.24 -1.36,-0.72 -3.08,-0.72 -1.68,0 -2.64,0.72 -0.92,0.68 -0.92,1.8 0,1.12 0.68,1.76 0.72,0.64 2.4,1.16 3.76,1.16 5.08,2.56 1.36,1.36 1.36,4.16 0,2.76 -2,4.56 -1.96,1.8 -4.72,1.8 -2.76,0 -4.76,-0.8 -2,-0.84 -2,-1.6 z"
           style="font-family:Asap;-inkscape-font-specification:Asap;fill:#ffffff"
           id="path272379" />
        <path
           d="m 338.24304,514.34523 q -4.48,0 -6.88,-2.72 -2.36,-2.72 -2.36,-7.88 0,-5.2 2.4,-8 2.4,-2.8 6.84,-2.8 4.44,0 6.76,2.8 2.36,2.76 2.36,8 0,5.2 -2.32,7.92 -2.28,2.68 -6.8,2.68 z m -4.36,-4.76 q 1.36,1.88 4.28,1.88 2.92,0 4.32,-1.88 1.4,-1.92 1.4,-5.92 0,-4 -1.4,-5.92 -1.4,-1.92 -4.32,-1.92 -2.92,0 -4.28,1.92 -1.36,1.88 -1.36,5.92 0,4 1.36,5.92 z"
           style="font-family:Asap;-inkscape-font-specification:Asap;fill:#ffffff"
           id="path272381" />
        <path
           d="m 356.36299,521.54523 q 0,0.88 -1.6,0.88 h -0.16 q -1.6,0 -1.6,-0.88 v -22.28 q 0,-2.44 -0.2,-3.48 -0.28,-1.44 -0.28,-1.56 0,-0.48 0.76,-0.68 0.76,-0.24 1.16,-0.24 0.44,0 0.6,0.08 0.16,0.08 0.28,0.28 0.16,0.16 0.24,0.36 0.08,0.16 0.16,0.48 0.08,0.28 0.12,0.48 0.08,0.16 0.12,0.52 0.08,0.32 0.12,0.44 2.88,-3 6.4,-3 3.52,0 5.6,2.96 2.12,2.96 2.12,7.6 v 0.36 q 0,4.92 -2.24,7.72 -2.24,2.76 -5.6,2.76 -3.36,0 -6,-2.04 z m 4.84,-10.16 h 0.24 q 2.56,-0.04 3.88,-1.96 1.36,-1.92 1.36,-5.64 0,-3.72 -1.28,-5.8 -1.28,-2.12 -3.92,-2.12 -2.6,0 -5.12,2.76 v 10.96 q 2.16,1.8 4.84,1.8 z"
           style="font-family:Asap;-inkscape-font-specification:Asap;fill:#ffffff"
           id="path272383" />
        <path
           d="m 383.92297,514.34523 q -4.48,0 -6.88,-2.72 -2.36,-2.72 -2.36,-7.88 0,-5.2 2.4,-8 2.4,-2.8 6.84,-2.8 4.44,0 6.76,2.8 2.36,2.76 2.36,8 0,5.2 -2.32,7.92 -2.28,2.68 -6.8,2.68 z m -4.36,-4.76 q 1.36,1.88 4.28,1.88 2.92,0 4.32,-1.88 1.4,-1.92 1.4,-5.92 0,-4 -1.4,-5.92 -1.4,-1.92 -4.32,-1.92 -2.92,0 -4.28,1.92 -1.36,1.88 -1.36,5.92 0,4 1.36,5.92 z"
           style="font-family:Asap;-inkscape-font-specification:Asap;fill:#ffffff"
           id="path272385" />
        <path
           d="m 398.84292,513.30523 v -14.04 q 0,-2.44 -0.2,-3.48 -0.28,-1.44 -0.28,-1.56 0,-0.48 0.76,-0.68 0.76,-0.24 1.16,-0.24 0.44,0 0.6,0.08 0.16,0.08 0.28,0.28 0.16,0.16 0.24,0.36 0.08,0.16 0.16,0.48 0.08,0.28 0.12,0.48 0.08,0.16 0.12,0.52 0.08,0.32 0.12,0.44 2.12,-3 4.64,-3 1.12,0 1.72,0.44 0.6,0.44 0.6,1.12 0,0.68 -0.24,1.44 -0.24,0.72 -0.56,0.72 -0.16,0 -0.8,-0.2 -0.6,-0.24 -1.48,-0.24 -0.84,0 -1.76,0.64 -0.92,0.6 -1.36,1.2 l -0.48,0.6 v 14.64 q 0,0.88 -1.6,0.88 h -0.16 q -1.6,0 -1.6,-0.88 z"
           style="font-family:Asap;-inkscape-font-specification:Asap;fill:#ffffff"
           id="path272387" />
        <path
           d="m 414.16287,508.82523 v -12.76 h -2 q -0.8,0 -0.8,-1.2 v -0.48 q 0,-1.2 0.8,-1.2 h 2 l 0.48,-4.2 q 0.08,-0.88 1.28,-0.88 h 0.4 q 1.2,0 1.2,0.88 v 4.2 h 3.36 q 0.8,0 0.8,1.2 v 0.48 q 0,1.2 -0.8,1.2 h -3.36 v 12.44 q 0,2.96 2.16,2.96 0.68,0 1.16,-0.08 0.48,-0.12 0.56,-0.12 0.36,0 0.6,0.76 0.24,0.72 0.24,1.12 0,1.2 -2.92,1.2 -2,0 -3.6,-1.2 -1.56,-1.24 -1.56,-4.32 z"
           style="font-family:Asap;-inkscape-font-specification:Asap;fill:#ffffff"
           id="path272389" />
        <path
           d="m 426.56287,507.86523 v -13.88 q 0,-0.88 1.6,-0.88 h 0.16 q 1.6,0 1.6,0.88 v 13.56 q 0,1.84 1.04,2.88 1.08,1 3.04,1 2.88,0 5.04,-2.8 v -14.64 q 0,-0.88 1.6,-0.88 h 0.16 q 1.6,0 1.6,0.88 v 14.2 q 0,2.4 0.2,3.48 0.28,1.48 0.28,1.56 0,0.48 -0.76,0.72 -0.76,0.2 -1.2,0.2 -0.4,0 -0.56,-0.08 -0.16,-0.08 -0.32,-0.28 -0.12,-0.2 -0.2,-0.36 -0.08,-0.2 -0.16,-0.52 -0.08,-0.32 -0.16,-0.48 -0.04,-0.2 -0.12,-0.56 -0.04,-0.4 -0.08,-0.52 -2.68,3 -6,3 -3.28,0 -5.04,-1.72 -1.72,-1.72 -1.72,-4.76 z"
           style="font-family:Asap;-inkscape-font-specification:Asap;fill:#ffffff"
           id="path272391" />
        <path
           d="m 449.28283,513.30523 v -14.04 q 0,-2.44 -0.2,-3.48 -0.28,-1.44 -0.28,-1.56 0,-0.48 0.76,-0.68 0.76,-0.24 1.16,-0.24 0.44,0 0.6,0.08 0.16,0.08 0.28,0.28 0.16,0.16 0.24,0.36 0.08,0.16 0.16,0.48 0.08,0.28 0.12,0.48 0.08,0.16 0.12,0.52 0.08,0.32 0.12,0.44 2.68,-3 5.96,-3 3.32,0 5.04,1.72 1.76,1.72 1.76,4.76 v 13.88 q 0,0.88 -1.6,0.88 h -0.16 q -1.6,0 -1.6,-0.88 v -13.56 q 0,-1.84 -1.08,-2.84 -1.04,-1.04 -3,-1.04 -2.88,0 -5.04,2.8 v 14.64 q 0,0.88 -1.6,0.88 h -0.16 q -1.6,0 -1.6,-0.88 z"
           style="font-family:Asap;-inkscape-font-specification:Asap;fill:#ffffff"
           id="path272393" />
        <path
           d="m 473.2028,488.14523 q -1.6,0 -1.6,-0.88 v -2.36 q 0,-0.88 1.6,-0.88 h 0.48 q 1.6,0 1.6,0.88 v 2.36 q 0,0.88 -1.6,0.88 z m -1.44,25.16 v -19.32 q 0,-0.88 1.6,-0.88 h 0.16 q 1.6,0 1.6,0.88 v 19.32 q 0,0.88 -1.6,0.88 h -0.16 q -1.6,0 -1.6,-0.88 z"
           style="font-family:Asap;-inkscape-font-specification:Asap;fill:#ffffff"
           id="path272395" />
        <path
           d="m 483.00278,508.82523 v -12.76 h -2 q -0.8,0 -0.8,-1.2 v -0.48 q 0,-1.2 0.8,-1.2 h 2 l 0.48,-4.2 q 0.08,-0.88 1.28,-0.88 h 0.4 q 1.2,0 1.2,0.88 v 4.2 h 3.36 q 0.8,0 0.8,1.2 v 0.48 q 0,1.2 -0.8,1.2 h -3.36 v 12.44 q 0,2.96 2.16,2.96 0.68,0 1.16,-0.08 0.48,-0.12 0.56,-0.12 0.36,0 0.6,0.76 0.24,0.72 0.24,1.12 0,1.2 -2.92,1.2 -2,0 -3.6,-1.2 -1.56,-1.24 -1.56,-4.32 z"
           style="font-family:Asap;-inkscape-font-specification:Asap;fill:#ffffff"
           id="path272397" />
        <path
           d="m 507.64271,501.06523 v -1.88 q 0,-3.36 -4.4,-3.36 -2.88,0 -5.32,1.24 -0.84,0.44 -0.92,0.44 -0.4,0 -0.92,-0.8 -0.48,-0.8 -0.48,-1.2 0,-0.84 2.32,-1.68 2.36,-0.88 5.64,-0.88 3.28,0 5.36,1.68 2.08,1.64 2.08,4.6 v 8.96 q 0,2.4 0.2,3.48 0.28,1.48 0.28,1.56 0,0.48 -0.76,0.72 -0.76,0.2 -1.2,0.2 -0.4,0 -0.56,-0.08 -0.16,-0.08 -0.32,-0.28 -0.12,-0.2 -0.2,-0.36 -0.08,-0.2 -0.16,-0.52 -0.08,-0.32 -0.16,-0.48 -0.04,-0.2 -0.12,-0.56 -0.04,-0.4 -0.08,-0.52 -2.72,3 -6.72,3 -3.08,0 -4.96,-1.52 -1.88,-1.52 -1.88,-4.68 0,-3.16 2.16,-4.72 2.2,-1.6 4.92,-1.92 2.72,-0.36 6.2,-0.44 z m -9.68,7.08 q 0,3.28 3.4,3.28 1.96,0 3.36,-0.72 1.44,-0.72 2.92,-2.04 v -4.72 q -5,0 -6.44,0.56 -0.76,0.28 -1.6,0.72 -1.64,0.84 -1.64,2.92 z"
           style="font-family:Asap;-inkscape-font-specification:Asap;fill:#ffffff"
           id="path272399" />
        <path
           d="m 515.60264,511.94523 q 0,-0.4 0.48,-1.2 0.52,-0.8 0.92,-0.8 0.04,0 0.64,0.4 0.6,0.36 1.72,0.76 1.12,0.36 2.68,0.36 1.6,0 2.6,-0.88 1.04,-0.92 1.04,-2.44 0,-1.56 -0.92,-2.4 -0.88,-0.88 -3.56,-1.64 -2.68,-0.76 -3.88,-1.92 -1.2,-1.2 -1.2,-3.6 0,-2.4 1.84,-4 1.84,-1.64 4.8,-1.64 2.04,0 3.64,0.52 1.6,0.52 1.6,1.16 0,0.52 -0.48,1.36 -0.44,0.8 -0.8,0.8 -0.04,0 -0.52,-0.24 -1.36,-0.72 -3.08,-0.72 -1.68,0 -2.64,0.72 -0.92,0.68 -0.92,1.8 0,1.12 0.68,1.76 0.72,0.64 2.4,1.16 3.76,1.16 5.08,2.56 1.36,1.36 1.36,4.16 0,2.76 -2,4.56 -1.96,1.8 -4.72,1.8 -2.76,0 -4.76,-0.8 -2,-0.84 -2,-1.6 z"
           style="font-family:Asap;-inkscape-font-specification:Asap;fill:#ffffff"
           id="path272401" />
      </g>
      <path
         fill="#ff5252"
         opacity="1"
         d="m 22.962127,18.98664 c 1.471093,-1.354676 4.071081,-1.703928 5.609202,-0.303391 0.945451,0.952506 0.246946,2.462404 -0.94545,2.769323 0.582087,0.285751 1.255897,0.599726 1.460509,1.277063 0.41628,1.019534 -0.335141,2.173125 -1.308814,2.529433 -1.612204,0.666754 -3.460772,0.254001 -4.850725,-0.726727 0.328086,-0.462142 0.603254,-0.963089 0.96309,-1.404064 0.924283,0.620892 2.24368,1.199452 3.256159,0.426863 0.582087,-1.421703 -1.47462,-1.15359 -2.271903,-1.174757 0,-0.546809 0,-1.093618 0,-1.636899 0.779644,0.01058 1.580454,0.0035 2.303653,-0.342197 -0.38453,-1.520481 -2.363626,-0.871366 -3.305548,-0.282224 -0.303391,-0.377474 -0.606782,-0.754949 -0.910173,-1.132423 z"
         id="path4"
         style="stroke-width:0.35278" />
    </g>
  </g>
</svg>
